<svg width="24" height="24" viewBox="0 0 24 24">
  <path d="M14.0002 4c0 1.1046-.8954 2-2 2s-2-.8954-2-2 .8954-2 2-2 2 .8954 2 2Z"/>
  <path d="M4.4826 5.124c-.4837-.2664-1.0919-.0902-1.3583.3935-.2665.4838-.0903 1.092.3934 1.3584 1.6967.9346 3.5611 1.5607 5.4825 1.8785V21c0 .5523.4477 1 1 1s1-.4477 1-1v-6h2v6c0 .5523.4477 1 1 1s1-.4477 1-1V8.7544c1.9214-.3178 3.7857-.944 5.4824-1.8785.4838-.2664.66-.8746.3935-1.3584-.2665-.4837-.8746-.6599-1.3584-.3934-4.541 2.5012-10.494 2.5012-15.035 0Z"/>
</svg>
