<svg width="24" height="24" viewBox="0 0 24 24">
  <path d="M19.5 10.75h-4.4824l3.1694-3.1695c.4883-.488.4883-1.2795 0-1.7675-.4883-.4883-1.2792-.4883-1.7675 0L13.25 8.9824V4.5c0-.6904-.5595-1.25-1.25-1.25s-1.25.5596-1.25 1.25v4.4824L7.5805 5.8129c-.4882-.4882-1.2793-.4882-1.7675 0-.4883.4881-.4883 1.2796 0 1.7676L8.9824 10.75H4.5c-.6904 0-1.25.5595-1.25 1.25s.5596 1.25 1.25 1.25h4.4824l-3.1695 3.1695c-.4882.488-.4882 1.2795 0 1.7675.2442.2442.564.3662.8838.3662.3199 0 .6397-.122.8838-.3662l3.1695-3.1694V19.5c0 .6905.5595 1.25 1.25 1.25s1.25-.5595 1.25-1.25v-4.4824l3.1695 3.1694c.2441.2442.5639.3662.8837.3662.3199 0 .6397-.122.8838-.3662.4883-.488.4883-1.2795 0-1.7675L15.0176 13.25H19.5c.6905 0 1.25-.5595 1.25-1.25s-.5595-1.25-1.25-1.25Z"/>
</svg>
