<svg width="24" height="24" viewBox="0 0 24 24">
  <path d="M19.25 10.5h-4.4824l3.1694-3.1695c.4884-.488.4884-1.2795 0-1.7675-.4883-.4883-1.2792-.4883-1.7675 0L13 8.7324V4.25C13 3.5596 12.4404 3 11.75 3s-1.25.5596-1.25 1.25v4.4824L7.3305 5.5629c-.4882-.4882-1.2793-.4882-1.7675 0-.4883.4881-.4883 1.2796 0 1.7676L8.7324 10.5H4.25c-.6904 0-1.25.5596-1.25 1.25S3.5596 13 4.25 13h4.4824l-3.1695 3.1695c-.4882.488-.4882 1.2795 0 1.7675.2442.2442.564.3662.8838.3662.3199 0 .6397-.122.8838-.3662L10.5 14.7676V19.25c0 .6905.5596 1.25 1.25 1.25S13 19.9405 13 19.25v-4.4824l3.1695 3.1694c.2441.2442.5639.3662.8837.3662.3199 0 .6397-.122.8838-.3662.4884-.488.4884-1.2795 0-1.7675L14.7676 13H19.25c.6905 0 1.25-.5596 1.25-1.25s-.5595-1.25-1.25-1.25Z"/>
</svg>
