<svg width="24" height="24" viewBox="0 0 24 24">
  <path d="M5.397 5.4163A3 3 0 0 1 8.1946 3.5h7.5951a3 3 0 0 1 2.7943 1.908l1.7141 4.3866C21.3049 10.2785 22 11.308 22 12.5V19c0 .8284-.6716 1.5-1.5 1.5H19c-.8284 0-1.5-.6716-1.5-1.5v-1h-11v1c0 .8284-.6716 1.5-1.5 1.5H3.5c-.8284 0-1.5-.6716-1.5-1.5v-6.5c0-1.1914.6944-2.2205 1.7006-2.7048l1.6965-4.379Zm11.324.7197a1 1 0 0 0-.9314-.636H8.1945a1 1 0 0 0-.9325.6387L5.9598 9.5h12.0758L16.721 6.136ZM7.5 14c0-.8284-.6716-1.5-1.5-1.5s-1.5.6716-1.5 1.5.6716 1.5 1.5 1.5 1.5-.6716 1.5-1.5Zm12 0c0-.8284-.6716-1.5-1.5-1.5s-1.5.6716-1.5 1.5.6716 1.5 1.5 1.5 1.5-.6716 1.5-1.5Z"/>
</svg>
