<svg width="24" height="24" viewBox="0 0 24 24">
  <path d="M12 22c5.5229 0 10-4.4771 10-10 0-5.5228-4.4771-10-10-10S2 6.4772 2 12c0 5.5229 4.4771 10 10 10Zm3.7071-13.707c.3905.3904.3905 1.0236 0 1.4141L13.4142 12l2.2929 2.2929c.3905.3905.3905 1.0237 0 1.4142-.3905.3905-1.0237.3905-1.4142 0L12 13.4142l-2.2929 2.2929c-.3905.3905-1.0237.3905-1.4142 0-.3905-.3905-.3905-1.0237 0-1.4142L10.5858 12l-2.293-2.2929c-.3904-.3905-.3904-1.0237 0-1.4142.3906-.3905 1.0238-.3905 1.4143 0L12 10.5858l2.2929-2.2929c.3905-.3905 1.0237-.3905 1.4142 0Z"/>
</svg>
