<svg width="24" height="24" viewBox="0 0 24 24">
  <path d="M4.7071 4.2929c-.3905-.3905-1.0237-.3905-1.4142 0-.3905.3905-.3905 1.0237 0 1.4142l8 8c.3905.3905 1.0237.3905 1.4142 0l8-8c.3905-.3905.3905-1.0237 0-1.4142-.3905-.3905-1.0237-.3905-1.4142 0L12 11.5858l-7.2929-7.293Z"/>
  <path d="M4.7071 10.2929c-.3905-.3905-1.0237-.3905-1.4142 0-.3905.3905-.3905 1.0237 0 1.4142l8 8c.3905.3905 1.0237.3905 1.4142 0l8-8c.3905-.3905.3905-1.0237 0-1.4142-.3905-.3905-1.0237-.3905-1.4142 0L12 17.5858l-7.2929-7.2929Z"/>
</svg>
