<svg width="24" height="24" viewBox="0 0 24 24">
  <path d="M16 0H8.6154A4.6154 4.6154 0 0 0 5.846 8.3077a4.6153 4.6153 0 0 0 0 7.3846 4.6155 4.6155 0 1 0 7.3847 3.6923v-3.6923A4.6152 4.6152 0 0 0 20.6154 12a4.6155 4.6155 0 0 0-1.8461-3.6923 4.6156 4.6156 0 0 0 .4943-6.9559A4.6155 4.6155 0 0 0 16 0Zm-2.7692 12a2.769 2.769 0 1 1 5.5384 0A2.7689 2.7689 0 0 1 16 14.7692 2.7689 2.7689 0 0 1 13.2308 12Zm-1.8462 4.6154v2.7692a2.7691 2.7691 0 1 1-5.5385 0 2.7692 2.7692 0 0 1 2.7693-2.7692h2.7692ZM8.6154 7.3846a2.7692 2.7692 0 0 1 0-5.5385h2.7692v5.5385H8.6154Zm0 1.8462h2.7692v5.5384H8.6154A2.769 2.769 0 0 1 5.8462 12a2.7692 2.7692 0 0 1 2.7692-2.7692ZM16 7.3846h-2.7692V1.8461H16a2.7692 2.7692 0 0 1 0 5.5385Z"/>
</svg>
