<svg width="24" height="24" viewBox="0 0 24 24">
  <path d="M12.0002 2h-.0058C6.4747 2 2 6.4767 2 11.9988c0 4.6442 3.165 8.5489 7.4548 9.6732l.0695.0154c.7443.1984 1.5989.3126 2.4801.3126C17.525 22 22 17.523 22 12S17.5249 2 12.0044 2h-.0042ZM9.7681 19.7882a942.2017 942.2017 0 0 1-.0067-1.8417l-.2696.0479a3.284 3.284 0 0 1-.6555.0413h.0059a4.8537 4.8537 0 0 1-.845-.0892l.0304.005a1.7965 1.7965 0 0 1-.7887-.3631l.0033.0029a1.5287 1.5287 0 0 1-.5125-.7283l-.0029-.0108-.1171-.2764a2.9972 2.9972 0 0 0-.3742-.6195l.005.0067a1.4343 1.4343 0 0 0-.502-.4527l-.0076-.0038-.082-.0604a.852.852 0 0 1-.1513-.143l-.0013-.0013a.664.664 0 0 1-.1037-.1638l-.0016-.0041c-.0236-.0562-.0042-.1023.0583-.1384a.7313.7313 0 0 1 .3425-.0534h-.0025l.2342.0359c.222.0621.4158.1613.5841.2914l-.0037-.0029c.2333.1646.4238.3735.5633.6153l.005.0091c.1584.3039.378.5557.6442.747l.0063.0042c.2228.1626.4901.2528.7658.2584h.0017l.045.0004c.2204 0 .4355-.0221.6438-.0638l-.0209.0034c.1873-.0394.369-.102.5408-.1864l-.0133.0059a1.963 1.963 0 0 1 .5742-1.2377 7.8776 7.8776 0 0 1-1.2563-.2288l.055.0125a4.7083 4.7083 0 0 1-1.1234-.4811l.0217.0121a3.1904 3.1904 0 0 1-.9384-.7987l-.005-.0066a3.8692 3.8692 0 0 1-.6083-1.2343l-.0066-.0275a6.0065 6.0065 0 0 1-.24-1.8079v.0054a3.5424 3.5424 0 0 1 .9283-2.479l-.0025.0028a3.2401 3.2401 0 0 1-.1966-1.123c0-.4806.1025-.937.2866-1.349l-.0084.021a1.5986 1.5986 0 0 1 1.0168.1663l-.0088-.0042c.3821.1468.7046.3022 1.0117.4807l-.0334-.018c.207.128.373.236.498.3244.6742-.1984 1.4488-.3123 2.2501-.3123.8012 0 1.5758.1142 2.3084.3268l-.0584-.0146.4455-.2884a6.0374 6.0374 0 0 1 1.0354-.5144l.0425-.0146a1.4822 1.4822 0 0 1 .6709-.1584c.0987 0 .195.0096.2883.0275l-.0096-.0017c.1817.3944.2875.8554.2875 1.3415 0 .398-.0708.7795-.2008 1.1322l.0075-.0225a3.5422 3.5422 0 0 1 .9267 2.3944l-.0009.0859v-.0042l.0009.0951a6.2091 6.2091 0 0 1-.2521 1.7574l.0112-.0437a3.7617 3.7617 0 0 1-.6275 1.2714l.0067-.0092a3.32 3.32 0 0 1-.9334.7908l-.0162.0084c-.3167.1888-.6821.3485-1.0684.4606l-.0333.0084c-.3413.0942-.7492.1705-1.1675.2138l-.0338.0029a2.1632 2.1632 0 0 1 .6088 1.715l.0004-.0084v2.6575c-.67.2042-1.4405.3218-2.238.3218a7.9457 7.9457 0 0 1-2.2884-.3348l.0563.0146h-.001Z"/>
</svg>
