<svg width="24" height="24" viewBox="0 0 24 24">
  <path d="M12.0002 2h-.0058C6.4747 2 2 6.4767 2 11.9987c0 4.6443 3.165 8.5489 7.4548 9.6732l.0695.0154c.7443.1985 1.5989.3127 2.4801.3127C17.525 22 22 17.523 22 12S17.5249 2 12.0044 2h-.0042ZM9.7681 19.7882a942.304 942.304 0 0 1-.0067-1.8418l-.2696.048a3.2915 3.2915 0 0 1-.6555.0413h.0059a4.8538 4.8538 0 0 1-.845-.0893l.0304.0051a1.7965 1.7965 0 0 1-.7887-.3631l.0033.0028a1.5285 1.5285 0 0 1-.5125-.7282l-.0029-.0109-.1171-.2763a2.9972 2.9972 0 0 0-.3742-.6195l.005.0066a1.435 1.435 0 0 0-.502-.4526l-.0076-.0038-.082-.0605a.8514.8514 0 0 1-.1513-.1429l-.0013-.0013a.6658.6658 0 0 1-.1037-.1638l-.0016-.0041c-.0236-.0562-.0042-.1023.0583-.1384a.7288.7288 0 0 1 .3425-.0534h-.0025l.2342.0359a1.688 1.688 0 0 1 .5841.2914l-.0037-.003c.2333.1647.4238.3735.5633.6154l.005.0091c.1584.3039.378.5556.6442.747l.0063.0041c.2228.1626.4901.2529.7658.2585h.0017l.045.0004c.2204 0 .4355-.0221.6438-.0638l-.0209.0034c.1873-.0394.369-.102.5408-.1864l-.0133.0059a1.9627 1.9627 0 0 1 .5742-1.2377 7.8667 7.8667 0 0 1-1.2563-.2289l.055.0125a4.704 4.704 0 0 1-1.1234-.481l.0217.0121a3.1904 3.1904 0 0 1-.9384-.7987l-.005-.0066a3.8697 3.8697 0 0 1-.6083-1.2344l-.0066-.0274a6.0067 6.0067 0 0 1-.24-1.808v.0054a3.5423 3.5423 0 0 1 .9283-2.479l-.0025.0029a3.2401 3.2401 0 0 1-.1966-1.123c0-.4806.1025-.9371.2866-1.349l-.0084.0209a1.5986 1.5986 0 0 1 1.0168.1663l-.0088-.0041c.3821.1468.7046.3022 1.0117.4807l-.0334-.018c.207.1279.373.236.498.3243.6742-.1984 1.4488-.3122 2.2501-.3122.8012 0 1.5758.1142 2.3084.3268l-.0584-.0146.4455-.2885a6.0374 6.0374 0 0 1 1.0354-.5143l.0425-.0146a1.4822 1.4822 0 0 1 .6709-.1585c.0987 0 .195.0096.2883.0275l-.0096-.0016c.1817.3943.2875.8554.2875 1.3415 0 .398-.0708.7794-.2008 1.1322l.0075-.0226a3.5422 3.5422 0 0 1 .9267 2.3945l-.0009.0859v-.0042l.0009.095a6.2098 6.2098 0 0 1-.2521 1.7575l.0112-.0437a3.7604 3.7604 0 0 1-.6275 1.2713l.0067-.0091a3.32 3.32 0 0 1-.9334.7908l-.0162.0083c-.3167.1889-.6821.3485-1.0684.4607l-.0333.0084c-.3413.0942-.7492.1704-1.1675.2138l-.0338.0029a2.1629 2.1629 0 0 1 .6088 1.7149l.0004-.0083v2.6575c-.67.2042-1.4405.3218-2.238.3218a7.9457 7.9457 0 0 1-2.2884-.3348l.0563.0146h-.001Z"/>
</svg>
