<?xml version="1.0" encoding="UTF-8"?><svg xmlns="http://www.w3.org/2000/svg" width="48" height="48" viewBox="0 0 48 48"><g id="a"><g id="b"/></g><g id="c"/><g id="d"><g id="e"/></g><g id="f"><g id="g"><path d="M24,4C12.9717,4,4,12.9722,4,24s8.9717,20,20,20,20-8.9717,20-20S35.0283,4,24,4Zm13.835,12h-5.3924c-.794-2.8966-1.9254-5.2387-3.0387-7.0406,3.5701,1.2871,6.5502,3.801,8.4311,7.0406Zm2.165,8c0,1.3833-.1949,2.7189-.5266,4h-6.2379c.1616-1.2604,.2644-2.5851,.2644-4s-.1028-2.7395-.2644-4h6.2379c.3316,1.2811,.5266,2.6167,.5266,4Zm-21.2073,4c-.1829-1.2413-.2927-2.5704-.2927-4s.1098-2.7587,.2927-4h10.4147c.1829,1.2413,.2927,2.5704,.2927,4s-.1099,2.7587-.2927,4h-10.4146Zm9.4816,4c-1.2644,3.9185-3.1901,6.464-4.2739,7.6655-1.0864-1.2046-3.0109-3.7498-4.2746-7.6655h8.5485Zm-8.5485-16c1.2636-3.9155,3.1877-6.4605,4.2742-7.6652,1.0865,1.2047,3.0106,3.7497,4.2742,7.6652h-8.5485Zm-1.1297-7.0406c-1.1133,1.8019-2.2447,4.144-3.0387,7.0406h-5.3924c1.8809-3.2396,4.8611-5.7535,8.4311-7.0406Zm-10.0695,11.0406h6.2379c-.1616,1.2605-.2644,2.5851-.2644,4s.1028,2.7396,.2644,4h-6.2379c-.3316-1.2811-.5266-2.6167-.5266-4s.1949-2.7189,.5266-4Zm1.6384,12h5.3923c.7939,2.8966,1.9254,5.2387,3.0386,7.0405-3.5699-1.2871-6.5502-3.801-8.431-7.0405Zm19.2391,7.0405c1.1133-1.8018,2.2447-4.1439,3.0386-7.0405h5.3923c-1.8808,3.2396-4.861,5.7535-8.431,7.0405Z"/></g></g></svg>