<svg width="24" height="24" viewBox="0 0 24 24">
  <path d="M2 12C2 6.4771 6.4771 2 12 2c5.5228 0 10 4.4771 10 10 0 5.5228-4.4772 10-10 10-5.5229 0-10-4.4772-10-10Zm3.0703-4h2.705c.3584-1.306.8577-2.3913 1.361-3.2539.0561-.0964.1124-.19.1685-.2807-1.7947.642-3.293 1.907-4.2345 3.5346Zm-.8183 2A8.0147 8.0147 0 0 0 4 12c0 .6906.0875 1.3608.252 2h3.124a15.687 15.687 0 0 1-.126-2c0-.7045.0453-1.3712.126-2H4.252Zm5.1431 0c-.0922.62-.1451 1.2866-.1451 2s.053 1.38.1451 2h5.2098c.0921-.62.1451-1.2866.1451-2s-.053-1.38-.1451-2H9.3951Zm7.2289 0c.0807.6288.126 1.2955.126 2 0 .7045-.0453 1.3712-.126 2h3.124A8.0156 8.0156 0 0 0 20 12a8.0156 8.0156 0 0 0-.252-2h-3.124Zm2.3057-2c-.9414-1.6275-2.4398-2.8926-4.2345-3.5347.0561.0908.1123.1844.1686.2808.5032.8626 1.0025 1.9478 1.3609 3.2539h2.705Zm0 8h-2.705c-.3584 1.3061-.8577 2.3913-1.3609 3.2539a13.1772 13.1772 0 0 1-.1686.2807c1.7947-.642 3.2931-1.9071 4.2345-3.5346Zm-4.792 0H9.8623c.2882.8887.6462 1.6371 1.0015 2.2461.4011.6877.7997 1.1989 1.0919 1.5329l.0443.0502.0443-.0502c.2922-.334.6908-.8452 1.0919-1.5329.3553-.609.7133-1.3574 1.0015-2.2461Zm-6.3624 0h-2.705c.9414 1.6275 2.4398 2.8926 4.2345 3.5346a12.8524 12.8524 0 0 1-.1686-.2807C8.633 18.3913 8.1337 17.3061 7.7753 16Zm6.3624-8c-.2882-.8887-.6462-1.637-1.0015-2.2461-.4011-.6877-.7997-1.199-1.0919-1.5329L12 4.1708l-.0443.0502c-.2922.334-.6908.8452-1.0919 1.5329-.3553.609-.7133 1.3574-1.0015 2.2461h4.2754Z"/>
</svg>
