<svg width="24" height="24" viewBox="0 0 24 24">
  <path d="M10.3408 3.0392c.8068.1883 1.3082.9949 1.12 1.8016L10.957 7h3.9194l.6628-2.8408c.1883-.8068.9949-1.3082 1.8016-1.12.8068.1883 1.3082.9949 1.12 1.8016L17.957 7H20.5c.8284 0 1.5.6716 1.5 1.5s-.6716 1.5-1.5 1.5h-3.243l-.9334 4H19.5c.8284 0 1.5.6716 1.5 1.5s-.6716 1.5-1.5 1.5h-3.8764l-.6628 2.8408c-.1883.8068-.9949 1.3082-1.8016 1.12-.8068-.1883-1.3082-.9949-1.12-1.8016L12.543 17H8.6236l-.6628 2.8408c-.1883.8068-.9949 1.3082-1.8016 1.12-.8068-.1883-1.3082-.9949-1.12-1.8016L5.543 17H3.5c-.8284 0-1.5-.6716-1.5-1.5S2.6716 14 3.5 14h2.743l.9334-4H4.5C3.6716 10 3 9.3284 3 8.5S3.6716 7 4.5 7h3.3764l.6628-2.8408c.1883-.8068.9949-1.3082 1.8016-1.12ZM10.257 10l-.9334 4h3.9194l.9334-4H10.257Z"/>
</svg>
