<svg width="24" height="24" viewBox="0 0 24 24">
  <path d="M12.0016 6.8721h-.001c-2.832 0-5.1275 2.2955-5.1275 5.1275 0 2.832 2.2955 5.1275 5.1275 5.1275 2.832 0 5.1275-2.2955 5.1275-5.1275v-.0085c0-2.827-2.292-5.119-5.119-5.119h-.0075Zm0 8.461c-1.841 0-3.334-1.4924-3.334-3.3335 0-1.841 1.4925-3.3335 3.3335-3.3335 1.8411 0 3.3335 1.4925 3.3335 3.3335-.003 1.8394-1.4936 3.3299-3.333 3.3335Zm6.5325-8.671c-.0005.6603-.5362 1.195-1.1965 1.1945-.6602-.0005-1.195-.5362-1.1945-1.1965.0006-.6596.5354-1.1942 1.195-1.1945h.0025c.6589 0 1.193.5341 1.193 1.193v.003l.0005.0005Zm3.3955 1.214a5.9004 5.9004 0 0 0-1.6175-4.1935l.0025.003a5.9334 5.9334 0 0 0-4.0795-1.6165l-.1165.001h.006c-1.651-.0935-6.599-.0935-8.25 0-.0355-.001-.077-.001-.1185-.001-1.577 0-3.01.6135-4.0745 1.615l.003-.003a5.915 5.915 0 0 0-1.6145 4.197v-.006c-.0935 1.6515-.0935 6.6005 0 8.2515a5.9004 5.9004 0 0 0 1.6175 4.1935l-.0025-.003a5.9382 5.9382 0 0 0 4.0825 1.6165l.113-.001h-.0055c1.651.0935 6.599.0935 8.25 0a5.8947 5.8947 0 0 0 4.1925-1.618l-.0025.0025a5.9347 5.9347 0 0 0 1.616-4.08l-.001-.1165v.006c.0935-1.651.0935-6.596 0-8.247l-.0005-.0005Zm-2.133 10.019a3.3935 3.3935 0 0 1-1.878 1.893l-.0225.008c-1.3165.522-4.44.4015-5.894.4015-1.454 0-4.582.116-5.894-.4015a3.3936 3.3936 0 0 1-1.8925-1.8785l-.008-.0225c-.522-1.3165-.4015-4.44-.4015-5.8955 0-1.4555-.116-4.5835.4015-5.8955a3.3939 3.3939 0 0 1 1.878-1.893l.0225-.008c1.316-.522 4.44-.4015 5.894-.4015 1.454 0 4.5825-.116 5.894.4015a3.3938 3.3938 0 0 1 1.8925 1.8785l.008.0225c.522 1.3165.4015 4.44.4015 5.8955 0 1.4555.1205 4.5835-.4015 5.8955Z"/>
</svg>
