<svg width="24" height="24" viewBox="0 0 24 24">
  <path d="M4.2929 19.2929c-.3905.3905-.3905 1.0237 0 1.4142.3905.3905 1.0237.3905 1.4142 0l8-8c.3905-.3905.3905-1.0237 0-1.4142l-8-8c-.3905-.3905-1.0237-.3905-1.4142 0-.3905.3905-.3905 1.0237 0 1.4142L11.5858 12l-7.293 7.2929Z"/>
  <path d="M10.2929 19.2929c-.3905.3905-.3905 1.0237 0 1.4142.3905.3905 1.0237.3905 1.4142 0l8-8c.3905-.3905.3905-1.0237 0-1.4142l-8-8c-.3905-.3905-1.0237-.3905-1.4142 0-.3905.3905-.3905 1.0237 0 1.4142L17.5858 12l-7.2929 7.2929Z"/>
</svg>
