<svg width="24" height="24" viewBox="0 0 24 24">
  <path d="M22.5399 6.6861a2.775 2.775 0 0 0-1.9254-1.9528l-.0193-.0046c-1.7155-.463-8.595-.463-8.595-.463s-6.8794 0-8.5949.463a2.7756 2.7756 0 0 0-1.9405 1.9382l-.0047.0192C1.1674 8.2334 1 10.0131 1 11.8322l.0005.1934v-.0101L1 12.1988c0 1.8191.1673 3.5988.4876 5.3248l-.0274-.1787a2.7339 2.7339 0 0 0 1.9259 1.9222l.0188.0041c1.7155.4629 8.5949.4629 8.5949.4629s6.8794 0 8.5949-.4629a2.7342 2.7342 0 0 0 1.9406-1.9071l.0046-.0193c.2929-1.5473.4601-3.3269.4601-5.146l-.0004-.1934v.0101L23 11.8321c0-1.8191-.1672-3.5987-.4876-5.3252l.0275.1787v.0005Zm-12.79 8.6005V8.7445l5.7496 3.271-5.7496 3.2711Z"/>
</svg>
