<svg width="24" height="24" viewBox="0 0 24 24">
  <path d="m12.0001 3.5 1.785 5.95h6.715l-5.399 4.3866L17.1 20.5 12 16.3563 6.9 20.5l1.999-6.6634L3.5 9.45h6.7149l1.7852-5.95Zm8.5 5.95h.0024-.0024Zm-8.5-7.45a1.5 1.5 0 0 0-1.4367 1.069L9.099 7.95H3.5a1.5 1.5 0 0 0-.9458 2.6642l4.6196 3.7533-1.7105 5.7015a1.5 1.5 0 0 0 2.3827 1.5952L12 18.2889l4.1541 3.3753c.2743.2229.6097.3358.946.3358a1.5 1.5 0 0 0 1.4366-1.931l-1.7104-5.7015 4.594-3.7325c.3534-.2745.581-.7032.581-1.185 0-.8284-.6704-1.5-1.4988-1.5H14.901l-1.4643-4.881A1.5 1.5 0 0 0 12.0001 2Z"/>
</svg>
