<svg width="24" height="24" viewBox="0 0 24 24">
  <path d="M13.9999 4c0 1.1046-.8954 2-2 2-1.1045 0-2-.8954-2-2s.8955-2 2-2c1.1046 0 2 .8954 2 2Z"/>
  <path d="M4.4824 5.124c-.4838-.2664-1.092-.0902-1.3584.3935-.2664.4838-.0903 1.092.3935 1.3584 1.6967.9346 3.561 1.5607 5.4824 1.8785V21c0 .5523.4478 1 1 1 .5523 0 1-.4477 1-1v-6h2v6c0 .5523.4478 1 1 1 .5523 0 1-.4477 1-1V8.7544c1.9214-.3178 3.7858-.944 5.4825-1.8785.4838-.2664.6599-.8746.3935-1.3584-.2665-.4837-.8747-.6599-1.3584-.3934-4.5411 2.5012-10.494 2.5012-15.0351 0Z"/>
</svg>
