<svg width="24" height="24" viewBox="0 0 24 24">
  <path d="M21 10h-1.778a7.446 7.446 0 0 0-.6995-1.6939l1.2558-1.2558a.9997.9997 0 0 0 0-1.414l-1.4145-1.4146a.9997.9997 0 0 0-1.4141 0l-1.2558 1.2558A7.4469 7.4469 0 0 0 14 4.778V3c0-.5522-.4478-1-1-1h-2c-.5522 0-1 .4478-1 1v1.778a7.446 7.446 0 0 0-1.6939.6995L7.0503 4.2217a.9997.9997 0 0 0-1.414 0L4.2217 5.6363a.9997.9997 0 0 0 0 1.414l1.2558 1.2558A7.4469 7.4469 0 0 0 4.778 10H3c-.5522 0-1 .4478-1 1v2c0 .5522.4478 1 1 1h1.778a7.4469 7.4469 0 0 0 .6995 1.6939l-1.2558 1.2558a.9997.9997 0 0 0 0 1.4141l1.4146 1.4145a.9968.9968 0 0 0 .707.293.9969.9969 0 0 0 .707-.293l1.2559-1.2558A7.4474 7.4474 0 0 0 10 19.222V21c0 .5522.4478 1 1 1h2c.5523 0 1-.4478 1-1v-1.778a7.445 7.445 0 0 0 1.6939-.6995l1.2559 1.2558a.9967.9967 0 0 0 .707.293.9967.9967 0 0 0 .707-.293l1.4146-1.4145a.9997.9997 0 0 0 0-1.4141l-1.2558-1.2558A7.4469 7.4469 0 0 0 19.2221 14h1.778c.5522 0 1-.4478 1-1v-2c0-.5522-.4479-1-1.0001-1Zm-9 5.5c-1.933 0-3.5-1.567-3.5-3.5s1.567-3.5 3.5-3.5 3.5 1.567 3.5 3.5-1.567 3.5-3.5 3.5Z"/>
</svg>
