<svg width="24" height="24" viewBox="0 0 24 24">
  <path d="M19.7071 4.7071c.3905-.3905.3905-1.0237 0-1.4142-.3905-.3905-1.0237-.3905-1.4142 0l-8 8c-.3905.3905-.3905 1.0237 0 1.4142l8 8c.3905.3905 1.0237.3905 1.4142 0 .3905-.3905.3905-1.0237 0-1.4142L12.4142 12l7.2929-7.2929Z"/>
  <path d="M13.7071 4.7071c.3905-.3905.3905-1.0237 0-1.4142-.3905-.3905-1.0237-.3905-1.4142 0l-8 8c-.3905.3905-.3905 1.0237 0 1.4142l8 8c.3905.3905 1.0237.3905 1.4142 0 .3905-.3905.3905-1.0237 0-1.4142L6.4142 12l7.2929-7.2929Z"/>
</svg>
