<svg width="24" height="24" viewBox="0 0 24 24">
  <path d="M16 0H8.4628a4.4628 4.4628 0 0 0-2.3905 8.2314 4.4628 4.4628 0 0 0 0 7.5372 4.4628 4.4628 0 1 0 6.8533 3.7686v-4.3023a4.463 4.463 0 0 0 6.2301-.0792 4.4631 4.4631 0 0 0-.7652-6.9243 4.4634 4.4634 0 0 0 2.0723-3.7686A4.463 4.463 0 0 0 16 0Zm-3.0744 12A3.0741 3.0741 0 0 1 16 8.9256 3.0742 3.0742 0 0 1 19.0744 12a3.074 3.074 0 0 1-.9005 2.1739 3.074 3.074 0 0 1-4.3478 0A3.074 3.074 0 0 1 12.9256 12Zm-1.3884 4.4628v3.0744a3.0742 3.0742 0 0 1-5.2483 2.1739 3.0744 3.0744 0 0 1 2.174-5.2483h3.0743ZM8.4628 7.5372a3.0744 3.0744 0 0 1 0-6.1488h3.0744v6.1488H8.4628Zm0 1.3884h3.0744v6.1488H8.4628a3.0742 3.0742 0 0 1-2.174-5.2483 3.0744 3.0744 0 0 1 2.174-.9005ZM16 7.5372h-3.0744V1.3884H16a3.0742 3.0742 0 0 1 2.1739 5.2483A3.0742 3.0742 0 0 1 16 7.5372Z"/>
</svg>
