<svg width="24" height="24" viewBox="0 0 24 24">
  <path d="M17.7064 12.7077a1.012 1.012 0 0 0 .1252-.153c.0169-.0252.0285-.0526.0428-.0789.0168-.0309.0355-.0605.0491-.0932.0138-.0334.0218-.0683.0319-.1028.0082-.0281.0191-.0549.0248-.0839a1.0051 1.0051 0 0 0 0-.3918c-.0058-.0292-.0167-.0561-.025-.0843-.01-.0344-.0179-.0691-.0317-.1024-.0136-.0329-.0324-.0627-.0493-.0937-.0142-.0262-.0258-.0534-.0426-.0785a.9993.9993 0 0 0-.1252-.1529L9.7071 3.293c-.3905-.3906-1.0237-.3906-1.4141 0-.3906.3901-.3906 1.0239 0 1.414L14.5857 11H3c-.5522 0-1 .4477-1 1 0 .5522.4478 1 1 1h11.5857L8.293 19.2929A.9963.9963 0 0 0 8 20c0 .2558.0976.5119.293.707.3904.3906 1.0236.3906 1.414 0l7.9994-7.9993Z"/>
  <path d="M22 2h-4c-.5522 0-1 .4478-1 1s.4478 1 1 1h2v16h-2c-.5522 0-1 .4478-1 1s.4478 1 1 1h4V2Z"/>
</svg>
