<svg width="24" height="24" viewBox="0 0 24 24">
  <path d="M19.2929 19.7071c.3905.3905 1.0237.3905 1.4142 0 .3905-.3905.3905-1.0237 0-1.4142l-8-8c-.3905-.3905-1.0237-.3905-1.4142 0l-8 8c-.3905.3905-.3905 1.0237 0 1.4142.3905.3905 1.0237.3905 1.4142 0L12 12.4142l7.2929 7.2929Z"/>
  <path d="M19.2929 13.7071c.3905.3905 1.0237.3905 1.4142 0 .3905-.3905.3905-1.0237 0-1.4142l-8-8c-.3905-.3905-1.0237-.3905-1.4142 0l-8 8c-.3905.3905-.3905 1.0237 0 1.4142.3905.3905 1.0237.3905 1.4142 0L12 6.4142l7.2929 7.2929Z"/>
</svg>
