<svg width="24" height="24" viewBox="0 0 24 24">
  <path d="M1.5 2.5c0-.5523.4477-1 1-1h6c.5523 0 1 .4477 1 1s-.4477 1-1 1h-5v5c0 .5523-.4477 1-1 1s-1-.4477-1-1v-6Z"/>
  <path d="M1.7929 1.7929c.3905-.3905 1.0237-.3905 1.4142 0l6.5 6.5c.3905.3905.3905 1.0237 0 1.4142-.3905.3905-1.0237.3905-1.4142 0l-6.5-6.5c-.3905-.3905-.3905-1.0237 0-1.4142ZM14.5 2.5c0-.5523.4477-1 1-1h6c.5523 0 1 .4477 1 1v6c0 .5523-.4477 1-1 1s-1-.4477-1-1v-5h-5c-.5523 0-1-.4477-1-1Z"/>
  <path d="M22.2071 1.7929c.3905.3905.3905 1.0237 0 1.4142l-6.5 6.5c-.3905.3905-1.0237.3905-1.4142 0-.3905-.3905-.3905-1.0237 0-1.4142l6.5-6.5c.3905-.3905 1.0237-.3905 1.4142 0ZM21.5 14.5c.5523 0 1 .4477 1 1v6c0 .5523-.4477 1-1 1h-6c-.5523 0-1-.4477-1-1s.4477-1 1-1h5v-5c0-.5523.4477-1 1-1Z"/>
  <path d="M14.2929 14.2929c.3905-.3905 1.0237-.3905 1.4142 0l6.5 6.5c.3905.3905.3905 1.0237 0 1.4142-.3905.3905-1.0237.3905-1.4142 0l-6.5-6.5c-.3905-.3905-.3905-1.0237 0-1.4142ZM2.5 14.5c.5523 0 1 .4477 1 1v5h5c.5523 0 1 .4477 1 1s-.4477 1-1 1h-6c-.5523 0-1-.4477-1-1v-6c0-.5523.4477-1 1-1Z"/>
  <path d="M9.7071 14.2929c.3905.3905.3905 1.0237 0 1.4142l-6.5 6.5c-.3905.3905-1.0237.3905-1.4142 0-.3905-.3905-.3905-1.0237 0-1.4142l6.5-6.5c.3905-.3905 1.0237-.3905 1.4142 0Z"/>
</svg>
