<svg width="24" height="24" viewBox="0 0 24 24">
  <path d="M20.7496 10.2017a8.2074 8.2074 0 0 1-4.7969-1.5336v6.983c-.0013 3.5077-2.8459 6.3501-6.3536 6.3489-3.5077-.0013-6.3501-2.8458-6.3489-6.3535.0013-3.5077 2.8459-6.3502 6.3536-6.349.291.0002.5815.0203.8697.0602v3.5122c-1.536-.4832-3.1729.3704-3.656 1.9064-.4832 1.5361.3703 3.1729 1.9064 3.6561 1.536.4831 3.1729-.3704 3.656-1.9065a2.914 2.914 0 0 0 .1344-.8749V2h3.4383c-.0024.2904.022.5804.0727.8662a4.7737 4.7737 0 0 0 2.1064 3.1345 4.7443 4.7443 0 0 0 2.6178.7869l.0001 3.4141Z"/>
</svg>
