<svg width="24" height="24" viewBox="0 0 24 24">
  <path d="M11.5266 14.6888a23.5757 23.5757 0 0 0 1.5865 1.1326l-.8265 1.8598c-.614-.3907-1.2539-.8303-1.8972-1.3261-.0899-.0694-.1764-.1401-.2628-.2107-.0421-.0343-.0841-.0686-.1266-.1028a18.39 18.39 0 0 0-.125.1017c-.087.071-.1739.142-.2644.2118-3.0834 2.3769-6.1313 3.5337-6.2594 3.582a1.005 1.005 0 0 1-.3509.064 1.0004 1.0004 0 0 1-.936-.649c-.1941-.5166.0674-1.0928.584-1.2876.0574-.0217 2.9665-1.1457 5.8251-3.3756-2.652-2.597-4.1616-5.553-4.4262-8.6883H2c-.5522 0-1-.4478-1-1 0-.5523.4478-1 1-1h6.3819l-.2764-.5528c-.2468-.4941-.0466-1.0947.4473-1.3418.4936-.2473 1.0947-.0471 1.3418.4473l.7236 1.4472H18c.5523 0 1 .4478 1 1 0 .5523-.4477 1-1 1h-2.0472c-.2646 3.1353-1.7742 6.0914-4.4262 8.6883ZM6.0563 6.0005c.3076 3.029 1.9754 5.4859 3.9437 7.3717 1.9683-1.8858 3.6361-4.3428 3.9437-7.3717h-3.9409l-.0021.0002-.0017-.0002H6.0562Zm11.8575 5.5938 4 9c.2244.5048-.0029 1.0957-.5076 1.3198a.9905.9905 0 0 1-.4057.0869 1.0006 1.0006 0 0 1-.9143-.5942l-.8473-1.9063H14.761l-.8472 1.9063c-.2241.5043-.8145.7338-1.3201.5073-.5046-.2241-.7319-.8149-.5075-1.3198l4-9a.9999.9999 0 0 1 1.8276 0Zm-.9139 2.8686-1.35 3.0376H18.35l-1.3501-3.0376Z"/>
</svg>
