<svg xmlns="http://www.w3.org/2000/svg" width="48" height="48" viewBox="0 0 48 48"><path d="M8.394,12.042.05,36H4.976l1.575-5.094h8.645L16.804,36h5.06L13.42,12.042ZM7.69,27.176l2.144-6.904c.402-1.273,1.006-3.686,1.006-3.686h.066s.57,2.413.972,3.686l2.145,6.904Z"/><path d="M46,12H34.8281L29.4156,6.5875a2,2,0,1,0-2.8284,2.8278L29.1719,12H22a2,2,0,0,0,0,4H39.9324c-.45,6.6187-3.1537,11.6689-7.3329,14.1986A9.1308,9.1308,0,0,1,28,22a2,2,0,0,0-4,0,13.095,13.095,0,0,0,4.176,9.8083A13.577,13.577,0,0,1,26,32a2,2,0,0,0,0,4,17.1983,17.1983,0,0,0,6.74-1.3391A19.4044,19.4044,0,0,0,40,36a2,2,0,0,0,0-4,18.089,18.089,0,0,1-2.7614-.2086c3.8736-3.495,6.2959-8.9829,6.6919-15.7914H46a2,2,0,0,0,0-4Z"/></svg>