<svg width="24" height="24" viewBox="0 0 24 24">
  <path d="M6.4765 22H2.33V8.647h4.1465V22ZM4.401 6.8255H4.39c-1.3324 0-2.4125-1.0801-2.4125-2.4125s1.0802-2.4125 2.4126-2.4125c1.3277 0 2.4058 1.0728 2.4124 2.4005v.0035c0 1.3292-1.0713 2.41-2.4005 2.4215h-.001v-.0005ZM21.996 22h-4.1375v-6.5c0-1.549-.0315-3.536-2.156-3.536-2.156 0-2.4865 1.683-2.4865 3.424v6.6115H9.074V8.6465h3.977v1.8215h.058c.77-1.3005 2.1655-2.1595 3.762-2.1595.0565 0 .113.001.1695.003h-.008C21.229 8.3115 22 11.075 22 14.6645v7.335L21.996 22Z"/>
</svg>
