<svg width="24" height="24" viewBox="0 0 24 24">
  <path d="M8 5c0-.8284.6716-1.5 1.5-1.5h11c.8284 0 1.5.6716 1.5 1.5s-.6716 1.5-1.5 1.5h-11C8.6716 6.5 8 5.8284 8 5ZM4 7c1.1046 0 2-.8954 2-2s-.8954-2-2-2-2 .8954-2 2 .8954 2 2 2Zm4 5c0-.8284.6716-1.5 1.5-1.5h11c.8284 0 1.5.6716 1.5 1.5s-.6716 1.5-1.5 1.5h-11c-.8284 0-1.5-.6716-1.5-1.5Zm-4 2c1.1046 0 2-.8954 2-2s-.8954-2-2-2-2 .8954-2 2 .8954 2 2 2Zm4 5c0-.8284.6716-1.5 1.5-1.5h11c.8284 0 1.5.6716 1.5 1.5s-.6716 1.5-1.5 1.5h-11c-.8284 0-1.5-.6716-1.5-1.5Zm-4 2c1.1046 0 2-.8954 2-2s-.8954-2-2-2-2 .8954-2 2 .8954 2 2 2Z"/>
</svg>
