<svg width="24" height="24" viewBox="0 0 24 24">
  <path d="M13.5 4.5005c-.0001 1.3808-1.1196 2.5001-2.5005 2.5-1.3808-.0002-2.5001-1.1197-2.5-2.5005C8.4997 3.119 9.6192 1.9998 11 2c1.3808.0001 2.5001 1.1196 2.5 2.5005Zm2.4499 1.0139c.9765-.9761 2.5594-.9759 3.5356.0006v-.001c.452.4525.732 1.0775.732 1.768 0 .6905-.2801 1.316-.7326 1.7685-.9764.9762-2.5594.9759-3.5355-.0005-.9762-.9765-.9759-2.5594.0005-3.5356ZM20.5 16.5012c1.3807 0 2.5-1.1193 2.5-2.5s-1.1193-2.5-2.5-2.5-2.5 1.1193-2.5 2.5 1.1193 2.5 2.5 2.5ZM6.2825 7.283c0 1.1045-.8954 2-2 2s-2-.8955-2-2c0-1.1046.8954-2 2-2s2 .8954 2 2ZM1.5 15.5005c.8284 0 1.5-.6716 1.5-1.5 0-.8285-.6716-1.5-1.5-1.5s-1.5.6715-1.5 1.5c0 .8284.6716 1.5 1.5 1.5Zm2.8053 6.2398c.5522-.0125.9897-.4702.9772-1.0223a1 1 0 1 0-.9771 1.0223Z"/>
</svg>
