<svg width="24" height="24" viewBox="0 0 24 24">
    <path d="M14.5 2.5005c-.0001 1.3808-1.1196 2.5002-2.5005 2.5-1.3808-.0001-2.5001-1.1196-2.5-2.5005C9.4997 1.1192 10.6192-.0001 12 0c1.3808.0002 2.5001 1.1197 2.5 2.5005Zm2.4499 1.014c.9765-.9762 2.5594-.976 3.5356.0005v-.001c.452.4525.732 1.0775.732 1.768 0 .6905-.2801 1.316-.7326 1.7686-.9764.9761-2.5594.9759-3.5355-.0006-.9762-.9764-.9759-2.5594.0005-3.5355ZM21.5 14.5012c1.3807 0 2.5-1.1193 2.5-2.5s-1.1193-2.5-2.5-2.5-2.5 1.1193-2.5 2.5 1.1193 2.5 2.5 2.5ZM7.2825 5.283c0 1.1046-.8954 2-2 2s-2-.8954-2-2 .8954-2 2-2 2 .8954 2 2ZM2.5 13.5005c.8284 0 1.5-.6716 1.5-1.5s-.6716-1.5-1.5-1.5-1.5.6716-1.5 1.5.6716 1.5 1.5 1.5Zm2.8053 6.2399a1.0001 1.0001 0 1 0-.0454-1.9995 1.0001 1.0001 0 0 0 .0454 1.9995Z"/>
</svg>
