<svg width="24" height="24" viewBox="0 0 24 24">
  <path d="M12 15c1.6569 0 3-1.3431 3-3 0-1.6568-1.3431-3-3-3s-3 1.3432-3 3c0 1.6569 1.3431 3 3 3Z"/>
  <path d="M13 2.5c0-.5523-.4477-1-1-1s-1 .4477-1 1v1.562C7.3813 4.5131 4.5131 7.3812 4.0619 11h-1.562c-.5522 0-.9999.4478-.9999 1 0 .5523.4477 1 1 1h1.562c.4513 3.6187 3.3194 6.4869 6.9381 6.9381V21.5c0 .5523.4477 1 1 1s1-.4477 1-1v-1.5619c3.6187-.4512 6.4869-3.3194 6.9381-6.9381H21.5c.5523 0 1-.4477 1-1s-.4477-1-1-1h-1.5619C19.4868 7.3813 16.6187 4.5132 13 4.062V2.5ZM12 6c3.3084 0 6 2.6916 6 6s-2.6916 6-6 6-6-2.6916-6-6 2.6916-6 6-6Z"/>
</svg>
