<?xml version="1.0" encoding="UTF-8"?><svg id="a" xmlns="http://www.w3.org/2000/svg" width="48" height="48" viewBox="0 0 48 48"><path d="M8,11H40c1.1046,0,2-.8954,2-2s-.8954-2-2-2H8c-1.1046,0-2,.8954-2,2s.8954,2,2,2Z"/><path d="M40,17H8c-1.1046,0-2,.8954-2,2s.8954,2,2,2H40c1.1046,0,2-.8954,2-2s-.8954-2-2-2Z"/><path d="M40,27H8c-1.1046,0-2,.8954-2,2s.8954,2,2,2H40c1.1046,0,2-.8954,2-2s-.8954-2-2-2Z"/><polygon points="10.5649 42.0869 8.978 37.1406 6.7271 37.1406 6.7271 44.25 8.4409 44.25 8.4409 42.5898 8.2749 39.1865 9.9985 44.25 11.1313 44.25 12.8501 39.1914 12.6841 42.5898 12.6841 44.25 14.4028 44.25 14.4028 37.1406 12.147 37.1406 10.5649 42.0869"/><polygon points="17.9917 44.25 22.8892 44.25 22.8892 42.9316 19.7056 42.9316 19.7056 41.2324 22.4009 41.2324 22.4009 39.9629 19.7056 39.9629 19.7056 38.4639 22.8989 38.4639 22.8989 37.1406 17.9917 37.1406 17.9917 44.25"/><polygon points="30.4136 41.5645 27.8989 37.1406 26.1851 37.1406 26.1851 44.25 27.8989 44.25 27.8989 39.8262 30.4185 44.25 32.1226 44.25 32.1226 37.1406 30.4136 37.1406 30.4136 41.5645"/><path d="M39.563,41.7842c0,.4395-.0908,.7568-.2734,.9521s-.4512,.293-.8057,.293c-.7031,0-1.0645-.3887-1.084-1.167v-4.7217h-1.7236v4.6875c.0098,.7812,.2637,1.3965,.7617,1.8457s1.1797,.6738,2.0459,.6738c.5732,0,1.0693-.1006,1.4893-.3027s.7422-.4961,.9668-.8809c.2246-.3867,.3369-.8428,.3369-1.3701v-4.6533h-1.7139v4.6436Z"/></svg>