<?xml version="1.0" encoding="UTF-8"?><svg id="c" xmlns="http://www.w3.org/2000/svg" width="48" height="48" viewBox="0 0 48 48"><path d="M8,11H40c1.1046,0,2-.8954,2-2s-.8954-2-2-2H8c-1.1046,0-2,.8954-2,2s.8954,2,2,2Z"/><path d="M40,17H8c-1.1046,0-2,.8954-2,2s.8954,2,2,2H40c1.1046,0,2-.8954,2-2s-.8954-2-2-2Z"/><path d="M40,27H8c-1.1046,0-2,.8954-2,2s.8954,2,2,2H40c1.1046,0,2-.8954,2-2s-.8954-2-2-2Z"/><path d="M10.7705,39.2295h-.0391l-1.4893-5.0684h-2.5684v7.1387h1.709v-3.1006c0-.4854-.0342-1.165-.1025-2.041h.0439l1.46,5.1416h1.8359l1.4404-5.1318h.0439c-.0391,.7744-.0615,1.2617-.0654,1.46-.0059,.1982-.0078,.3789-.0078,.542v3.1299h1.7725v-7.1387h-2.5732l-1.46,5.0684Z"/><polygon points="18.0518 41.2998 22.29 41.2998 22.29 39.7275 19.9805 39.7275 19.9805 38.3799 22.1191 38.3799 22.1191 36.832 19.9805 36.832 19.9805 35.709 22.29 35.709 22.29 34.1611 18.0518 34.1611 18.0518 41.2998"/><path d="M30.3281,37.3887c0,.4365,.0225,1.0137,.0684,1.7334h-.0293l-2.5977-4.9609h-2.5195v7.1387h1.709v-3.2178c0-.417-.0312-1.0205-.0928-1.8115h.0439l2.6074,5.0293h2.5293v-7.1387h-1.7188v3.2275Z"/><path d="M39.4404,38.3408c0,.5146-.0889,.8848-.2656,1.1113-.1777,.2256-.4639,.3389-.8574,.3389-.3682,0-.6465-.1143-.835-.3418s-.2832-.5938-.2832-1.0986v-4.1895h-1.9385v4.3408c0,.9346,.2617,1.6504,.7832,2.1484,.5234,.498,1.2705,.7471,2.2441,.7471,.9961,0,1.7588-.2559,2.2871-.7695,.5293-.5117,.7939-1.2354,.7939-2.1699v-4.2969h-1.9287v4.1797Z"/></svg>