<svg width="24" height="24" viewBox="0 0 24 24">
  <path d="M12.5467 8.497a1.5194 1.5194 0 0 0-.2763.012l.0078-.0008-2.2226-.0004v3.1361h2.223c.8402.0923 1.5971-.5058 1.6905-1.336a1.5 1.5 0 0 0 .0064-.2578c.0391-.8185-.6002-1.5137-1.4288-1.553Z"/>
  <path d="M20 2H4c-1.1046 0-2 .8954-2 2v16c0 1.1046.8954 2 2 2h16c1.1046 0 2-.8954 2-2V4c0-1.1046-.8954-2-2-2Zm-6.6842 11.9994a3.8772 3.8772 0 0 1-.4392-.008l.0126.0008h-2.834V18H7V6.0094h5.4657c1.2085-.0769 2.3985.3216 3.311 1.108.8116.77 1.2549 1.8434 1.2205 2.9546.0799 2.0884-1.5674 3.8464-3.6814 3.9274Z"/>
</svg>
