<svg width="24" height="24" viewBox="0 0 24 24">
  <path d="M12 4c4.4112 0 8 3.5888 8 8s-3.5888 8-8 8-8-3.5888-8-8 3.5888-8 8-8Zm0-2C6.4771 2 2 6.4772 2 12c0 5.5229 4.4771 10 10 10s10-4.4771 10-10c0-5.5228-4.4771-10-10-10Z"/>
  <path d="M10.5 6.5h-2A.5.5 0 0 0 8 7v10a.5.5 0 0 0 .5.5h2a.5.5 0 0 0 .5-.5V7a.5.5 0 0 0-.5-.5Zm5 0h-2a.5.5 0 0 0-.5.5v10a.5.5 0 0 0 .5.5h2a.5.5 0 0 0 .5-.5V7a.5.5 0 0 0-.5-.5Z"/>
  <path d="M10.5 6.5h-2A.5.5 0 0 0 8 7v10a.5.5 0 0 0 .5.5h2a.5.5 0 0 0 .5-.5V7a.5.5 0 0 0-.5-.5Zm3 0a.5.5 0 0 0-.5.5v10a.5.5 0 0 0 .5.5h2a.5.5 0 0 0 .5-.5V7a.5.5 0 0 0-.5-.5h-2Z"/>
  <path d="M12 2C6.4771 2 2 6.4772 2 12c0 5.5229 4.4771 10 10 10s10-4.4771 10-10c0-5.5228-4.4771-10-10-10Zm0 18c-4.4112 0-8-3.5888-8-8s3.5888-8 8-8 8 3.5888 8 8-3.5888 8-8 8Z"/>
</svg>
