<svg width="24" height="24" viewBox="0 0 24 24">
  <path d="M21.5547 14.1679 13.3378 8.69 13.5 3.5c0-.8285-.6716-1.5-1.5-1.5-.8285 0-1.5.6715-1.5 1.5l.1622 5.19-8.217 5.4779a1.0006 1.0006 0 0 0-.3652 1.2247 1.0003 1.0003 0 0 0 1.1368.5834l7.6201-1.6934.1508 4.8261-2.7783 1.9845a.4992.4992 0 0 0-.1596.624.5.5 0 0 0 .5874.2637L12 21.0201l3.3628.9608a.5.5 0 0 0 .4277-.8877l-2.7783-1.9845.1508-4.8261 7.6202 1.6934c.0722.0161.1455.024.2173.024.393 0 .7593-.2329.9194-.6074a1.0005 1.0005 0 0 0-.3652-1.2247Z"/>
</svg>
