<svg width="24" height="24" viewBox="0 0 24 24">
  <path d="M21.5549 14.1679 13.338 8.69l.1622-5.19c0-.8285-.6715-1.5-1.5-1.5-.8284 0-1.5.6715-1.5 1.5l.1622 5.19-8.2169 5.4779a1.0006 1.0006 0 0 0-.3652 1.2247 1.0003 1.0003 0 0 0 1.1367.5834l7.6202-1.6934.1508 4.8261-2.7783 1.9845a.4992.4992 0 0 0-.1597.624.5.5 0 0 0 .5874.2637l3.3628-.9608 3.3628.9608a.4999.4999 0 0 0 .5874-.2637.4992.4992 0 0 0-.1596-.624l-2.7783-1.9845.1508-4.8261 7.6201 1.6934a1.002 1.002 0 0 0 .2173.024c.3931 0 .7593-.2329.9195-.6074a1.0007 1.0007 0 0 0-.3653-1.2247Z"/>
</svg>
