<svg width="24" height="24" viewBox="0 0 24 24">
  <path d="M21.5547 14.168 13.3378 8.69 13.5 3.5c0-.8284-.6716-1.5-1.5-1.5-.8285 0-1.5.6716-1.5 1.5l.1622 5.19-8.2169 5.478a1.0004 1.0004 0 0 0-.3653 1.2246 1.0003 1.0003 0 0 0 1.1368.5834l7.6201-1.6933.1508 4.826-2.7782 1.9845a.4992.4992 0 0 0-.1597.624.4998.4998 0 0 0 .5874.2637L12 21.0201l3.3628.9608a.4998.4998 0 0 0 .5874-.2637.4993.4993 0 0 0-.1597-.624l-2.7783-1.9845.1508-4.826 7.6202 1.6933c.0722.0161.1455.024.2173.024.393 0 .7593-.2329.9195-.6074a1.0005 1.0005 0 0 0-.3653-1.2246Z"/>
</svg>
