<?xml version="1.0" encoding="UTF-8"?>
<svg id="ag" data-name="play" xmlns="http://www.w3.org/2000/svg" width="48" height="48" viewBox="0 0 48 48">
  <g id="ah" data-name="Export">
    <g>
      <path d="m33.2002,22.4004l-12-9c-.6074-.4551-1.4185-.5293-2.0947-.1895-.6772.3389-1.1055,1.0312-1.1055,1.7891v18c0,.7578.4282,1.4502,1.1055,1.7891.2832.1416.5894.2109.8945.2109.4248,0,.8472-.1357,1.2002-.4004l12-9c.5034-.377.7998-.9697.7998-1.5996s-.2964-1.2227-.7998-1.5996Z"/>
      <path d="m24,4C12.9543,4,4,12.9543,4,24s8.9543,20,20,20,20-8.9543,20-20S35.0457,4,24,4Zm0,36c-8.8224,0-16-7.1776-16-16S15.1776,8,24,8s16,7.1776,16,16-7.1776,16-16,16Z"/>
    </g>
  </g>
</svg>