<svg width="24" height="24" viewBox="0 0 24 24">
  <path d="M12 3c-4.9705 0-9 4.0295-9 9s4.0295 9 9 9 9-4.0295 9-9-4.0295-9-9-9Zm.9755 14.005H10.58v-2.3535h2.3955v2.3535Zm1.3025-5.0785-.013.0065-.001.0005a5.6322 5.6322 0 0 0-1.1767.8413 1.3747 1.3747 0 0 0-.2653.9572l-.0005-.0055h-2.017a2.3663 2.3663 0 0 1 .96-2.334l.007-.005c.616-.574 1.4145-.784 1.4145-1.6385-.0074-.5915-.4928-1.065-1.0842-1.0576a1.0788 1.0788 0 0 0-.1108.0071l.005-.0005c-.7376-.0449-1.3719.5168-1.4167 1.2544a1.3312 1.3312 0 0 0 .0022.1926l-.0005-.005H8.3255c.042-1.9745 1.4285-3.333 3.768-3.333 2.087 0 3.488 1.163 3.488 2.8575a2.4655 2.4655 0 0 1-1.3035 2.262Z"/>
</svg>
