<svg xmlns="http://www.w3.org/2000/svg" width="48" height="48" viewBox="0 0 48 48">
  <g>
    <path d="M11.0148,37.5292A3,3,0,0,0,13.63,42H22V34H13Z"/>
    <path d="M17.7316,29.4709,14.9133,18.529,4.193,21.4055l3.3588,2.0009L4.511,28.7758a4,4,0,0,0,.1608,4.175l3.6411,5.4617,6.1449-10.8939Z"/>
    <path d="M15.9865,8.6672l-3.4693,6.0915,6.8548,3.954,3.713-6.6052L21.2245,8.7107A3,3,0,0,0,15.9865,8.6672Z"/>
    <path d="M43.6039,27.5179l-3.5656-6.2752-6.7016,4.0508L37.17,32h3.826A3,3,0,0,0,43.6039,27.5179Z"/>
    <path d="M32,30l-8,8,8,8V42h4.4613a4,4,0,0,0,3.5922-2.24L42.875,34H32Z"/>
    <path d="M24.5532,18.5l11,3,2.5-11L34.76,12.4517,32.2292,8.0152A4,4,0,0,0,28.7563,6H22.0034l5.9779,10.4685Z"/>
  </g>
</svg>
