<svg width="24" height="24" viewBox="0 0 24 24">
  <path d="m17.7765 9.75-5.5-1.5 1.7141-1.0157L11.0017 2h3.3764c.7177 0 1.3803.3845 1.7364 1.0076l1.2653 2.2183 1.6467-.9759-1.25 5.5ZM7.9932 3.3336 6.2586 6.3794l3.4274 1.977 1.8565-3.3026-.9303-1.6984c-.5638-1.0294-2.0382-1.0417-2.619-.0218Zm-.5366 4.9309 1.4091 5.471-1.6369-.9762-3.0724 5.4469-1.8205-2.7308a2 2 0 0 1-.0804-2.0875l1.5204-2.6847-1.6794-1.0005 5.3601-1.4382ZM6.8147 20c-1.1472 0-1.8698-1.2355-1.3074-2.2354L6.5 16H11v4H6.8147ZM20.0191 9.6213l1.7828 3.1377c.5682 1-.1541 2.241-1.3042 2.241h-1.913l-1.9165-3.3533 3.3509-2.0254Z"/>
  <path d="m15.9999 14-4 4 4 4v-2h2.2307a2.0002 2.0002 0 0 0 1.7961-1.1201L21.4374 16h-5.4375v-2Z"/>
</svg>
