<?xml version="1.0" encoding="UTF-8"?><svg id="h" xmlns="http://www.w3.org/2000/svg" width="48" height="48" viewBox="0 0 48 48"><path d="M6.3784,38.3369c.3027,0,.543,.0801,.7207,.2393,.1768,.1592,.2656,.3838,.2656,.6738h1.709c0-.4326-.1123-.8184-.3369-1.1543-.2246-.3379-.54-.5967-.9443-.7793-.4062-.1826-.8643-.2734-1.375-.2734-.5244,0-.9961,.084-1.416,.252-.4199,.167-.7441,.4014-.9746,.7031-.2285,.3008-.3438,.6484-.3438,1.042,0,.791,.4609,1.4131,1.3818,1.8652,.2832,.1396,.6475,.2852,1.0938,.4346s.7578,.2949,.9346,.4346c.1777,.1396,.2666,.335,.2666,.5859,0,.2217-.082,.3936-.2471,.5146-.1641,.123-.3877,.1836-.6709,.1836-.4424,0-.7627-.0898-.96-.2715-.1963-.1797-.2949-.4609-.2949-.8418h-1.7188c0,.4688,.1182,.8828,.3535,1.2422,.2363,.3604,.5879,.6436,1.0547,.8496,.4678,.207,.9893,.3105,1.5654,.3105,.8174,0,1.46-.1777,1.9287-.5322s.7031-.8428,.7031-1.4648c0-.7783-.3838-1.3887-1.1523-1.8311-.3154-.1826-.7197-.3525-1.2109-.5098-.4912-.1582-.835-.3115-1.0303-.459-.1953-.1484-.293-.3135-.293-.4961,0-.208,.0889-.3799,.2666-.5156,.1768-.1348,.4189-.2021,.7246-.2021Z"/><polygon points="10.5376 44.25 15.4351 44.25 15.4351 42.9316 12.2515 42.9316 12.2515 41.2324 14.9468 41.2324 14.9468 39.9629 12.2515 39.9629 12.2515 38.4639 15.4448 38.4639 15.4448 37.1406 10.5376 37.1406 10.5376 44.25"/><path d="M18.9497,37.1406l-2.6074,7.1094h1.8311l.4102-1.3281h2.3486l.415,1.3281h1.8408l-2.627-7.1094h-1.6113Zm.0439,4.458l.7617-2.4658,.7666,2.4658h-1.5283Z"/><path d="M29.478,40.5156c.2012-.3252,.3008-.7344,.3008-1.2285,0-.6836-.2373-1.2119-.7129-1.5859s-1.1348-.5605-1.9775-.5605h-2.7979v7.1094h1.7139v-2.5146h.9277l1.2549,2.5146h1.8359v-.0732l-1.4844-2.8711c.4268-.2012,.7402-.4648,.9395-.79Zm-1.6543-.3555c-.165,.1709-.4102,.2568-.7354,.2568h-1.084v-1.958h1.084c.3223,0,.5664,.0869,.7324,.2617s.249,.415,.249,.7227c0,.3066-.082,.5449-.2461,.7168Z"/><path d="M33.0698,38.8594c.1982-.3193,.5107-.4785,.9375-.4785,.4199,0,.7324,.0947,.9375,.2832s.3145,.5,.3271,.9326h1.709c-.0713-.7979-.3691-1.4229-.8936-1.8779-.5244-.4531-1.2178-.6807-2.0801-.6807-.5986,0-1.126,.1426-1.582,.4268-.4561,.2852-.8047,.6895-1.0469,1.2109-.2432,.5234-.3643,1.1328-.3643,1.8291v.3516c0,1.1104,.2686,1.9697,.8057,2.5781s1.2725,.9131,2.207,.9131c.5664,0,1.0703-.1045,1.5117-.3125,.4404-.208,.7832-.502,1.0273-.8809,.2441-.3799,.3779-.8164,.4004-1.3115h-1.7041c-.0127,.4033-.124,.6982-.332,.8838s-.5098,.2783-.9033,.2783c-.4658,0-.793-.1631-.9844-.4883-.1895-.3252-.2852-.8672-.2852-1.626v-.5029c.0098-.7002,.1143-1.209,.3125-1.5283Z"/><polygon points="42.5923 37.1406 42.5923 39.9629 40.0679 39.9629 40.0679 37.1406 38.354 37.1406 38.354 44.25 40.0679 44.25 40.0679 41.2812 42.5923 41.2812 42.5923 44.25 44.2964 44.25 44.2964 37.1406 42.5923 37.1406"/><path d="M38.4419,31.6143l-5.5732-5.7961c1.6445-2.1774,2.6313-4.8793,2.6313-7.8182,0-7.1797-5.8203-13-13-13s-13,5.8203-13,13,5.8203,13,13,13c2.7966,0,5.3803-.8915,7.5007-2.3939l5.5574,5.7797c.3931,.4092,.917,.6143,1.4424,.6143,.4985,0,.998-.1855,1.3857-.5586,.7964-.7656,.8208-2.0312,.0557-2.8271Zm-7.0302-12.4224c-.0126,.0937-.0272,.1861-.0427,.2788-.0616,.3724-.1403,.7387-.2463,1.0943l-.008,.031c-.1182,.3917-.267,.7692-.4352,1.1364-.0178,.0386-.037,.0761-.0552,.1145-1.0958,2.3044-3.1364,4.0712-5.624,4.7924-.0338,.0099-.0686,.017-.1026,.0265-.3211,.089-.6494,.1588-.9837,.2119-.0886,.0143-.1766,.0291-.2661,.0407-.3768,.0483-.7581,.0816-1.1478,.0816-.6203,0-1.2262-.063-1.8115-.1832-1.756-.3602-3.3272-1.2336-4.5494-2.4559-.2037-.2037-.3977-.4171-.5813-.6395-.3671-.4446-.6924-.925-.9699-1.4351-.1387-.255-.2654-.5175-.3795-.7866-.228-.5381-.4052-1.103-.5252-1.6883-.1201-.5853-.1832-1.1912-.1832-1.8115s.063-1.2262,.1832-1.8115c.7205-3.512,3.4933-6.2848,7.0053-7.0053,.5853-.1201,1.1912-.1832,1.8115-.1832s1.2262,.0631,1.8115,.1832c3.512,.7205,6.2848,3.4933,7.0053,7.0053,.1201,.5853,.1832,1.1912,.1832,1.8115,0,.405-.0363,.8008-.0883,1.1918Z"/></svg>