<svg width="24" height="24" viewBox="0 0 24 24">
  <path d="m22.1824 10.269-7.5-7a1.0013 1.0013 0 0 0-1.0808-.186A.9995.9995 0 0 0 13 4v3.5279c-6.4354.303-11.5 3.5-11.5 7.4022 0 3.5718 4.9992 5.9354 4.9992 5.9354.4779.2765 1.0895.1135 1.3662-.3643.2768-.4779.1137-1.0897-.3642-1.3665-.0001-.0001.0001 0 0 0-.7677-.4677-1.2134-1.0243-1.2134-1.6218 0-1.5321 3.2062-3.0098 6.7122-2.9822V18c0 .3984.2364.7583.6016.917a.9995.9995 0 0 0 1.0808-.1861l7.5-7A.9991.9991 0 0 0 22.5 11a.9994.9994 0 0 0-.3176-.731Z"/>
</svg>
