<?xml version="1.0" encoding="UTF-8"?><svg id="k" xmlns="http://www.w3.org/2000/svg" width="48" height="48" viewBox="0 0 48 48"><defs><style>.ds{fill-rule:evenodd;}</style></defs><g id="l"><g><g><polygon class="ds" points="28 36 28 8 43 22 28 36"/><path d="M27.9995,38c-.269,0-.54-.0547-.7964-.166-.7305-.3174-1.2031-1.0371-1.2031-1.834V8c0-.7969,.4727-1.5166,1.2031-1.834,.7305-.3164,1.5791-.1709,2.1616,.3721l15,14c.4053,.3779,.6353,.9072,.6353,1.4619s-.23,1.084-.6353,1.4619l-15,14c-.3779,.3525-.8682,.5381-1.3652,.5381Zm2.0005-25.3975V31.3975l10.0688-9.3975-10.0688-9.3975Z"/></g><path class="ds" d="M26.0197,29.0611l5.9803-7.0611-5.9803-6.9454c-12.8804,.6005-23.0198,6.9972-23.0198,14.8057,0,7.1436,9.9983,11.8707,9.9983,11.8707h0c.9557,.553,2.1789,.227,2.7324-.7286,.5536-.9558,.2275-2.1794-.7283-2.733l-.0007-.0003h0c-1.5354-.9354-2.426-2.0482-2.426-3.2433,0-3.0671,6.4243-6.0258,13.444-5.9647Z"/></g></g></svg>