<svg width="24" height="24" viewBox="0 0 24 24">
  <path d="M18 14a.9998.9998 0 0 0 .9155-.5995l.0025-.0065h.0005l.001-.002.0025-.0055 2.997-6.993c.2185-.5063-.015-1.0939-.5214-1.3123a.9974.9974 0 0 0-.3956-.0817H7.42L6.9805 2.803l-.024-.02a.987.987 0 0 0-.956-.7835H3c-.5523 0-1 .4477-1 1s.4477 1 1 1h2.18l1.772 8.8595-1.8465 3.6935.0035.0055c-.2469.4823-.056 1.0734.4262 1.3203a.9803.9803 0 0 0 .4468.1077h.01-.0005L6 18h12c.5523 0 1-.4477 1-1s-.4477-1-1-1H7.618l1-2H18Zm1 6.5c0 .8285-.6716 1.5-1.5 1.5-.8285 0-1.5-.6715-1.5-1.5 0-.8284.6715-1.5 1.5-1.5.8284 0 1.5.6716 1.5 1.5Zm-11 0c0 .8285-.6715 1.5-1.5 1.5S5 21.3285 5 20.5c0-.8284.6715-1.5 1.5-1.5s1.5.6716 1.5 1.5Z"/>
</svg>
