<svg width="24" height="24" viewBox="0 0 24 24">
  <path d="M9 2c-.5523 0-1 .4478-1 1v3.586L3.207 1.793c-.3901-.3906-1.024-.3906-1.414 0a.9997.9997 0 0 0 0 1.414L6.5859 8h-3.586c-.5522 0-1 .4477-1 1 0 .5522.4478 1 1 1h6c.0657 0 .1312-.007.1959-.0198.0295-.0059.0568-.0169.0854-.0253.0339-.01.0683-.0178.1013-.0314.0332-.0139.0633-.0328.0947-.05.0258-.0141.0526-.0254.0774-.042a1.0041 1.0041 0 0 0 .2771-.2772c.0159-.0237.0267-.0495.0404-.0742.0178-.0323.0373-.0635.0515-.0978.0134-.0326.0211-.0664.031-.0998.0086-.029.0198-.0567.0257-.0867A1.0004 1.0004 0 0 0 10.0001 9V3c0-.5522-.4479-1-1.0001-1Zm5.0454 7.2825c.0099.0335.0176.0672.031.0998.0142.0343.0337.0655.0516.0978.0136.0247.0244.0505.0403.0742.0732.1097.1674.204.2771.2773.0248.0165.0516.0279.0774.042.0314.0171.0615.036.0948.0499.0329.0136.0673.0214.1013.0314.0285.0084.0558.0194.0853.0253.0647.0129.1302.0198.1959.0198h6c.5522 0 1-.4478 1-1 0-.5523-.4478-1-1-1h-3.586l4.793-4.793a.9997.9997 0 0 0 0-1.414c-.3902-.3906-1.024-.3906-1.4141 0l-4.7929 4.7929v-3.586c0-.5522-.4478-1-1-1-.5523 0-1 .4478-1 1v6c0 .0657.0069.1312.0197.1958.006.03.017.0579.0256.0868ZM17.414 16H21c.5522 0 1-.4478 1-1s-.4478-1-1-1h-6c-.0657 0-.1313.0069-.1959.0197-.0292.0058-.0561.0168-.0843.0251-.0344.01-.0691.0179-.1024.0317-.0329.0136-.0626.0324-.0937.0493-.0262.0142-.0534.0258-.0784.0426a1.0044 1.0044 0 0 0-.2771.2772c-.0158.0237-.0266.0495-.0403.0742-.0178.0323-.0373.0635-.0515.0979-.0135.0325-.0211.0663-.031.0998-.0087.0289-.0198.0566-.0257.0866a.9997.9997 0 0 0-.0198.1958v5.9999c0 .5523.4478 1 1 1 .5523 0 1-.4477 1-1v-3.5859l4.793 4.793a.9965.9965 0 0 0 .707.2929.9969.9969 0 0 0 .7071-.2929.9997.9997 0 0 0 0-1.4141L17.414 16Zm-7.4595-1.2824c-.0099-.0335-.0175-.0673-.031-.0998-.0142-.0344-.0337-.0656-.0516-.0979-.0136-.0247-.0244-.0505-.0403-.0742a1.0056 1.0056 0 0 0-.277-.2772c-.0252-.0169-.0526-.0285-.0789-.0428-.0308-.0168-.0605-.0355-.0932-.049-.0334-.0138-.0683-.0218-.1028-.0319-.028-.0083-.0549-.0192-.0839-.0249a1.0015 1.0015 0 0 0-.1959-.0198h-6c-.5522 0-1 .4478-1 1 0 .5523.4478 1 1 1h3.586l-4.793 4.793a.9996.9996 0 0 0 0 1.414.9964.9964 0 0 0 .7071.293.9965.9965 0 0 0 .707-.293L8 17.4142v3.5859c0 .5523.4477 1 1 1s1-.4477 1-1v-6a.9994.9994 0 0 0-.0198-.1957c-.0059-.03-.0171-.0579-.0257-.0868Z"/>
</svg>
