<svg width="24" height="24" viewBox="0 0 24 24">
  <path d="M9 2c-.5523 0-1 .4478-1 1v3.586L3.207 1.793c-.3901-.3906-1.0239-.3906-1.414 0a.9997.9997 0 0 0 0 1.414L6.586 8H3c-.5522 0-1 .4477-1 1 0 .5522.4478 1 1 1h6a1.01 1.01 0 0 0 .1959-.0198c.0295-.0058.0567-.0169.0853-.0253.034-.01.0684-.0178.1013-.0314.0332-.0138.0634-.0328.0947-.05.0259-.014.0527-.0254.0775-.042a1.0041 1.0041 0 0 0 .2771-.2772c.0159-.0237.0267-.0495.0403-.0742.0179-.0323.0373-.0635.0516-.0978.0134-.0325.021-.0664.031-.0998.0085-.029.0197-.0567.0256-.0867a1.0003 1.0003 0 0 0 .0198-.1957V3c0-.5523-.4478-1-1.0001-1Zm5.0455 7.2825c.0098.0335.0175.0673.031.0998.0142.0343.0337.0655.0515.0978.0136.0247.0244.0505.0403.0742a1.005 1.005 0 0 0 .2772.2773c.0247.0165.0515.0279.0774.042.0313.0171.0615.036.0947.0499.033.0136.0674.0215.1013.0314.0285.0084.0558.0195.0854.0253.0646.0129.1302.0198.1958.0198h6c.5523 0 1-.4478 1-1 0-.5523-.4477-1-1-1h-3.5859l4.7929-4.793a.9997.9997 0 0 0 0-1.414c-.3901-.3906-1.0239-.3906-1.414 0l-4.793 4.793V3c0-.5523-.4477-1-1-1-.5522 0-1 .4477-1 1v6c0 .0656.0069.1311.0198.1957.0059.03.017.0579.0256.0868ZM17.4141 16H21c.5523 0 1-.4477 1-1 0-.5522-.4477-1-1-1h-6c-.0656 0-.1312.0069-.1959.0198-.0291.0058-.056.0167-.0842.025-.0344.01-.0691.0179-.1024.0317-.0329.0137-.0627.0324-.0937.0493-.0262.0143-.0534.0258-.0785.0426a1.0054 1.0054 0 0 0-.277.2772c-.0159.0238-.0267.0495-.0403.0742-.0179.0323-.0373.0635-.0516.0979-.0134.0325-.0211.0663-.031.0998-.0086.0289-.0197.0566-.0257.0866a1.008 1.008 0 0 0-.0197.1958v6c0 .5522.4477 1 1 1 .5522 0 1-.4478 1-1v-3.586l4.7929 4.793a.9965.9965 0 0 0 .7071.2929.9962.9962 0 0 0 .707-.2929.9997.9997 0 0 0 0-1.4141L17.4141 16Zm-7.4596-1.2824c-.0098-.0335-.0175-.0673-.031-.0998-.0142-.0344-.0337-.0656-.0515-.0979-.0136-.0247-.0244-.0505-.0403-.0742a1.0056 1.0056 0 0 0-.277-.2772c-.0252-.0169-.0526-.0285-.079-.0428-.0308-.0168-.0604-.0355-.0931-.049-.0335-.0138-.0684-.0218-.1029-.0319-.028-.0083-.0549-.0192-.0838-.0249a1.0015 1.0015 0 0 0-.196-.0198H3c-.5522 0-1 .4478-1 1 0 .5523.4478 1 1 1h3.586l-4.793 4.793a.9996.9996 0 0 0 0 1.414.9964.9964 0 0 0 .707.293.9965.9965 0 0 0 .7071-.293l4.793-4.7929v3.5859c0 .5523.4477 1 1 1 .5522 0 1-.4477 1-1v-6a.9995.9995 0 0 0-.0198-.1957c-.006-.03-.0171-.0579-.0258-.0868Z"/>
</svg>
