<svg width="24" height="24" viewBox="0 0 24 24">
  <path d="M6.2936 11.2924a1.0033 1.0033 0 0 0-.1252.1529c-.0169.0252-.0285.0526-.0428.0789-.0169.0309-.0355.0605-.049.0932-.0138.0334-.0218.0683-.032.1028-.0082.0281-.0191.0549-.0248.0839a1.0057 1.0057 0 0 0 0 .3919c.0057.0291.0167.056.025.0842.01.0344.0179.0691.0317.1024.0137.0329.0324.0627.0493.0937.0142.0262.0258.0534.0426.0785a.9974.9974 0 0 0 .1252.1529l7.9993 7.9994c.3904.3906 1.0237.3906 1.4141 0 .3906-.3902.3906-1.024 0-1.4141l-6.2928-6.2929H21c.5523 0 1-.4478 1-1 0-.5523-.4477-1-1-1H9.4143l6.2928-6.293A.9963.9963 0 0 0 16 4.0001a.9964.9964 0 0 0-.2929-.707c-.3904-.3907-1.0237-.3907-1.4141 0l-7.9994 7.9993Z"/>
  <path d="M2 22h4c.5522 0 1-.4477 1-1 0-.5522-.4478-1-1-1H4V4h2c.5522 0 1-.4477 1-1 0-.5522-.4478-1-1-1H2v20Z"/>
</svg>
