<svg width="24" height="24" viewBox="0 0 24 24">
  <path d="M6.2936 11.2923a1.009 1.009 0 0 0-.1252.153c-.0169.0252-.0285.0526-.0428.0789-.0169.0309-.0355.0605-.049.0932-.0138.0334-.0218.0683-.032.1028-.0082.0281-.0191.0549-.0248.0839a1.0051 1.0051 0 0 0 0 .3918c.0057.0292.0167.0561.025.0843.01.0344.0179.0691.0317.1024.0137.0329.0324.0627.0493.0937.0142.0262.0258.0534.0426.0785a.9993.9993 0 0 0 .1252.1529l7.9993 7.9993c.3904.3906 1.0237.3906 1.4141 0 .3906-.3901.3906-1.0239 0-1.414L9.4142 13H21c.5523 0 1-.4477 1-1 0-.5522-.4477-1-1-1H9.4143l6.2928-6.2929A.9963.9963 0 0 0 16 4.0001a.9964.9964 0 0 0-.2929-.7071c-.3904-.3906-1.0237-.3906-1.4141 0l-7.9994 7.9993Z"/>
  <path d="M2 22h4c.5522 0 1-.4477 1-1s-.4478-1-1-1H4V4h2c.5522 0 1-.4478 1-1s-.4478-1-1-1H2v20Z"/>
</svg>
