<?xml version="1.0" encoding="UTF-8"?><svg xmlns="http://www.w3.org/2000/svg" width="48" height="48" viewBox="0 0 48 48"><g id="a"/><g id="b"><g id="c"/></g><g id="d"/><g id="e"><g id="f"/></g><g id="g"><g id="h"/></g><g id="i"><g id="j"/></g><g id="k"><g id="l"><g id="m"><path d="M24.0002,6.6091l3.0542,10.1811,.5879,1.9598h14.2444l-10.0234,8.1451-1.4287,1.161,.5289,1.7633,3.6178,12.061-8.8474-7.1877-1.734-1.4088-1.734,1.4088-8.8467,7.1875,3.6181-12.0607,.5291-1.7636-1.429-1.161L6.1119,18.75h14.2456l.588-1.9597,3.0547-10.1812m-.0002-4.6091c-.8833,0-1.6616,.5791-1.9155,1.4248l-3.7729,12.5752H4c-.8467,0-1.6016,.5332-1.8848,1.3311s-.0337,1.6875,.6235,2.2217l11.6646,9.4766-4.3189,14.3965c-.2524,.8408,.0732,1.748,.8027,2.2363,.3379,.2256,.7256,.3379,1.1128,.3379,.4482,0,.8955-.1504,1.2612-.4482l10.7388-8.7246,10.7393,8.7246c.3653,.2977,.812,.448,1.2603,.448,.3869,0,.7748-.1119,1.1128-.3377,.7295-.4883,1.0557-1.3955,.8037-2.2363l-4.3183-14.3965,11.6631-9.4775c.6572-.5332,.9072-1.4229,.624-2.2207-.2832-.7979-1.0381-1.3311-1.8848-1.3311h-14.3115l-3.7725-12.5752c-.2539-.8457-1.0327-1.4248-1.916-1.4248h0Z" fill="#0d5156"/></g></g><g id="n"><path id="o" d="M24.0002,6.6091l3.0542,10.1811,.5879,1.9598h14.2444l-10.0234,8.1451-1.4287,1.161,.5289,1.7633,3.6178,12.061-8.8474-7.1877-1.734-1.4088-1.734,1.4088-8.8467,7.1875,3.6181-12.0607,.5291-1.7636-1.429-1.161L6.1119,18.75h14.2456l.588-1.9597,3.0547-10.1812m-.0002-4.6091c-.8833,0-1.6616,.5791-1.9155,1.4248l-3.7729,12.5752H4c-.8467,0-1.6016,.5332-1.8848,1.3311s-.0337,1.6875,.6235,2.2217l11.6646,9.4766-4.3189,14.3965c-.2524,.8408,.0732,1.748,.8027,2.2363,.3379,.2256,.7256,.3379,1.1128,.3379,.4482,0,.8955-.1504,1.2612-.4482l10.7388-8.7246,10.7393,8.7246c.3653,.2977,.812,.448,1.2603,.448,.3869,0,.7748-.1119,1.1128-.3377,.7295-.4883,1.0557-1.3955,.8037-2.2363l-4.3183-14.3965,11.6631-9.4775c.6572-.5332,.9072-1.4229,.624-2.2207-.2832-.7979-1.0381-1.3311-1.8848-1.3311h-14.3115l-3.7725-12.5752c-.2539-.8457-1.0327-1.4248-1.916-1.4248h0Z"/></g></g><g id="p"><g id="q"/><g id="r"/></g><g id="s"/></svg>