<?xml version="1.0" encoding="UTF-8"?><svg xmlns="http://www.w3.org/2000/svg" width="48" height="48" viewBox="0 0 48 48"><g id="a"/><g id="b"><g id="c"/></g><g id="d"/><g id="e"><g id="f"/></g><g id="g"><g id="h"/></g><g id="i"><g id="j"/></g><g id="k"><g id="l"/></g><g id="m"><g id="n"><g id="o"><path d="M24.0003,6.6091l3.0543,10.1811,.5879,1.9598h14.2444l-10.0234,8.1451-1.4287,1.161,.5289,1.7633,3.6178,12.061-8.8474-7.1877-1.734-1.4088-1.734,1.4088-8.8467,7.1875,3.6181-12.0607,.5291-1.7636-1.429-1.161L6.1121,18.75h14.2456l.588-1.9597,3.0547-10.1812m-.0002-4.6091c-.8833,0-1.6616,.5791-1.9155,1.4248l-3.7729,12.5752H4.0001c-.8467,0-1.6016,.5332-1.8848,1.3311-.2832,.7979-.0337,1.6875,.6235,2.2217l11.6646,9.4766-4.3188,14.3965c-.2524,.8408,.0732,1.748,.8027,2.2363,.3379,.2256,.7256,.3379,1.1128,.3379,.4482,0,.8955-.1504,1.2612-.4482l10.7388-8.7246,10.7393,8.7246c.3653,.2977,.812,.448,1.2603,.448,.3869,0,.7748-.1119,1.1128-.3377,.7295-.4883,1.0557-1.3955,.8037-2.2363l-4.3184-14.3965,11.6631-9.4775c.6572-.5332,.9072-1.4229,.624-2.2207s-1.0381-1.3311-1.8848-1.3311h-14.3115l-3.7725-12.5752c-.2539-.8457-1.0327-1.4248-1.916-1.4248h0Z" fill="#0d5156"/></g><path id="p" d="M24,2c-.8828,0-1.6621,.5791-1.916,1.4248l-3.7725,12.5752H4c-.8467,0-1.6016,.5332-1.8848,1.3311s-.0332,1.6875,.624,2.2217l11.6641,9.4766-4.3193,14.3955c-.252,.8418,.0742,1.749,.8037,2.2373,.3379,.2256,.7256,.3379,1.1123,.3379,.4482,0,.8955-.1504,1.2607-.4482l10.7393-8.7246V2Z" fill="#0d5156"/></g><g id="q"><path d="M45.8849,17.3311c-.2832-.7979-1.0381-1.3311-1.8848-1.3311h-14.3115l-3.7725-12.5752c-.254-.8457-1.0328-1.4248-1.9161-1.4248h-.0001c-.8828,0-1.6621,.5791-1.916,1.4248l-3.7725,12.5752H4c-.8467,0-1.6016,.5332-1.8848,1.3311-.0944,.2659-.1092,.5392-.0898,.809,.0388,.5396,.2753,1.0566,.7134,1.4127l8.7484,7.1074,2.916,2.3691-4.3193,14.3955c-.1088,.3634-.0908,.7343,.0018,1.0831,.1217,.4591,.3869,.8766,.8015,1.1542,.2896,.1934,.6174,.2863,.9485,.3138,.0551,.0046,.1089,.0241,.1641,.0241h.0001c.4482,0,.8955-.1504,1.2612-.4482l10.7388-8.7246,10.7393,8.7246c.3653,.2977,.812,.4481,1.2603,.4481,.3868,0,.7748-.1119,1.1128-.3377,.7295-.4883,1.0557-1.3955,.8037-2.2363l-4.3184-14.3965,11.6631-9.4775c.6572-.5332,.9072-1.4229,.624-2.2207Zm-14.0214,9.564l-1.4287,1.161,.5289,1.7633,3.6179,12.061-8.8475-7.1876-1.734-1.4088h-.0001V6.6103l.0004-.0012,3.0543,10.1811,.5879,1.9598h14.2444l-10.0234,8.1451Z"/></g></g><g id="r"/></svg>