<?xml version="1.0" encoding="UTF-8"?><svg xmlns="http://www.w3.org/2000/svg" width="48" height="48" viewBox="0 0 48 48"><g id="a"/><g id="b"><g id="c"/></g><g id="d"/><g id="e"><g id="f"/></g><g id="g"><g id="h"/></g><g id="i"><g id="j"/></g><g id="k"><g id="l"/></g><g id="m"><g id="n"/><g id="o"/></g><g id="p"><g id="q"><polygon id="r" points="31.2965 28.3216 44 18 28.2 18 24 4 19.8 18 4 18 16.7035 28.3216 12 44 24 34.25 36 44 31.2965 28.3216" fill="#0d5156" stroke="#0d5156" stroke-linecap="round" stroke-linejoin="round" stroke-width="4"/></g><path id="s" d="M45.8848,17.3311c-.2832-.7979-1.0381-1.3311-1.8848-1.3311h-14.3115l-3.7725-12.5752c-.2539-.8457-1.0332-1.4248-1.916-1.4248s-1.6621,.5791-1.916,1.4248l-3.7725,12.5752H4c-.8467,0-1.6016,.5332-1.8848,1.3311s-.0332,1.6875,.624,2.2207l11.6631,9.4775-4.3184,14.3965c-.252,.8408,.0742,1.748,.8037,2.2363,.7295,.4873,1.6924,.4443,2.373-.1104l10.7393-8.7246,10.7393,8.7246c.3652,.2979,.8125,.4482,1.2607,.4482,.3867,0,.7744-.1123,1.1123-.3379,.7295-.4883,1.0557-1.3955,.8037-2.2363l-4.3184-14.3965,11.6631-9.4775c.6572-.5332,.9072-1.4229,.624-2.2207Z"/></g></svg>