<svg width="24" height="24" viewBox="0 0 24 24">
  <path d="m12 3.5 1.785 5.95H20.5l-5.399 4.3867L17.0999 20.5l-5.1-4.1437-5.1 4.1437 1.999-6.6633L3.4999 9.45h6.7149L12 3.5Zm8.5 5.95h.0024ZM12 2a1.5 1.5 0 0 0-1.4367 1.069L9.099 7.95H3.5a1.5 1.5 0 0 0-.9459 2.6642l4.6196 3.7534-1.7104 5.7014a1.5 1.5 0 0 0 2.3826 1.5952L12 18.289l4.1541 3.3752c.2743.2229.6097.3358.946.3358a1.5 1.5 0 0 0 1.4366-1.931l-1.7104-5.7014 4.594-3.7326c.3534-.2744.581-.7032.581-1.185 0-.8284-.6704-1.5-1.4988-1.5H14.901l-1.4643-4.881A1.5 1.5 0 0 0 12 2Z"/>
</svg>
