<svg width="24" height="24" viewBox="0 0 24 24">
  <path d="M12 5.5c.5522 0 1-.4477 1-1V2c0-.5522-.4478-1-1-1s-1 .4478-1 1v2.5c0 .5523.4478 1 1 1Zm0 13c-.5522 0-1 .4478-1 1V22c0 .5523.4478 1 1 1s1-.4477 1-1v-2.5c0-.5522-.4478-1-1-1ZM5.9895 7.4038a.9973.9973 0 0 0 .7073.293.9968.9968 0 0 0 .707-.293c.3906-.3901.3906-1.0234.0003-1.414l-1.768-1.768c-.3902-.3907-1.0235-.3907-1.4141 0-.3906.39-.3906 1.0234-.0003 1.414l1.7678 1.768Zm12.021 9.1924c-.3906-.3906-1.0237-.3906-1.4143 0-.3906.3902-.3906 1.0235-.0002 1.4141l1.768 1.768a.9966.9966 0 0 0 .7071.293.9967.9967 0 0 0 .707-.293c.3906-.3901.3906-1.0234.0003-1.414l-1.7679-1.7681ZM5.5 12c0-.5522-.4478-1-1-1H2c-.5522 0-1 .4478-1 1 0 .5523.4478 1 1 1h2.5c.5522 0 1-.4477 1-1ZM22 11h-2.5c-.5522 0-1 .4478-1 1 0 .5523.4478 1 1 1H22c.5522 0 1-.4477 1-1 0-.5522-.4478-1-1-1ZM5.9895 16.5962l-1.7678 1.7681c-.3904.3906-.3904 1.0239.0002 1.414a.9968.9968 0 0 0 .7071.293.9965.9965 0 0 0 .707-.293l1.7681-1.768c.3904-.3906.3904-1.024-.0002-1.4141-.3906-.3906-1.0238-.3906-1.4144 0Zm11.3137-8.8994a.9977.9977 0 0 0 .7073-.293l1.7678-1.768c.3904-.3906.3904-1.024-.0003-1.414-.3906-.3906-1.0239-.3906-1.414 0l-1.7681 1.768c-.3904.3906-.3904 1.024.0003 1.414a.9966.9966 0 0 0 .707.293ZM12 17.5c3.0376 0 5.5-2.4624 5.5-5.5 0-3.0375-2.4624-5.5-5.5-5.5S6.5 8.9625 6.5 12c0 3.0376 2.4624 5.5 5.5 5.5Z"/>
</svg>
