<?xml version="1.0" encoding="UTF-8"?><svg id="c" xmlns="http://www.w3.org/2000/svg" width="48" height="48" viewBox="0 0 48 48"><path d="M43.2493,20.0437c-3.7844,.0091-7.476-1.1712-10.5532-3.3739v15.3626c-.0028,7.7169-6.2609,13.9704-13.9778,13.9675-7.7169-.0028-13.9704-6.2609-13.9675-13.9778,.0028-7.7169,6.2609-13.9704,13.9778-13.9675,.6401,.0002,1.2794,.0445,1.9135,.1323v7.7269c-3.3793-1.0629-6.9804,.8148-8.0434,4.1941-1.0629,3.3793,.8148,6.9804,4.1941,8.0434,3.3793,1.0629,6.9804-.8148,8.0434-4.1941,.1959-.6228,.2956-1.2719,.2956-1.9248V2h7.5644c-.0053,.6388,.0483,1.2767,.1599,1.9057h0c.5312,2.8378,2.2072,5.3317,4.6341,6.8957,1.7083,1.1296,3.7112,1.7316,5.7593,1.7312v7.5111Z"/></svg>