<svg width="24" height="24" viewBox="0 0 24 24">
  <path d="M20.7494 10.2017a8.2079 8.2079 0 0 1-4.797-1.5336v6.983c-.0013 3.5077-2.8458 6.3502-6.3535 6.3489-3.5077-.0013-6.3502-2.8458-6.3489-6.3535.0013-3.5077 2.8459-6.3502 6.3536-6.349a6.374 6.374 0 0 1 .8697.0602V12.87c-1.536-.4831-3.1729.3704-3.656 1.9064-.4832 1.5361.3703 3.1729 1.9063 3.6561 1.5361.4831 3.1729-.3704 3.6561-1.9064a2.9145 2.9145 0 0 0 .1343-.8749V2.0001h3.4384a4.7283 4.7283 0 0 0 .0727.8662 4.7736 4.7736 0 0 0 2.1063 3.1344 4.7446 4.7446 0 0 0 2.6179.7869l.0001 3.4141Z"/>
</svg>
