<svg width="24" height="24" viewBox="0 0 24 24">
  <path d="M20.7497 10.2017a8.2078 8.2078 0 0 1-4.7969-1.5336v6.983C15.9515 19.1588 13.107 22.0013 9.5992 22c-3.5076-.0013-6.3501-2.8458-6.3488-6.3535.0013-3.5077 2.8458-6.3502 6.3535-6.349a6.351 6.351 0 0 1 .8698.0602V12.87c-1.5361-.4831-3.173.3704-3.6561 1.9064-.4831 1.5361.3704 3.1729 1.9064 3.6561 1.5361.4831 3.1729-.3704 3.6561-1.9064a2.9176 2.9176 0 0 0 .1343-.8749V2.0001h3.4384a4.737 4.737 0 0 0 .0726.8662 4.774 4.774 0 0 0 2.1064 3.1344 4.7446 4.7446 0 0 0 2.6179.7869v3.4141Z"/>
</svg>
