<svg width="24" height="24" viewBox="0 0 24 24">
  <path d="M20.6914 7.5407c.0138.1946.0138.3892.0138.5833l.0005.0879c0 7.0022-5.6765 12.6788-12.6788 12.6788l-.0923-.0005h.005-.0332c-2.547 0-4.9193-.7513-6.9064-2.0443l.0489.0301a8.9896 8.9896 0 0 0 1.0165.0558l.0707-.0005h-.0035.0227a8.9495 8.9495 0 0 0 5.5664-1.9312l-.0187.0143c-1.9073-.035-3.585-1.2695-4.186-3.08l-.0088-.0316c.2534.042.5467.0671.8455.0691h.002a4.7487 4.7487 0 0 0 1.2141-.1605l-.0331.0074c-2.067-.4292-3.5982-2.2349-3.5982-4.3983v-.005.0006-.0558a4.4592 4.4592 0 0 0 2.0196.5695l.0089.0005c-1.213-.8175-2.0004-2.186-2.0004-3.7385 0-.8337.2272-1.614.6224-2.2833l-.0113.0207c2.223 2.721 5.512 4.4996 9.2204 4.6942l.0316.0015a4.926 4.926 0 0 1-.1112-1.0263V7.597c.002-2.4804 2.0144-4.4896 4.4948-4.4876a4.4913 4.4913 0 0 1 3.2686 1.415l.002.0024a8.8194 8.8194 0 0 0 2.8875-1.106l-.0395.0223a4.4999 4.4999 0 0 1-1.9525 2.4612l-.0203.0114a8.9822 8.9822 0 0 0 2.641-.7172l-.0573.0227a9.7201 9.7201 0 0 1-2.2241 2.3012l-.0262.0187-.0011-.0005Z"/>
</svg>
