<svg width="24" height="24" viewBox="0 0 24 24">
  <path d="M20.6914 7.5407c.0139.1945.0139.3891.0139.5833l.0005.0878c0 7.0023-5.6766 12.6788-12.6788 12.6788l-.0923-.0005h.0049-.0331c-2.5471 0-4.9194-.7512-6.9065-2.0443l.049.0302a8.9896 8.9896 0 0 0 1.0164.0558l.0707-.0005h-.0034.0227a8.95 8.95 0 0 0 5.5664-1.9312l-.0187.0143c-1.9074-.0351-3.585-1.2696-4.186-3.0801l-.0089-.0316c.2534.042.5467.0672.8456.0692h.002a4.753 4.753 0 0 0 1.214-.1605l-.033.0074c-2.0671-.4292-3.5983-2.235-3.5983-4.3983v-.005.0006-.0558a4.4592 4.4592 0 0 0 2.0196.5694l.009.0005c-1.2131-.8174-2.0004-2.186-2.0004-3.7384 0-.8337.2272-1.6141.6223-2.2833l-.0113.0207c2.2231 2.721 5.5121 4.4996 9.2204 4.6942l.0316.0015a4.926 4.926 0 0 1-.1112-1.0263V7.597c.002-2.4805 2.0144-4.4896 4.4948-4.4876a4.4913 4.4913 0 0 1 3.2686 1.4149l.002.0024a8.8194 8.8194 0 0 0 2.8875-1.1058l-.0395.0222a4.4999 4.4999 0 0 1-1.9525 2.4612l-.0202.0114a8.9824 8.9824 0 0 0 2.6409-.7172l-.0573.0227a9.7201 9.7201 0 0 1-2.2241 2.3011l-.0262.0188-.0011-.0005Z"/>
</svg>
