<svg width="24" height="24" viewBox="0 0 24 24">
  <path d="M12.8164 1.5513a1.0011 1.0011 0 0 0-1.1162.3486L7.5 7.5h-5c-.5522 0-1 .4478-1 1v8c0 .5523.4478 1 1 1h5.0547l4.2022 4.669A.9997.9997 0 0 0 13.5 21.5v-19c0-.4304-.2754-.8125-.6836-.9487ZM20.414 12l2.293-2.293c.3906-.3903.3906-1.0236 0-1.414a.9997.9997 0 0 0-1.4141 0L19 10.586l-2.293-2.293a.9996.9996 0 0 0-1.414 0c-.3906.3904-.3906 1.0237 0 1.414L17.5859 12l-2.2929 2.293c-.3906.3904-.3906 1.0237 0 1.414A.9967.9967 0 0 0 16 16a.997.997 0 0 0 .7071-.293L19 13.4141l2.293 2.2929A.9967.9967 0 0 0 22 16a.997.997 0 0 0 .7071-.293c.3906-.3904.3906-1.0237 0-1.414L20.414 12Z"/>
</svg>
