<svg width="24" height="24" viewBox="0 0 24 24">
  <path d="M12.8164 1.5513a1.0015 1.0015 0 0 0-1.1162.3487L7.5 7.5h-5c-.5522 0-1 .4478-1 1v8c0 .5523.4478 1 1 1h5.0547l4.2022 4.669A.9997.9997 0 0 0 13.5 21.5v-19a1 1 0 0 0-.6836-.9487Zm4.1333 5.499a.9997.9997 0 0 0-1.4141 0 .9997.9997 0 0 0 0 1.4141c1.9492 1.9497 1.9492 5.1216 0 7.0713a.9996.9996 0 0 0 0 1.414.997.997 0 0 0 .7071.293.9967.9967 0 0 0 .707-.293c2.7295-2.729 2.7295-7.1703 0-9.8994Z"/>
  <path d="M19.7783 4.2218a.9996.9996 0 0 0-1.414 0c-.3906.3901-.3906 1.0234 0 1.414 3.5088 3.5093 3.5088 9.2193 0 12.7285-.3906.3906-.3906 1.024 0 1.4141a.9966.9966 0 0 0 .707.2929.997.997 0 0 0 .7071-.2929c4.2885-4.2891 4.2884-11.2676-.0001-15.5567Z"/>
</svg>
