<svg width="24" height="24" viewBox="0 0 24 24">
  <path d="M12.8164 1.5512a1.0011 1.0011 0 0 0-1.1162.3487L7.5 7.4999h-5c-.5522 0-1 .4478-1 1V16.5c0 .5522.4478 1 1 1h5.0547l4.2022 4.6689a.9995.9995 0 0 0 1.1015.2647A1.0003 1.0003 0 0 0 13.5 21.5v-19c0-.4304-.2754-.8125-.6836-.9488ZM20.414 12l2.293-2.293c.3906-.3904.3906-1.0237 0-1.414a.9997.9997 0 0 0-1.4141 0L19 10.5859l-2.293-2.293a.9996.9996 0 0 0-1.414 0c-.3906.3905-.3906 1.0238 0 1.4141L17.5859 12l-2.2929 2.2929c-.3906.3904-.3906 1.0237 0 1.4141a.9966.9966 0 0 0 .707.2929.997.997 0 0 0 .7071-.2929L19 13.414l2.293 2.293a.9966.9966 0 0 0 .707.2929.997.997 0 0 0 .7071-.2929c.3906-.3904.3906-1.0237 0-1.4141L20.414 12Z"/>
</svg>
