<svg width="24" height="24" viewBox="0 0 24 24">
  <path d="M20 5.7659c0 .9665-.7835 1.75-1.75 1.75s-1.75-.7835-1.75-1.75c0-.9666.7835-1.75 1.75-1.75s1.75.7834 1.75 1.75Zm-3 6.25h-2.586l2.2925-2.2926c.3908-.3883.3927-1.0199.0044-1.4106l-.0044-.0043-5-5a.9969.9969 0 0 0-.707-.293c-.276 0-.526.112-.707.293l-3 3c-.3974.3835-.4086 1.0166-.025 1.414.3835.3973 1.0166.4085 1.414.025a1.0354 1.0354 0 0 0 .0246-.0245l2.2935-2.293 1.586 1.586-3.094 3.0939a5.2911 5.2911 0 0 0-1.0085-.0939c-1.3375 0-2.562.4815-3.5105 1.281l.008-.007 1.4325 1.4325a3.4464 3.4464 0 0 1 2.086-.7065c1.9319.0025 3.498 1.568 3.5005 3.5a3.4522 3.4522 0 0 1-.7125 2.0944l.006-.0084 1.4325 1.4324a5.4402 5.4402 0 0 0 1.2745-3.5095 5.4769 5.4769 0 0 0-.222-1.548l.01.0386h2.2125v5c0 .5523.4477 1 1 1s1-.4477 1-1v-6c0-.5523-.4477-1-1-1L17 12.0159Zm-8.5 7c-1.932-.0025-3.4975-1.5681-3.5-3.5a3.4523 3.4523 0 0 1 .7125-2.0946l-.006.0085-1.4325-1.4325A5.4703 5.4703 0 0 0 3 15.5169c0 3.037 2.462 5.499 5.499 5.499 1.343 0 2.5735-.4816 3.5285-1.2811l-.0085.007-1.4325-1.4325a3.4436 3.4436 0 0 1-2.0865.7066Z"/>
</svg>
