<svg width="24" height="24" viewBox="0 0 24 24">
  <path d="M22.5399 6.6862a2.775 2.775 0 0 0-1.9254-1.953l-.0193-.0045c-1.7155-.463-8.595-.463-8.595-.463s-6.8794 0-8.5949.463a2.7756 2.7756 0 0 0-1.9405 1.9382l-.0047.0193C1.1674 8.2335 1 10.013 1 11.8322l.0005.1934v-.0101L1 12.1989a29.16 29.16 0 0 0 .4876 5.3248l-.0274-.1788a2.7337 2.7337 0 0 0 1.9259 1.9222l.0188.0041c1.7155.4629 8.5949.4629 8.5949.4629s6.8794 0 8.5949-.4629a2.734 2.734 0 0 0 1.9406-1.9071l.0046-.0192c.2929-1.5473.4601-3.327.4601-5.1461l-.0004-.1934v.0101L23 11.8322a29.164 29.164 0 0 0-.4876-5.3253l.0275.1788v.0005Zm-12.79 8.6004v-6.542l5.7496 3.271-5.7496 3.271Z"/>
</svg>
