<svg width="24" height="24" viewBox="0 0 24 24">
  <path d="m21.7071 20.293-5.3928-5.3928C17.3671 13.5456 18 11.8485 18 10c0-4.4182-3.5817-8-8-8-4.4182 0-8 3.5818-8 8 0 4.4183 3.5818 8 8 8 1.8484 0 3.5456-.633 4.9002-1.6858l5.3927 5.3928A.9966.9966 0 0 0 21 22a.9966.9966 0 0 0 .7071-.293.9996.9996 0 0 0 0-1.414ZM10 16c-3.3084 0-6-2.6916-6-6s2.6916-6 6-6 6 2.6916 6 6-2.6916 6-6 6Z"/>
  <path d="M10.75 9.25V6.5a.75.75 0 0 0-1.5 0v2.75H6a.75.75 0 0 0 0 1.5h3.25v2.75a.75.75 0 0 0 1.5 0v-2.75H14a.75.75 0 0 0 0-1.5h-3.25Z"/>
</svg>
