<?xml version="1.0" encoding="utf-8"?>
<svg xmlns="http://www.w3.org/2000/svg">
<symbol id="accessibility" viewBox="0 0 48 48">
  <path d="M28 8a4 4 0 1 1-8 0 4 4 0 0 1 8 0z"/>
  <path d="M42 12a2 2 0 0 0-2-2 1.941 1.941 0 0 0-.96.278l.009-.005-.014-.025c-4.35 2.376-9.53 3.773-15.035 3.773s-10.685-1.397-15.202-3.857l.167.083-.014.025a1.927 1.927 0 0 0-.949-.273H8a2 2 0 0 0-2 2c.007.745.425 1.39 1.039 1.721l.01.005-.014.025c3.169 1.761 6.855 3.071 10.764 3.722L18 17.5v24.498a2 2 0 1 0 4 0v-12h4v12a2 2 0 1 0 4 0V17.5c4.11-.679 7.796-1.989 11.142-3.84l-.177.09-.014-.025A1.978 1.978 0 0 0 42 11.999v-.001z"/>
</symbol>
<symbol id="arrow-down" viewBox="0 0 48 48">
  <path d="m6.586 23.414 16 16c.362.362.862.586 1.414.586s1.052-.224 1.414-.586l16-16a2 2 0 1 0-2.829-2.828L26 33.171V9.999a2 2 0 1 0-4 0v23.172L9.415 20.586a2 2 0 1 0-2.83 2.827z"/>
</symbol>
<symbol id="arrow-left" viewBox="0 0 48 48">
  <path d="m24.586 6.586-16 16C8.224 22.948 8 23.448 8 24s.224 1.052.586 1.414l16 16a2 2 0 1 0 2.828-2.829L14.829 26h23.172a2 2 0 1 0 0-4H14.829L27.414 9.415a2 2 0 1 0-2.827-2.83z"/>
</symbol>
<symbol id="arrow-right" viewBox="0 0 48 48">
  <path d="m23.414 41.414 16-16c.362-.362.586-.862.586-1.414s-.224-1.052-.586-1.414l-16-16a2 2 0 1 0-2.828 2.829L33.171 22H9.999a2 2 0 1 0 0 4h23.172L20.586 38.585a2 2 0 1 0 2.827 2.829z"/>
</symbol>
<symbol id="arrow-up" viewBox="0 0 48 48">
  <path d="m41.414 24.586-16-16C25.052 8.224 24.552 8 24 8s-1.052.224-1.414.586l-16 16a2 2 0 1 0 2.829 2.828L22 14.829v23.172a2 2 0 1 0 4 0V14.829l12.585 12.585a2 2 0 1 0 2.829-2.827z"/>
</symbol>
<symbol id="bell" viewBox="0 0 48 48">
  <path d="M36 32V22c-.003-5.917-4.291-10.831-9.928-11.81L26 10.18V8a2 2 0 1 0-4 0v2.18c-5.709.989-9.997 5.903-10 11.82v10H8v4h32v-4zM24 42h.001a5.002 5.002 0 0 0 4.893-3.967L28.9 38h-9.8c.482 2.299 2.492 4 4.899 4H24z"/>
</symbol>
<symbol id="bookmark" viewBox="0 0 48 48">
  <path d="M34 4H14a4.004 4.004 0 0 0-4 4v34a1.999 1.999 0 0 0 3.109 1.664l.007-.005.004-.002L24 36l10.88 7.657.004.003.007.004A1.999 1.999 0 0 0 38 42V8a4.004 4.004 0 0 0-4-4Z"/>
</symbol>
<symbol id="calendar" viewBox="0 0 48 48">
  <path d="M40 10h-2V6h-4v4H14V6h-4v4H8a2 2 0 0 0-2 2v28a2 2 0 0 0 2 2h32a2 2 0 0 0 2-2V12a2 2 0 0 0-2-2zm-2 28H10V16h28z"/>
  <path d="M28 20h6v6h-6v-6z"/>
</symbol>
<symbol id="caret-down" viewBox="0 0 48 48">
  <path d="m6.586 17.414 16 16c.362.362.862.585 1.414.585s1.053-.224 1.415-.587l15.998-15.998A2 2 0 0 0 40 13.999H8a2 2 0 0 0-1.414 3.414z"/>
</symbol>
<symbol id="caret-left" viewBox="0 0 48 48">
  <path d="m30.586 6.586-16 16c-.362.362-.585.862-.585 1.414s.224 1.053.587 1.415l15.998 15.998A2 2 0 0 0 34.001 40V8a2 2 0 0 0-3.414-1.414z"/>
</symbol>
<symbol id="caret-right" viewBox="0 0 48 48">
  <path d="m17.414 41.414 16-16c.362-.362.585-.862.585-1.414s-.224-1.053-.587-1.415L17.414 6.587A2 2 0 0 0 13.999 8v32a2 2 0 0 0 3.414 1.414z"/>
</symbol>
<symbol id="caret-up" viewBox="0 0 48 48">
  <path d="m41.414 30.586-16-16c-.362-.362-.862-.585-1.414-.585s-1.053.224-1.415.587L6.587 30.586A2 2 0 0 0 8 34.001h32a2 2 0 0 0 1.414-3.414z"/>
</symbol>
<symbol id="checkbox-checked" viewBox="0 0 48 48">
  <path d="M36 8H12a4 4 0 0 0-4 4v24a4 4 0 0 0 4 4h24a4 4 0 0 0 4-4V12a4 4 0 0 0-4-4zm-1.587 11.415L21 32.829l-7.413-7.414a2 2 0 1 1 2.827-2.829L21 27.172l10.585-10.585a2 2 0 1 1 2.829 2.827l-.001.001z"/>
</symbol>
<symbol id="checkbox-unchecked" viewBox="0 0 48 48">
  <path d="M36 12v24H12V12h24zm0-4H12a4 4 0 0 0-4 4v24a4 4 0 0 0 4 4h24a4 4 0 0 0 4-4V12a4 4 0 0 0-4-4z"/>
</symbol>
<symbol id="chevron-down" viewBox="0 0 48 48">
  <path d="m6.589 17.416 15.995 15.995c.362.364.863.589 1.416.589s1.053-.224 1.415-.587l15.998-15.998a2 2 0 1 0-2.827-2.829L24 29.172 9.414 14.586a2 2 0 1 0-2.826 2.829l.001.001z"/>
</symbol>
<symbol id="chevron-left" viewBox="0 0 48 48">
  <path d="M30.584 6.589 14.589 22.584c-.364.362-.589.863-.589 1.416s.224 1.053.587 1.415l15.998 15.998a2 2 0 1 0 2.829-2.827L18.828 24 33.414 9.414a2 2 0 1 0-2.829-2.826l-.001.001z"/>
</symbol>
<symbol id="chevron-right" viewBox="0 0 48 48">
  <path d="m17.416 41.411 15.995-15.995c.364-.362.589-.863.589-1.416s-.224-1.053-.587-1.415L17.415 6.587a2 2 0 1 0-2.829 2.827L29.172 24 14.586 38.586a2 2 0 1 0 2.829 2.826l.001-.001z"/>
</symbol>
<symbol id="chevron-up" viewBox="0 0 48 48">
  <path d="M41.411 30.584 25.416 14.589C25.054 14.225 24.553 14 24 14s-1.053.224-1.415.587L6.587 30.585a2 2 0 1 0 2.827 2.829L24 18.828l14.586 14.586a2 2 0 1 0 2.826-2.829l-.001-.001z"/>
</symbol>
<symbol id="close" viewBox="0 0 48 48">
  <path d="M43.413 40.585 26.828 24 43.414 7.414a2 2 0 1 0-2.83-2.825L23.999 21.173 7.414 4.588a2 2 0 1 0-2.829 2.827l16.586 16.586L4.588 40.584a2 2 0 1 0 2.825 2.831l.001-.001L24 26.828l16.585 16.585a2 2 0 1 0 2.827-2.829h-.001z"/>
</symbol>
<symbol id="confirm" viewBox="0 0 48 48">
  <path d="M24 4C12.954 4 4 12.954 4 24s8.954 20 20 20 20-8.954 20-20S35.046 4 24 4zm10.413 15.415L21 32.829l-7.413-7.414a2 2 0 1 1 2.827-2.829L21 27.172l10.585-10.585a2 2 0 1 1 2.829 2.827l-.001.001z"/>
</symbol>
<symbol id="delete" viewBox="0 0 48 48">
  <path d="M11 40a4 4 0 0 0 4 4h18a4 4 0 0 0 4-4V12H11zM39 6h-8l-2-2H19l-2 2H9a2 2 0 1 0 0 4h30a2 2 0 1 0 0-4z"/>
</symbol>
<symbol id="disabled" viewBox="0 0 48 48">
  <path d="M24 6C14.059 6 6 14.059 6 24s8.059 18 18 18 18-8.059 18-18S33.941 6 24 6zM10 24a13.85 13.85 0 0 1 2.829-8.404l-.025.034 19.565 19.566a13.873 13.873 0 0 1-8.395 2.803c-7.717 0-13.973-6.256-13.973-13.973v-.028.001zm25.196 8.369L15.631 12.803A13.871 13.871 0 0 1 24.026 10c7.717 0 13.973 6.256 13.973 13.973 0 3.167-1.053 6.087-2.829 8.43l.025-.035z"/>
</symbol>
<symbol id="double-chevron-down" viewBox="0 0 48 48">
  <path d="m6.586 11.414 16 16c.362.362.862.585 1.414.585s1.052-.224 1.414-.585l16-16a2 2 0 1 0-2.829-2.827v.001L24.001 23.173 9.416 8.588a2 2 0 1 0-2.83 2.826z"/>
  <path d="M40 20h-.002c-.552 0-1.052.225-1.413.588L24 35.173 9.415 20.588a2 2 0 1 0-2.83 2.826l16 16c.362.362.862.585 1.414.585s1.052-.224 1.414-.585l16-16A2 2 0 0 0 39.999 20z"/>
</symbol>
<symbol id="double-chevron-left" viewBox="0 0 48 48">
  <path d="m36.586 6.586-16 16c-.362.362-.585.862-.585 1.414s.224 1.052.585 1.414l16 16a2 2 0 1 0 2.827-2.829h-.001L24.827 24.001 39.412 9.416a2 2 0 1 0-2.826-2.83z"/>
  <path d="M28 40v-.002c0-.552-.225-1.052-.588-1.413L12.827 24 27.412 9.415a2 2 0 1 0-2.826-2.83l-16 16c-.362.362-.585.862-.585 1.414s.224 1.052.585 1.414l16 16A2 2 0 0 0 28 39.999z"/>
</symbol>
<symbol id="double-chevron-right" viewBox="0 0 48 48">
  <path d="m11.414 41.414 16-16c.362-.362.585-.862.585-1.414s-.224-1.052-.585-1.414l-16-16a2 2 0 1 0-2.827 2.829h.001l14.585 14.584L8.588 38.584a2 2 0 1 0 2.826 2.83z"/>
  <path d="M20 8v.002c0 .552.225 1.052.588 1.413L35.173 24 20.588 38.585a2 2 0 1 0 2.826 2.83l16-16c.362-.362.585-.862.585-1.414s-.224-1.052-.585-1.414l-16-16A2 2 0 0 0 20 8.001z"/>
</symbol>
<symbol id="double-chevron-up" viewBox="0 0 48 48">
  <path d="m41.414 36.586-16-16c-.362-.362-.862-.585-1.414-.585s-1.052.224-1.414.585l-16 16a2 2 0 1 0 2.829 2.827v-.001l14.584-14.585 14.585 14.585a2 2 0 1 0 2.83-2.826z"/>
  <path d="M8 28h.002c.552 0 1.052-.225 1.413-.588L24 12.827l14.585 14.585a2 2 0 1 0 2.83-2.826l-16-16c-.362-.362-.862-.585-1.414-.585s-1.052.224-1.414.585l-16 16A2 2 0 0 0 8.001 28z"/>
</symbol>
<symbol id="edit" viewBox="0 0 48 48">
  <path d="M4 36.5V44h7.5l26.254-26.254-7.5-7.5zm39.415-24.415a1.988 1.988 0 0 0 0-2.82l-4.68-4.68a1.988 1.988 0 0 0-2.82 0l-4.247 4.247 7.5 7.5z"/>
</symbol>
<symbol id="facebook" viewBox="0 0 48 48">
  <path d="m32.377 26.25 1-6.515h-6.252v-4.228a3.258 3.258 0 0 1 3.691-3.519l-.017-.002h2.841V6.439a33.533 33.533 0 0 0-5.019-.44h-.025c-5.148 0-8.513 3.12-8.513 8.769v4.965h-5.722v6.515h5.723v15.75h7.043v-15.75z"/>
</symbol>
<symbol id="github" viewBox="0 0 48 48">
  <path d="M24 0h-.014C10.739 0 0 10.739 0 23.986c0 11.141 7.596 20.508 17.891 23.205l.167.037c1.786.476 3.837.75 5.952.75 13.249 0 23.989-10.74 23.989-23.989S37.259 0 24.01 0h-.011H24zm-5.357 42.672a2288.36 2288.36 0 0 1-.016-4.418l-.647.115a7.886 7.886 0 0 1-1.573.099h.014a11.65 11.65 0 0 1-2.028-.214l.073.012a4.312 4.312 0 0 1-1.893-.871l.008.007a3.668 3.668 0 0 1-1.23-1.747l-.007-.026-.281-.663a7.185 7.185 0 0 0-.898-1.486l.012.016a3.443 3.443 0 0 0-1.205-1.086l-.018-.009-.197-.145a2.043 2.043 0 0 1-.363-.343l-.003-.003a1.598 1.598 0 0 1-.249-.393l-.004-.01q-.085-.202.14-.332a1.753 1.753 0 0 1 .822-.128h-.006l.562.086c.533.149.998.387 1.402.699l-.009-.007c.56.395 1.017.896 1.352 1.476l.012.022c.38.729.907 1.333 1.546 1.792l.015.01a3.23 3.23 0 0 0 1.838.62h.004l.108.001c.529 0 1.045-.053 1.545-.153l-.05.008a5.528 5.528 0 0 0 1.298-.447l-.032.014a4.707 4.707 0 0 1 1.378-2.969 18.914 18.914 0 0 1-3.015-.549l.132.03a11.296 11.296 0 0 1-2.696-1.154l.052.029a7.658 7.658 0 0 1-2.252-1.916l-.012-.016a9.28 9.28 0 0 1-1.46-2.961l-.016-.066a14.405 14.405 0 0 1-.576-4.337v.013a8.496 8.496 0 0 1 2.228-5.947l-.006.007a7.77 7.77 0 0 1-.472-2.694c0-1.153.246-2.248.688-3.236l-.02.05a3.838 3.838 0 0 1 2.44.399l-.021-.01c.917.352 1.691.725 2.428 1.153l-.08-.043q.745.46 1.195.778c1.618-.476 3.477-.749 5.4-.749s3.782.274 5.54.784l-.14-.035 1.069-.692a14.497 14.497 0 0 1 2.485-1.234l.102-.035a3.558 3.558 0 0 1 1.61-.38c.237 0 .468.023.692.066l-.023-.004c.436.946.69 2.052.69 3.218 0 .955-.17 1.87-.482 2.716l.018-.054a8.495 8.495 0 0 1 2.224 5.744l-.002.206v-.01l.002.228c0 1.464-.211 2.879-.605 4.216l.027-.105a9.024 9.024 0 0 1-1.506 3.05l.016-.022a7.968 7.968 0 0 1-2.24 1.897l-.039.02c-.76.453-1.637.836-2.564 1.105l-.08.02c-.819.226-1.798.409-2.802.513l-.081.007a5.188 5.188 0 0 1 1.461 4.114l.001-.02v6.375c-1.608.49-3.457.772-5.371.772-1.909 0-3.753-.281-5.492-.803l.135.035z"/>
</symbol>
<symbol id="grid" viewBox="0 0 48 48">
  <path d="M6 4h14a2 2 0 0 1 2 2v14a2 2 0 0 1-2 2H6a2 2 0 0 1-2-2V6a2 2 0 0 1 2-2zm22 0h14a2 2 0 0 1 2 2v14a2 2 0 0 1-2 2H28a2 2 0 0 1-2-2V6a2 2 0 0 1 2-2zM6 26h14a2 2 0 0 1 2 2v14a2 2 0 0 1-2 2H6a2 2 0 0 1-2-2V28a2 2 0 0 1 2-2zm22 0h14a2 2 0 0 1 2 2v14a2 2 0 0 1-2 2H28a2 2 0 0 1-2-2V28a2 2 0 0 1 2-2z"/>
</symbol>
<symbol id="hashtag" viewBox="0 0 48 48">
  <path d="M41 20a3 3 0 1 0 0-6h-5.086l1.007-4.318-.006-.002a2.994 2.994 0 0 0-5.827-1.381l-.004.02-.006-.001-1.326 5.681h-7.838l1.007-4.318-.006-.002a2.994 2.994 0 0 0-5.827-1.381l-.004.02-.006-.001-1.326 5.681H9a3 3 0 1 0 0 6h5.352l-1.867 8H6.999a3 3 0 1 0 0 6h4.086l-1.007 4.318.006.001a2.994 2.994 0 0 0 5.827 1.381l.004-.02.006.001 1.326-5.681h7.838l-1.007 4.318.006.001a2.994 2.994 0 0 0 5.827 1.381l.004-.02.006.001 1.326-5.681h7.752a3 3 0 1 0 0-6h-6.352l1.867-8zm-14.514 8h-7.838l1.867-8h7.838z"/>
</symbol>
<symbol id="heart" viewBox="0 0 48 48">
  <path d="M42.212 7.742A12.947 12.947 0 0 0 33.091 4c-3.541 0-6.75 1.417-9.093 3.715L24 7.713A12.942 12.942 0 0 0 14.909 4a12.944 12.944 0 0 0-9.122 3.744l.001-.001A12.623 12.623 0 0 0 2 16.775v.027-.001a12.823 12.823 0 0 0 3.77 9.04c4.2 4.271 16.654 17.404 16.78 17.537h.01c.361.384.872.623 1.439.623s1.079-.239 1.439-.622l.001-.001h.012c.125-.133 12.576-13.262 16.775-17.531A12.83 12.83 0 0 0 46 16.805v-.029c0-3.536-1.449-6.733-3.786-9.031l-.002-.002z"/>
</symbol>
<symbol id="home" viewBox="0 0 48 48">
  <path d="M8 28v14a2 2 0 0 0 2 2h8a2 2 0 0 0 2-2V30h8v12a2 2 0 0 0 2 2h8a2 2 0 0 0 2-2V28L24 12z"/>
  <path d="M43.413 22.585 42 21.172V8h-8v5.172l-8.585-8.585A1.991 1.991 0 0 0 24 4c-.554 0-1.055.225-1.417.589L4.589 22.583a2 2 0 1 0 2.825 2.831l.001-.001L24.001 8.827l16.585 16.585a2 2 0 1 0 2.827-2.829h-.001z"/>
</symbol>
<symbol id="info" viewBox="0 0 48 48">
  <path d="M24 6C14.059 6 6 14.059 6 24s8.059 18 18 18 18-8.059 18-18S33.941 6 24 6zm.828 28.01h-4.482l2.774-14.344h4.482zm3.165-16.334h-4.482l.701-3.697h4.482z"/>
</symbol>
<symbol id="instagram" viewBox="0 0 48 48">
  <path d="M24.004 13.745h-.002c-5.664 0-10.255 4.591-10.255 10.255s4.591 10.255 10.255 10.255c5.664 0 10.255-4.591 10.255-10.255v-.017c0-5.654-4.584-10.238-10.238-10.238h-.016.001zm0 16.922h-.001A6.667 6.667 0 1 1 30.67 24a6.678 6.678 0 0 1-6.665 6.667h-.001zm13.065-17.342a2.391 2.391 0 1 1-2.392-2.393h.005a2.386 2.386 0 0 1 2.386 2.386v.006zm6.791 2.428a11.801 11.801 0 0 0-3.235-8.387l.005.006a11.867 11.867 0 0 0-8.159-3.233l-.233.002h.012c-3.302-.187-13.198-.187-16.5 0-.071-.002-.154-.002-.237-.002-3.154 0-6.02 1.227-8.149 3.23l.006-.006a11.83 11.83 0 0 0-3.229 8.394v-.012c-.187 3.303-.187 13.201 0 16.503a11.801 11.801 0 0 0 3.235 8.387l-.005-.006a11.877 11.877 0 0 0 8.165 3.233l.226-.002h-.011c3.302.187 13.198.187 16.5 0a11.79 11.79 0 0 0 8.385-3.236l-.005.005a11.87 11.87 0 0 0 3.232-8.16l-.002-.233v.012c.187-3.302.187-13.192 0-16.494zm-4.266 20.038a6.788 6.788 0 0 1-3.756 3.786l-.045.016c-2.633 1.044-8.88.803-11.788.803s-9.164.232-11.788-.803a6.788 6.788 0 0 1-3.785-3.757l-.016-.045c-1.044-2.633-.803-8.88-.803-11.791s-.232-9.167.803-11.791a6.788 6.788 0 0 1 3.756-3.786l.045-.016c2.632-1.044 8.88-.803 11.788-.803s9.165-.232 11.788.803a6.788 6.788 0 0 1 3.785 3.757l.016.045c1.044 2.633.803 8.88.803 11.791s.241 9.167-.803 11.791z"/>
</symbol>
<symbol id="language" viewBox="0 0 48 48">
  <path d="M8.444 12.019.1 35.977h4.926l1.575-5.094h8.645l1.608 5.094h5.06L13.47 12.019zM7.74 27.164l2.144-6.904c.402-1.273 1.006-3.686 1.006-3.686h.066s.57 2.413.972 3.686l2.145 6.904zM46 12H34.828l-5.412-5.412a2 2 0 1 0-2.831 2.825L29.171 12H22a2 2 0 1 0 0 4h2a21.895 21.895 0 0 0 6.487 15.448l.001.001A6.66 6.66 0 0 1 28.01 32H28a2 2 0 1 0 0 4 11.93 11.93 0 0 0 6.048-1.869L34 34.16a11.843 11.843 0 0 0 5.98 1.839L40 36a2 2 0 1 0 0-4 6.769 6.769 0 0 1-2.532-.568l.044.017A21.887 21.887 0 0 0 44 16.007V16h2a2 2 0 1 0 0-4zM34 29.225c-3.657-3.259-5.961-7.969-6-13.218V16h12a17.823 17.823 0 0 1-5.982 13.209l-.018.016z"/>
</symbol>
<symbol id="lightbulb" viewBox="0 0 48 48">
  <path d="M24 44a5.001 5.001 0 0 0 4.9-4h-9.8a5.001 5.001 0 0 0 4.9 4Zm0-40a13.991 13.991 0 0 0-6 26.635V36a2 2 0 0 0 2 2h8a2 2 0 0 0 2-2v-5.365A13.991 13.991 0 0 0 24 4Zm8 15a1 1 0 0 1-1-1 7.008 7.008 0 0 0-7-7 1 1 0 0 1 0-2 9.01 9.01 0 0 1 9 9 1 1 0 0 1-1 1Z"/>
</symbol>
<symbol id="linkedin" viewBox="0 0 48 48">
  <path d="M12.953 44H4.66V17.294h8.293zM8.802 13.651H8.78a4.825 4.825 0 1 1 4.825-4.849v.007a4.843 4.843 0 0 1-4.801 4.843h-.002zM43.992 44h-8.275V31c0-3.098-.063-7.072-4.312-7.072-4.312 0-4.973 3.366-4.973 6.848v13.223h-8.284V17.293h7.954v3.643h.116c1.54-2.601 4.331-4.319 7.524-4.319.113 0 .226.002.339.006h-.016c8.393 0 9.935 5.527 9.935 12.706v14.67z"/>
</symbol>
<symbol id="list" viewBox="0 0 48 48">
  <path d="M14 8A6 6 0 1 1 2 8a6 6 0 0 1 12 0zm0 16a6 6 0 1 1-12 0 6 6 0 0 1 12 0zm0 16a6 6 0 1 1-12 0 6 6 0 0 1 12 0zm6-36h24a2 2 0 0 1 2 2v4a2 2 0 0 1-2 2H20a2 2 0 0 1-2-2V6a2 2 0 0 1 2-2zm0 16h24a2 2 0 0 1 2 2v4a2 2 0 0 1-2 2H20a2 2 0 0 1-2-2v-4a2 2 0 0 1 2-2zm0 16h24a2 2 0 0 1 2 2v4a2 2 0 0 1-2 2H20a2 2 0 0 1-2-2v-4a2 2 0 0 1 2-2z"/>
</symbol>
<symbol id="loading" viewBox="0 0 48 48">
  <path d="M48 24a5 5 0 1 1-10.001-.001A5 5 0 0 1 48 24zM8 24a3 3 0 1 1-6 0 3 3 0 0 1 6 0zM40.971 7.029a5 5 0 1 0 0 7.07c.905-.905 1.464-2.155 1.464-3.536s-.56-2.631-1.464-3.536zM12.565 37.435a2 2 0 1 1-3.999.001 2 2 0 0 1 3.999-.001zM29 5a5 5 0 1 1-10.001-.001A5 5 0 0 1 29 5zm-4 38a1 1 0 1 1-2 0 1 1 0 0 1 2 0zM14.565 10.565a4 4 0 1 1-8 0 4 4 0 0 1 8 0z"/>
</symbol>
<symbol id="mail" viewBox="0 0 48 48">
  <path d="M44 10H4a2 2 0 0 0-2 2v24a2 2 0 0 0 2 2h40a2 2 0 0 0 2-2V12a2 2 0 0 0-2-2zm-1.445 4.833L24 27.202 5.445 14.833a1 1 0 1 1 1.113-1.662l-.003-.002L24 24.8l17.445-11.631a1 1 0 1 1 1.113 1.662l-.004.002z"/>
</symbol>
<symbol id="map-pin" viewBox="0 0 48 48">
  <path d="M36 18v-.003c0-6.627-5.373-12-12-12s-12 5.373-12 12c0 2.211.598 4.283 1.641 6.062l-.031-.057-.002-.001L24 42l10.389-17.999A11.81 11.81 0 0 0 36 18.012v-.013V18zm-12 6a6 6 0 1 1 6-6 6 6 0 0 1-6 6z"/>
</symbol>
<symbol id="menu" viewBox="0 0 48 48">
  <path d="M2 10h44a2 2 0 1 0 0-4H2a2 2 0 1 0 0 4zm44 12H2a2 2 0 1 0 0 4h44a2 2 0 1 0 0-4zm0 16H2a2 2 0 1 0 0 4h44a2 2 0 1 0 0-4z"/>
</symbol>
<symbol id="minus" viewBox="0 0 48 48">
  <path d="M10 22h28v4H10v-4z"/>
  <path d="M12 24a2 2 0 1 1-3.999.001A2 2 0 0 1 12 24zm28 0a2 2 0 1 1-3.999.001A2 2 0 0 1 40 24z"/>
</symbol>
<symbol id="mobile" viewBox="0 0 48 48">
  <path d="M32.468 2h-18a4 4 0 0 0-4 4v36a4 4 0 0 0 4 4h18a4 4 0 0 0 4-4V6a4 4 0 0 0-4-4zm0 40h-18V6h18z"/>
</symbol>
<symbol id="more-horizontal" viewBox="0 0 48 48">
  <path d="M42 30a6 6 0 1 1 0-12 6 6 0 0 1 0 12zm-18 0a6 6 0 1 1 0-12 6 6 0 0 1 0 12zM6 30a6 6 0 1 1 0-12 6 6 0 0 1 0 12z"/>
</symbol>
<symbol id="more-vertical" viewBox="0 0 48 48">
  <path d="M30 6a6 6 0 1 1-12 0 6 6 0 0 1 12 0zm0 18a6 6 0 1 1-12 0 6 6 0 0 1 12 0zm0 18a6 6 0 1 1-12 0 6 6 0 0 1 12 0z"/>
</symbol>
<symbol id="npm" viewBox="0 0 48 48">
  <path d="M24 25.333h-2.667V20H24zm24-10.666v16H24v2.667H13.333v-2.667H0v-16zm-34.667 2.666H2.666V28h5.333v-8h2.667v8h2.667zm13.334 0H16v13.333h5.333v-2.667h5.333zm18.666 0h-16V28h5.333v-8h2.667v8H40v-8h2.667v8h2.667z"/>
</symbol>
<symbol id="page-end" viewBox="0 0 48 48">
  <path d="M8.586 38.586 23.171 24 8.585 9.414a2 2 0 1 1 2.83-2.826l.001.001 15.996 15.996c.364.362.588.863.588 1.416s-.224 1.053-.587 1.415L11.415 41.414a2 2 0 1 1-2.829-2.827zM36 8a2 2 0 1 1 4 0v32a2 2 0 1 1-4 0V8z"/>
</symbol>
<symbol id="page-start" viewBox="0 0 48 48">
  <path d="M39.414 38.586 24.829 24 39.415 9.414a2 2 0 1 0-2.83-2.826l-.001.001-15.996 15.996c-.364.362-.588.863-.588 1.416s.224 1.053.587 1.415l15.998 15.998a2 2 0 1 0 2.829-2.827zM12 8a2 2 0 1 0-4 0v32a2 2 0 1 0 4 0V8z"/>
</symbol>
<symbol id="parking" viewBox="0 0 48 48">
  <path d="M42 2H6a4 4 0 0 0-4 4v36a4 4 0 0 0 4 4h36a4 4 0 0 0 4-4V6a4 4 0 0 0-4-4zM26.73 28.621h-6.513v9.32h-7.02V10.057h12.559a10.543 10.543 0 0 1 7.618 2.585l-.013-.011a9.137 9.137 0 0 1 2.807 6.878v-.013a8.807 8.807 0 0 1-9.468 9.123l.029.002z"/>
  <path d="M25.326 15.867h-5.108v7.293h5.108a3.517 3.517 0 0 0 3.899-3.713v.01a3.453 3.453 0 0 0-3.918-3.587l.018-.002z"/>
</symbol>
<symbol id="people" viewBox="0 0 48 48">
  <path d="M22 20a6 6 0 1 1-12 0 6 6 0 0 1 12 0zm16-6a6 6 0 1 1-12 0 6 6 0 0 1 12 0z"/>
  <path d="M32 22c-5.523 0-10 2.686-10 6v1.227c-1.727-.776-3.744-1.228-5.867-1.228l-.141.001h.007c-5.523 0-10 2.686-10 6v4a2 2 0 0 0 2 2h16a2 2 0 0 0 2-2v-4h14a2 2 0 0 0 2-2v-4c0-3.314-4.477-6-10-6z"/>
</symbol>
<symbol id="person" viewBox="0 0 48 48">
  <path d="M33 13c0 4.971-4.029 9-9 9s-9-4.029-9-9 4.029-9 9-9 9 4.029 9 9zm-9 13c-9.941 0-18 4.477-18 10v6a2 2 0 0 0 2 2h32a2 2 0 0 0 2-2v-6c0-5.523-8.059-10-18-10z"/>
</symbol>
<symbol id="plus" viewBox="0 0 48 48">
  <path d="M38 22H26V10a2 2 0 1 0-4 0v12H10a2 2 0 1 0 0 4h12v12a2 2 0 1 0 4 0V26h12a2 2 0 1 0 0-4z"/>
</symbol>
<symbol id="print" viewBox="0 0 48 48">
  <path d="M36 6a2 2 0 0 0-2-2H14a2 2 0 0 0-2 2v6h24zm4 8H8a4 4 0 0 0-4 4v14a2 2 0 0 0 2 2h6v10h24V34h6a2 2 0 0 0 2-2V18a4 4 0 0 0-4-4zm-6 20v8H14V26h20zm4-12a2 2 0 1 1 2-2 2 2 0 0 1-2 2z"/>
</symbol>
<symbol id="question-mark" viewBox="0 0 48 48">
  <path d="M24 6C14.059 6 6 14.059 6 24s8.059 18 18 18 18-8.059 18-18S33.941 6 24 6zm1.951 28.01H21.16v-4.707h4.791zm2.577-10.143a11.259 11.259 0 0 0-2.36 1.688l.007-.006a2.75 2.75 0 0 0-.531 1.915l-.001-.011h-4.034a4.733 4.733 0 0 1 1.92-4.668l.014-.01c1.232-1.148 2.829-1.568 2.829-3.277a2.142 2.142 0 0 0-2.39-2.101l.01-.001a2.676 2.676 0 0 0-2.829 2.894l-.001-.01h-4.511c.084-3.949 2.857-6.666 7.536-6.666 4.174 0 6.976 2.326 6.976 5.715a4.931 4.931 0 0 1-2.607 4.524l-.026.013z"/>
</symbol>
<symbol id="radio-checked" viewBox="0 0 48 48">
  <path d="M24 6C14.059 6 6 14.059 6 24s8.059 18 18 18 18-8.059 18-18S33.941 6 24 6zm0 32c-7.732 0-14-6.268-14-14s6.268-14 14-14 14 6.268 14 14c-.009 7.728-6.272 13.991-13.999 14H24z"/>
  <path d="M33 24c0 4.971-4.029 9-9 9s-9-4.029-9-9 4.029-9 9-9 9 4.029 9 9z"/>
</symbol>
<symbol id="radio-unchecked" viewBox="0 0 48 48">
  <path d="M24 10c7.732 0 14 6.268 14 14s-6.268 14-14 14-14-6.268-14-14c.009-7.728 6.272-13.991 13.999-14H24zm0-4C14.059 6 6 14.059 6 24s8.059 18 18 18 18-8.059 18-18S33.941 6 24 6z"/>
</symbol>
<symbol id="search" viewBox="0 0 48 48">
  <path d="M43.413 40.585 32.628 29.8A15.93 15.93 0 0 0 36 19.963c0-8.857-7.18-16.037-16.037-16.037S3.926 11.106 3.926 19.963 11.106 36 19.963 36a15.97 15.97 0 0 0 9.873-3.398l-.035.027 10.785 10.785a2 2 0 1 0 2.829-2.827l-.001-.001zM20 32c-6.627 0-12-5.373-12-12S13.373 8 20 8s12 5.373 12 12c-.008 6.624-5.376 11.992-11.999 12H20z"/>
</symbol>
<symbol id="settings" viewBox="0 0 48 48">
  <path d="M44 20h-2.461a17.84 17.84 0 0 0-2.355-5.641l.043.072 1.744-1.744c.362-.362.586-.862.586-1.414s-.224-1.052-.586-1.414L38.143 7.03c-.362-.362-.862-.586-1.414-.586s-1.052.224-1.414.586l-1.744 1.744a17.607 17.607 0 0 0-5.45-2.289L28 6.461V4a2 2 0 0 0-2-2h-4a2 2 0 0 0-2 2v2.461a17.84 17.84 0 0 0-5.641 2.355l.072-.043-1.744-1.744c-.362-.362-.862-.586-1.414-.586s-1.052.224-1.414.586L7.03 9.857c-.362.362-.586.862-.586 1.414s.224 1.052.586 1.414l1.744 1.744a17.607 17.607 0 0 0-2.289 5.45L6.461 20H4a2 2 0 0 0-2 2v4a2 2 0 0 0 2 2h2.461a17.84 17.84 0 0 0 2.355 5.641l-.043-.072-1.744 1.744c-.362.362-.586.862-.586 1.414s.224 1.052.586 1.414l2.828 2.828c.362.362.862.586 1.414.586s1.052-.224 1.414-.586l1.744-1.744a17.585 17.585 0 0 0 5.45 2.29l.121.024V44a2 2 0 0 0 2 2h4a2 2 0 0 0 2-2v-2.461a17.84 17.84 0 0 0 5.641-2.355l-.072.043 1.744 1.744c.362.362.862.586 1.414.586s1.052-.224 1.414-.586l2.828-2.828c.362-.362.586-.862.586-1.414s-.224-1.052-.586-1.414l-1.744-1.744a17.585 17.585 0 0 0 2.29-5.45l.024-.121H44a2 2 0 0 0 2-2v-4a2 2 0 0 0-2-2zM24 32a8 8 0 1 1 8-8 8 8 0 0 1-8 8z"/>
</symbol>
<symbol id="shopping-cart" viewBox="0 0 48 48">
  <path d="M36 28a2 2 0 0 0 1.831-1.199l.005-.013h.001l.002-.004.005-.011 5.994-13.986a1.997 1.997 0 0 0-1.834-2.788H14.84l-.879-4.393-.048-.04a1.974 1.974 0 0 0-1.912-1.567H6a2 2 0 1 0 0 4h4.36l3.544 17.719-3.693 7.387.007.011a1.962 1.962 0 0 0 1.746 2.856h.02-.001L12 36h24a2 2 0 1 0 0-4H15.236l2-4zm2 13a3 3 0 1 1-6 0 3 3 0 0 1 6 0zm-22 0a3 3 0 1 1-6 0 3 3 0 0 1 6 0z"/>
</symbol>
<symbol id="shrink" viewBox="0 0 48 48">
  <path d="M18 4a2 2 0 0 0-2 2v7.171L5.414 2.585a2 2 0 1 0-2.825 2.831L13.172 16H6a2 2 0 1 0 0 4h12a2 2 0 0 0 2-2V6a2 2 0 0 0-2-2zm12 16h12a2 2 0 1 0 0-4h-7.172L45.411 5.417a2 2 0 1 0-2.825-2.831l-.001.001-10.586 10.585V6.001a2 2 0 1 0-4 0v12a2 2 0 0 0 2 2zm-12 8H6a2 2 0 1 0 0 4h7.172L2.586 42.586a2 2 0 1 0 2.829 2.827l.001-.001 10.585-10.585V42a2 2 0 1 0 4 0V30a2 2 0 0 0-2-2zm27.414 14.586L34.828 32H42a2 2 0 1 0 0-4H30a2 2 0 0 0-2 2v12a2 2 0 1 0 4 0v-7.173L42.583 45.41a2 2 0 1 0 2.831-2.825l-.001-.001z"/>
</symbol>
<symbol id="star-fill-half" viewBox="0 0 48 48">
  <path d="M45.251 19.524c.453-.359.742-.907.749-1.523V18a2 2 0 0 0-2-2H29.688L25.916 3.425h-.032A1.978 1.978 0 0 0 24.001 2h-.005c-.228 0-.446.039-.649.112l.014-.004c-.018.006-.032.02-.05.027-.19.071-.354.162-.502.275l.005-.003c-.021.016-.034.04-.054.057a2.07 2.07 0 0 0-.367.388l-.004.006c-.033.049-.048.109-.078.161-.074.117-.14.251-.191.392l-.005.014h-.032L18.312 16H4a2 2 0 0 0-2 2c.015.492.216.935.535 1.262.068.098.139.184.215.264l-.001-.001-.009.027 11.664 9.477-4.32 14.397.028.018a1.873 1.873 0 0 0-.111.552v.005a2 2 0 0 0 2 2c.409-.011.784-.15 1.087-.378l-.005.003c.049-.034.108-.054.155-.092l.024.019.02-.016.012-.01 10.707-8.7 10.74 8.726.023-.018a1.95 1.95 0 0 0 1.235.466h.002a2 2 0 0 0 2-2 1.92 1.92 0 0 0-.117-.569l.004.013.028-.019-4.32-14.397 11.664-9.477zM31.705 26.7l-1.559 1.267 3.962 13.207-10.109-8.213V7.481l3.456 11.52h13.726z"/>
</symbol>
<symbol id="star-fill" viewBox="0 0 48 48">
  <path d="M46 18a2 2 0 0 0-2-2H29.689L25.917 3.427h-.032C25.646 2.597 24.893 2 24.001 2s-1.645.597-1.881 1.413l-.003.014h-.031L18.314 16H4.002a2 2 0 0 0-2 2c.007.617.296 1.166.746 1.522l.004.003-.01.029 11.664 9.477-4.319 14.396.028.018a1.898 1.898 0 0 0-.112.55V44a2 2 0 0 0 2 2 1.952 1.952 0 0 0 1.239-.468l-.003.002.025.02.02-.016.012-.01 10.707-8.701 10.74 8.726.025-.02c.331.283.762.458 1.234.467h.002a2 2 0 0 0 2-2 1.945 1.945 0 0 0-.116-.568l.004.013.028-.019-4.319-14.396 11.664-9.477-.01-.029c.453-.359.743-.907.749-1.523V18z"/>
</symbol>
<symbol id="switch-off" viewBox="0 0 48 48">
  <path d="M34 10H14C6.268 10 0 16.268 0 24s6.268 14 14 14h20c7.732 0 14-6.268 14-14s-6.268-14-14-14zM14 34C8.477 34 4 29.523 4 24s4.477-10 10-10 10 4.477 10 10-4.477 10-10 10z"/>
</symbol>
<symbol id="switch-on" viewBox="0 0 48 48">
  <path d="M14 10h20c7.732 0 14 6.268 14 14s-6.268 14-14 14H14C6.268 38 0 31.732 0 24s6.268-14 14-14zm20 24c5.523 0 10-4.477 10-10s-4.477-10-10-10-10 4.477-10 10 4.477 10 10 10z"/>
</symbol>
<symbol id="twitter" viewBox="0 0 48 48">
  <path d="M41.606 14.972c.028.394.028.788.028 1.181l.001.178c0 14.177-11.493 25.67-25.67 25.67L15.778 42h.01-.067c-5.157 0-9.96-1.521-13.983-4.139l.099.061a18.2 18.2 0 0 0 2.058.113l.143-.001h-.007.046a18.12 18.12 0 0 0 11.27-3.91l-.038.029a9.106 9.106 0 0 1-8.475-6.236l-.018-.064c.513.085 1.107.136 1.712.14h.004a9.614 9.614 0 0 0 2.458-.325l-.067.015c-4.185-.869-7.285-4.525-7.285-8.905v-.01.001-.113a9.028 9.028 0 0 0 4.089 1.153l.018.001c-2.456-1.655-4.05-4.426-4.05-7.569 0-1.688.46-3.268 1.26-4.623l-.023.042c4.501 5.509 11.16 9.11 18.668 9.504l.064.003a9.971 9.971 0 0 1-.225-2.078v-.003a9.093 9.093 0 0 1 15.718-6.221l.004.005a17.854 17.854 0 0 0 5.846-2.239l-.08.045a9.111 9.111 0 0 1-3.953 4.983l-.041.023a18.187 18.187 0 0 0 5.347-1.452l-.116.046a19.684 19.684 0 0 1-4.503 4.659l-.053.038z"/>
</symbol>
<symbol id="upload" viewBox="0 0 48 48">
  <path d="m41.414 28.586-16-16C25.052 12.224 24.552 12 24 12s-1.052.224-1.414.586l-15.999 16a2 2 0 1 0 2.827 2.829L22 18.829v23.172a2 2 0 1 0 4 0V18.829l12.583 12.583a2 2 0 1 0 2.831-2.824l-.001-.001zM8 8h32a2 2 0 1 0 0-4H8a2 2 0 1 0 0 4z"/>
</symbol>
<symbol id="warn" viewBox="0 0 48 48">
  <path d="m47.688 40.991.02-.034-22-36h-.042a1.93 1.93 0 0 0-3.325-.009l-.005.009h-.043l-22 36 .02.035a1.93 1.93 0 0 0-.314 1.006v.003a2 2 0 0 0 2 2h44a2 2 0 0 0 2-2 1.936 1.936 0 0 0-.317-1.016l.005.007zM21.48 16.275h5.04v5.07l-1.26 9.36h-2.52l-1.26-9.36zm5.069 21.45h-5.1v-5.041h5.1z"/>
</symbol>
<symbol id="wheelchair" viewBox="0 0 48 48">
  <path d="M40 11.5a3.5 3.5 0 1 1-7 0 3.5 3.5 0 0 1 7 0zM34 24h-5.172l4.585-4.585a1.995 1.995 0 0 0 0-2.83l-10-10c-.362-.362-.862-.586-1.414-.586s-1.052.224-1.414.586l-6 6a2 2 0 1 0 2.827 2.829l4.587-4.586L25.171 14l-6.188 6.188A10.573 10.573 0 0 0 16.966 20c-2.675 0-5.124.963-7.021 2.562l.016-.014 2.865 2.865A6.894 6.894 0 0 1 16.998 24h.001a7.009 7.009 0 0 1 7 7 6.904 6.904 0 0 1-1.425 4.189l.012-.017 2.865 2.865A10.88 10.88 0 0 0 28 31.018a10.95 10.95 0 0 0-.444-3.096l.02.077h4.425v10a2 2 0 1 0 4 0v-12a2 2 0 0 0-2-2zM17 38a7.009 7.009 0 0 1-7-7 6.904 6.904 0 0 1 1.425-4.189l-.012.017-2.865-2.865A10.94 10.94 0 0 0 6 31.002C6 37.076 10.924 42 16.998 42c2.686 0 5.147-.963 7.057-2.562l-.017.014-2.865-2.865A6.885 6.885 0 0 1 17.001 38H17z"/>
</symbol>
<symbol id="youtube" viewBox="0 0 48 48">
  <path d="M46.997 12.406a6.054 6.054 0 0 0-4.201-4.261l-.042-.01c-3.743-1.01-18.753-1.01-18.753-1.01s-15.01 0-18.753 1.01a6.056 6.056 0 0 0-4.234 4.229l-.01.042C.365 15.782 0 19.665 0 23.634l.001.422v-.022l-.001.4c0 3.969.365 7.852 1.064 11.618l-.06-.39a5.965 5.965 0 0 0 4.202 4.194l.041.009C8.99 40.875 24 40.875 24 40.875s15.01 0 18.753-1.01a5.965 5.965 0 0 0 4.234-4.161l.01-.042c.639-3.376 1.004-7.259 1.004-11.228L48 24.012v.022l.001-.4c0-3.969-.365-7.852-1.064-11.619l.06.39zM19.091 31.171V16.897l12.545 7.137-12.545 7.137z"/>
</symbol></svg>