<?xml version="1.0" encoding="utf-8"?>
<svg xmlns="http://www.w3.org/2000/svg">
<symbol id="accessibility" viewBox="0 0 48 48">
  <path d="M41.752 11.035a2.001 2.001 0 0 0-2.717-.787c-9.134 5.031-20.936 5.031-30.07 0a2.001 2.001 0 0 0-1.93 3.504c3.399 1.872 7.127 3.113 10.965 3.75V42a2 2 0 0 0 4 0V30h4v12a2 2 0 0 0 4 0V17.503c3.838-.638 7.566-1.879 10.965-3.751a2 2 0 0 0 .787-2.717Z"/>
  <circle cx="24" cy="8" r="4"/>

</symbol>
<symbol id="arrow-down" viewBox="0 0 48 48">
  <path d="M41.414 20.586a2 2 0 0 0-2.828 0L26 33.172V10a2 2 0 0 0-4 0v23.172L9.414 20.586a2 2 0 1 0-2.828 2.828l15.999 15.999c.093.093.196.177.306.25.05.033.103.056.155.084.062.034.123.072.19.1.065.027.134.043.202.063.057.017.111.039.17.05a2.01 2.01 0 0 0 .784 0c.059-.011.113-.033.17-.05.068-.02.137-.036.203-.063.067-.028.127-.066.19-.1.051-.028.105-.05.154-.084.11-.073.213-.157.307-.25l15.998-15.999a2 2 0 0 0 0-2.828Z"/>

</symbol>
<symbol id="arrow-left" viewBox="0 0 48 48">
  <path d="M27.414 41.414a2 2 0 0 0 0-2.828L14.828 26H38a2 2 0 0 0 0-4H14.828L27.414 9.414a2 2 0 1 0-2.828-2.828L8.587 22.585a2.009 2.009 0 0 0-.25.306c-.033.05-.056.103-.084.155-.034.062-.072.123-.1.19-.027.065-.043.134-.063.202-.017.057-.039.111-.05.17a2.01 2.01 0 0 0 0 .784c.011.059.033.113.05.17.02.068.036.137.063.203.028.067.066.127.1.19.028.051.05.105.084.154.073.11.157.213.25.307l15.999 15.998a2 2 0 0 0 2.828 0Z"/>

</symbol>
<symbol id="arrow-right" viewBox="0 0 48 48">
  <path d="M20.586 41.414a2 2 0 0 1 0-2.828L33.172 26H10a2 2 0 0 1 0-4h23.172L20.586 9.414a2 2 0 1 1 2.828-2.828l15.999 15.999c.093.093.177.196.25.306.033.05.056.103.084.155.034.062.072.123.1.19.027.065.043.134.063.202.017.057.039.111.05.17a2.01 2.01 0 0 1 0 .784c-.011.059-.033.113-.05.17-.02.068-.036.137-.063.203-.028.067-.066.127-.1.19-.028.051-.05.105-.084.154-.073.11-.157.213-.25.307L23.414 41.414a2 2 0 0 1-2.828 0Z"/>

</symbol>
<symbol id="arrow-up" viewBox="0 0 48 48">
  <path d="M41.414 27.414a2 2 0 0 1-2.828 0L26 14.828V38a2 2 0 0 1-4 0V14.828L9.414 27.414a2 2 0 1 1-2.828-2.828L22.585 8.587c.093-.093.196-.177.306-.25.05-.033.103-.056.155-.084.062-.034.123-.072.19-.1.065-.027.134-.043.202-.063.057-.017.111-.039.17-.05a2.01 2.01 0 0 1 .784 0c.059.011.113.033.17.05.068.02.137.036.203.063.067.028.127.066.19.1.051.028.105.05.154.084.11.073.213.157.307.25l15.998 15.999a2 2 0 0 1 0 2.828Z"/>

</symbol>
<symbol id="asterisk" viewBox="0 0 48 48">
  <path d="M39 21.5h-8.965l6.34-6.339a2.5 2.5 0 1 0-3.536-3.535L26.5 17.965V9a2.5 2.5 0 1 0-5 0v8.965l-6.339-6.34a2.5 2.5 0 1 0-3.535 3.536l6.339 6.339H9a2.5 2.5 0 1 0 0 5h8.965l-6.34 6.339a2.5 2.5 0 1 0 3.536 3.535l6.339-6.339V39a2.5 2.5 0 1 0 5 0v-8.965l6.339 6.34a2.497 2.497 0 0 0 3.535-.001 2.5 2.5 0 0 0 0-3.535L30.035 26.5H39a2.5 2.5 0 1 0 0-5Z"/>

</symbol>
<symbol id="bell" viewBox="0 0 48 48">
  <path d="M24 43a5.001 5.001 0 0 0 4.9-4h-9.8a5.003 5.003 0 0 0 4.9 4Zm12-10V21c0-5.944-4.327-10.866-10-11.82V7a2 2 0 1 0-4 0v2.18c-5.673.954-10 5.876-10 11.82v12H8v4h32v-4h-4Z"/>

</symbol>
<symbol id="bookmark-add" viewBox="0 0 48 48">
  <path d="M34 4H14c-2.206 0-4 1.794-4 4v34a2 2 0 0 0 3.11 1.664L24 36.404l10.89 7.26A2 2 0 0 0 38 42V8c0-2.206-1.794-4-4-4Zm-4 17.5h-4.5V26a1.5 1.5 0 0 1-3 0v-4.5H18a1.5 1.5 0 0 1 0-3h4.5V14a1.5 1.5 0 0 1 3 0v4.5H30a1.5 1.5 0 0 1 0 3Z"/>

</symbol>
<symbol id="bookmark-remove" viewBox="0 0 48 48">
  <path d="M34 4H14c-2.206 0-4 1.794-4 4v34a2 2 0 0 0 3.11 1.664L24 36.404l10.89 7.26A2 2 0 0 0 38 42V8c0-2.206-1.794-4-4-4Zm-4 17.5H18a1.5 1.5 0 0 1 0-3h12a1.5 1.5 0 0 1 0 3Z"/>

</symbol>
<symbol id="bookmark" viewBox="0 0 48 48">
  <path d="M34 4H14c-2.206 0-4 1.794-4 4v34a2 2 0 0 0 3.11 1.664L24 36.404l10.89 7.26A2 2 0 0 0 38 42V8c0-2.206-1.794-4-4-4Z"/>

</symbol>
<symbol id="calendar" viewBox="0 0 48 48">
  <path d="M42 10h-4V6h-4v4H14V6h-4v4H6a2 2 0 0 0-2 2v28a2 2 0 0 0 2 2h36a2 2 0 0 0 2-2V12a2 2 0 0 0-2-2Zm-2 28H8V16h32v22Z"/>
  <path d="M28 20h6v6h-6z"/>

</symbol>
<symbol id="caret-down" viewBox="0 0 48 48">
  <path d="m25.414 33.414 16-16A1.999 1.999 0 0 0 40 14H8a2 2 0 0 0-1.414 3.414l16 16a2 2 0 0 0 2.828 0Z"/>

</symbol>
<symbol id="caret-left" viewBox="0 0 48 48">
  <path d="m14.586 25.414 16 16A1.999 1.999 0 0 0 34 40V8a2 2 0 0 0-3.414-1.414l-16 16a2 2 0 0 0 0 2.828Z"/>

</symbol>
<symbol id="caret-right" viewBox="0 0 48 48">
  <path d="m33.414 22.586-16-16A1.999 1.999 0 0 0 14 8v32a2 2 0 0 0 3.414 1.414l16-16a2 2 0 0 0 0-2.828Z"/>

</symbol>
<symbol id="caret-up" viewBox="0 0 48 48">
  <path d="m41.414 30.586-16-16a2 2 0 0 0-2.828 0l-16 16A1.999 1.999 0 0 0 8 34h32a2 2 0 0 0 1.414-3.414Z"/>

</symbol>
<symbol id="checkbox-checked" viewBox="0 0 48 48">
  <path d="M36 8H12a4 4 0 0 0-4 4v24a4 4 0 0 0 4 4h24a4 4 0 0 0 4-4V12a4 4 0 0 0-4-4Zm-1.586 11.414L21 32.83l-7.414-7.415a2 2 0 1 1 2.828-2.828L21 27.171l10.586-10.585a2 2 0 1 1 2.828 2.828Z"/>

</symbol>
<symbol id="checkbox-unchecked" viewBox="0 0 48 48">
  <path d="M36 12v24H12V12h24m0-4H12a4 4 0 0 0-4 4v24a4 4 0 0 0 4 4h24a4 4 0 0 0 4-4V12a4 4 0 0 0-4-4Z"/>

</symbol>
<symbol id="chevron-down" viewBox="0 0 48 48">
  <path d="m6.589 17.434 15.995 15.995c.362.364.863.589 1.416.589s1.053-.224 1.415-.587l15.998-15.998a2 2 0 1 0-2.827-2.83L24 29.19 9.414 14.604a2 2 0 1 0-2.826 2.829h.001Z"/>

</symbol>
<symbol id="chevron-left" viewBox="0 0 48 48">
  <path d="M30.566 6.589 14.571 22.584A1.991 1.991 0 0 0 13.982 24c0 .553.224 1.053.587 1.415l15.998 15.998a2 2 0 1 0 2.83-2.827L18.81 24 33.396 9.414a2 2 0 1 0-2.829-2.826Z"/>

</symbol>
<symbol id="chevron-right" viewBox="0 0 48 48">
  <path d="m17.434 41.411 15.995-15.995c.364-.362.589-.863.589-1.416s-.224-1.053-.587-1.415L17.433 6.587a2 2 0 1 0-2.83 2.827L29.19 24 14.604 38.586a2 2 0 1 0 2.829 2.826Z"/>

</symbol>
<symbol id="chevron-up" viewBox="0 0 48 48">
  <path d="M41.411 30.566 25.416 14.571c-.362-.364-.863-.589-1.416-.589s-1.053.224-1.415.587L6.587 30.567a2 2 0 1 0 2.827 2.83L24 18.81l14.586 14.586a2 2 0 1 0 2.826-2.829Z"/>

</symbol>
<symbol id="close" viewBox="0 0 48 48">
  <path d="M26.828 24 43.414 7.414a2 2 0 1 0-2.828-2.828L24 21.172 7.414 4.586a2 2 0 1 0-2.828 2.828L21.172 24 4.586 40.586a2 2 0 1 0 2.828 2.828L24 26.828l16.586 16.586c.39.39.902.586 1.414.586s1.023-.195 1.414-.586a2 2 0 0 0 0-2.828L26.828 24Z"/>

</symbol>
<symbol id="confirm" viewBox="0 0 48 48">
  <path d="M24 4C12.954 4 4 12.954 4 24s8.954 20 20 20 20-8.954 20-20S35.046 4 24 4Zm10.414 15.414L21 32.83l-7.414-7.415a2 2 0 1 1 2.828-2.828L21 27.171l10.586-10.585a2 2 0 1 1 2.828 2.828Z"/>

</symbol>
<symbol id="delete" viewBox="0 0 48 48">
  <path d="M39 6h-8l-2-2H19l-2 2H9a2 2 0 0 0 0 4h30a2 2 0 0 0 0-4ZM11 40a4 4 0 0 0 4 4h18a4 4 0 0 0 4-4V12H11v28Z"/>

</symbol>
<symbol id="disabled" viewBox="0 0 48 48">
  <path d="M24 6C14.059 6 6 14.059 6 24s8.059 18 18 18 18-8.059 18-18S33.941 6 24 6ZM10 24c0-3.14 1.051-6.03 2.803-8.369L32.37 35.197A13.909 13.909 0 0 1 23.999 38c-7.719 0-14-6.28-14-14Zm25.197 8.369L15.63 12.803A13.909 13.909 0 0 1 24 10c7.72 0 14 6.28 14 14 0 3.14-1.051 6.03-2.803 8.369Z"/>

</symbol>
<symbol id="double-chevron-down" viewBox="0 0 48 48">
  <path d="m25.414 39.414 16-16a2 2 0 1 0-2.828-2.828L24 35.171 9.414 20.586a2 2 0 1 0-2.828 2.828l16 16a2 2 0 0 0 2.828 0Z"/>
  <path d="m25.414 27.414 16-16a2 2 0 1 0-2.828-2.828L24 23.171 9.414 8.586a2 2 0 1 0-2.828 2.828l16 16a2 2 0 0 0 2.828 0Z"/>

</symbol>
<symbol id="double-chevron-left" viewBox="0 0 48 48">
  <path d="m8.586 22.586 16-16a2 2 0 1 1 2.828 2.828L12.829 24l14.585 14.586a2 2 0 1 1-2.828 2.828l-16-16a2 2 0 0 1 0-2.828Z"/>
  <path d="m20.586 22.586 16-16a2 2 0 1 1 2.828 2.828L24.829 24l14.585 14.586a2 2 0 1 1-2.828 2.828l-16-16a2 2 0 0 1 0-2.828Z"/>

</symbol>
<symbol id="double-chevron-right" viewBox="0 0 48 48">
  <path d="m39.414 22.586-16-16a2 2 0 1 0-2.828 2.828L35.171 24 20.586 38.586a2 2 0 1 0 2.828 2.828l16-16a2 2 0 0 0 0-2.828Z"/>
  <path d="m27.414 22.586-16-16a2 2 0 1 0-2.828 2.828L23.171 24 8.586 38.586a2 2 0 1 0 2.828 2.828l16-16a2 2 0 0 0 0-2.828Z"/>

</symbol>
<symbol id="double-chevron-up" viewBox="0 0 48 48">
  <path d="m22.586 8.586-16 16a2 2 0 1 0 2.828 2.828L24 12.829l14.586 14.585a2 2 0 1 0 2.828-2.828l-16-16a2 2 0 0 0-2.828 0Z"/>
  <path d="m22.586 20.586-16 16a2 2 0 1 0 2.828 2.828L24 24.829l14.586 14.585a2 2 0 1 0 2.828-2.828l-16-16a2 2 0 0 0-2.828 0Z"/>

</symbol>
<symbol id="edit" viewBox="0 0 48 48">
  <path d="M29.878 10.292 4 36.162V44h7.822l25.884-25.88-7.828-7.828zm13.536-.706-5-5a2 2 0 0 0-2.828 0l-4.294 4.292 7.829 7.829 4.293-4.293a2 2 0 0 0 0-2.828Z"/>

</symbol>
<symbol id="expand" viewBox="0 0 48 48">
  <path d="M9.828 7H17a2 2 0 0 0 0-4H5c-.131 0-.262.014-.392.04-.06.011-.115.034-.173.05-.067.02-.134.036-.2.063-.068.028-.13.067-.195.103-.05.027-.101.049-.149.08-.22.147-.408.336-.554.555-.033.049-.055.102-.083.153-.035.063-.073.124-.101.191-.027.066-.043.134-.063.202-.017.057-.039.112-.05.171-.026.13-.04.26-.04.392v12a2 2 0 0 0 4 0V9.828l9.586 9.586c.39.39.902.586 1.414.586s1.023-.195 1.414-.586a2 2 0 0 0 0-2.828L9.828 7ZM44.96 4.608c-.011-.059-.033-.114-.05-.171-.02-.068-.036-.136-.063-.202-.028-.067-.066-.128-.1-.192-.029-.05-.051-.103-.084-.152a2.007 2.007 0 0 0-.554-.555c-.048-.031-.1-.053-.149-.08-.064-.036-.127-.075-.196-.103-.065-.027-.132-.042-.2-.062-.057-.017-.113-.04-.172-.052A2 2 0 0 0 43 3H31a2 2 0 0 0 0 4h7.172l-9.586 9.587a2 2 0 1 0 2.828 2.828L41 9.828V17a2 2 0 0 0 4 0V5c0-.131-.014-.262-.04-.392ZM43 29a2 2 0 0 0-2 2v7.172l-9.586-9.586a2 2 0 1 0-2.828 2.828L38.172 41H31a2 2 0 0 0 0 4h12c.131 0 .262-.014.392-.04.06-.011.115-.034.173-.05.067-.02.134-.036.2-.063.068-.028.13-.067.195-.103.05-.027.101-.049.149-.08.22-.147.408-.336.554-.555.033-.049.055-.102.083-.153.035-.063.073-.124.101-.191.027-.066.043-.134.063-.202.017-.057.039-.112.05-.171.026-.13.04-.26.04-.392V31a2 2 0 0 0-2-2Zm-26.414-.414L7 38.172V31a2 2 0 0 0-4 0v12c0 .131.014.262.04.392.011.059.033.114.05.17.02.069.036.137.063.203.028.067.066.128.1.191.029.051.051.104.084.153.146.22.335.408.554.554.048.032.1.054.149.081.064.036.127.075.195.103.066.027.133.042.2.062.058.017.113.04.173.051.13.026.26.04.392.04h12a2 2 0 0 0 0-4H9.828l9.586-9.586a2 2 0 1 0-2.828-2.828Z"/>

</symbol>
<symbol id="facebook" viewBox="0 0 48 48">
  <path d="m32.377 26.25 1-6.515h-6.252v-4.228a3.258 3.258 0 0 1 3.691-3.519l-.017-.002h2.841V6.439a33.535 33.535 0 0 0-5.019-.44h-.025c-5.148 0-8.513 3.12-8.513 8.769v4.965h-5.722v6.515h5.723v15.75h7.043v-15.75l5.25.002Z"/>

</symbol>
<symbol id="file-download" viewBox="0 0 48 48">
  <path d="M42 34a2 2 0 0 0-2 2v4H8v-4a2 2 0 0 0-4 0v8h40v-8a2 2 0 0 0-2-2Z"/>
  <path d="M22.585 35.413c.093.093.196.177.306.25.048.032.1.054.149.081.064.036.127.075.195.103.065.027.133.042.2.062.058.017.113.04.173.052a2.009 2.009 0 0 0 .784 0c.06-.012.115-.035.173-.052.067-.02.134-.035.2-.062.068-.028.13-.067.195-.103.05-.027.101-.049.148-.08a2 2 0 0 0 .307-.251l15.999-15.999a2 2 0 1 0-2.828-2.828L26 29.171V6a2 2 0 0 0-4 0v23.171L9.414 16.586a2 2 0 1 0-2.828 2.828l15.999 15.999Z"/>

</symbol>
<symbol id="file-upload" viewBox="0 0 48 48">
  <path d="M25.415 12.587a2.012 2.012 0 0 0-.306-.25c-.05-.034-.105-.057-.157-.086-.062-.034-.121-.07-.187-.098-.067-.028-.136-.044-.205-.064-.057-.016-.11-.038-.168-.05a2.01 2.01 0 0 0-.784 0c-.058.012-.112.034-.168.05-.07.02-.139.036-.205.064-.066.027-.126.065-.188.099-.052.028-.106.051-.157.085a2 2 0 0 0-.305.25l-16 15.999a2 2 0 1 0 2.829 2.828L22 18.828V42a2 2 0 0 0 4 0V18.829l12.586 12.585c.39.39.902.586 1.414.586s1.024-.195 1.414-.586a2 2 0 0 0 0-2.828L25.415 12.587Z"/>
  <path d="M4 4v8a2 2 0 0 0 4 0V8h32v4a2 2 0 0 0 4 0V4H4Z"/>

</symbol>
<symbol id="github" viewBox="0 0 48 48">
  <path d="M24 4h-.011C12.949 4 4 12.953 4 23.997c0 9.289 6.33 17.098 14.91 19.347l.139.03c1.488.398 3.197.626 4.96.626C35.049 44 44 35.046 44 24S35.05 4 24.009 4H24Zm-4.464 35.576c-.006-1.227-.01-2.455-.013-3.683l-.54.096a6.568 6.568 0 0 1-1.31.082h.011a9.698 9.698 0 0 1-1.69-.178l.061.01a3.592 3.592 0 0 1-1.577-.726l.006.006a3.058 3.058 0 0 1-1.025-1.457l-.005-.022-.235-.552a5.996 5.996 0 0 0-.748-1.24l.01.014a2.87 2.87 0 0 0-1.004-.905l-.015-.008-.164-.12a1.704 1.704 0 0 1-.303-.287l-.002-.002a1.332 1.332 0 0 1-.208-.328l-.003-.008c-.047-.113-.008-.205.117-.277.216-.09.451-.127.685-.107h-.005l.468.072a3.38 3.38 0 0 1 1.168.583l-.007-.006c.466.33.847.747 1.126 1.23l.01.019a4.236 4.236 0 0 0 1.289 1.494l.012.008c.446.325.98.506 1.532.517h.093c.441 0 .871-.043 1.288-.127l-.042.007a4.608 4.608 0 0 0 1.082-.373l-.027.012a3.925 3.925 0 0 1 1.149-2.475 15.755 15.755 0 0 1-2.513-.458l.11.025a9.412 9.412 0 0 1-2.247-.962l.044.024a6.38 6.38 0 0 1-1.877-1.597l-.01-.014a7.737 7.737 0 0 1-1.217-2.468l-.013-.055a12.013 12.013 0 0 1-.48-3.616v.01a7.085 7.085 0 0 1 1.857-4.957l-.005.005a6.48 6.48 0 0 1-.394-2.246c0-.96.205-1.874.574-2.698l-.017.042c.696-.116 1.41 0 2.033.333l-.017-.008c.764.293 1.409.604 2.023.96l-.067-.035c.414.256.746.472.996.649 1.349-.397 2.898-.625 4.5-.625s3.152.229 4.617.654l-.116-.03.89-.576c.656-.409 1.35-.753 2.071-1.03l.085-.028c.416-.21.876-.318 1.342-.317.198 0 .39.02.577.055l-.02-.003c.364.788.576 1.71.576 2.682 0 .797-.142 1.56-.402 2.265l.015-.045a7.084 7.084 0 0 1 1.853 4.789l-.001.171v-.008l.001.19c0 1.22-.176 2.4-.504 3.515l.023-.087a7.524 7.524 0 0 1-1.255 2.543l.013-.019a6.641 6.641 0 0 1-1.867 1.582l-.032.017a9.241 9.241 0 0 1-2.137.92l-.067.018c-.682.188-1.498.34-2.335.427l-.067.006a4.326 4.326 0 0 1 1.217 3.43l.001-.017v5.315c-1.34.409-2.88.644-4.476.644a15.89 15.89 0 0 1-4.577-.67l.113.03h-.002Z"/>

</symbol>
<symbol id="globe" viewBox="0 0 48 48">
  <path d="M24 4C12.972 4 4 12.972 4 24s8.972 20 20 20 20-8.972 20-20S35.028 4 24 4Zm13.835 12h-5.393a26.904 26.904 0 0 0-3.038-7.04A16.064 16.064 0 0 1 37.835 16ZM40 24c0 1.383-.195 2.719-.527 4h-6.238c.162-1.26.265-2.585.265-4s-.103-2.74-.265-4h6.238c.332 1.281.527 2.617.527 4Zm-21.207 4c-.183-1.241-.293-2.57-.293-4s.11-2.759.293-4h10.414c.183 1.241.293 2.57.293 4s-.11 2.759-.293 4H18.793Zm9.481 4c-1.264 3.919-3.19 6.464-4.274 7.666-1.086-1.205-3.01-3.75-4.274-7.666h8.548Zm-8.548-16c1.263-3.916 3.188-6.46 4.274-7.665 1.087 1.205 3.01 3.75 4.274 7.665h-8.548Zm-1.13-7.04A26.902 26.902 0 0 0 15.557 16h-5.392a16.064 16.064 0 0 1 8.431-7.04ZM8.526 20h6.238c-.161 1.26-.264 2.585-.264 4s.103 2.74.264 4H8.527C8.195 26.719 8 25.383 8 24s.195-2.719.527-4Zm1.639 12h5.393a26.904 26.904 0 0 0 3.038 7.04A16.064 16.064 0 0 1 10.165 32Zm19.239 7.04A26.903 26.903 0 0 0 32.443 32h5.392a16.063 16.063 0 0 1-8.431 7.04Z"/>

</symbol>
<symbol id="grid" viewBox="0 0 48 48">
  <rect x="26" y="26" width="18" height="18" rx="2" ry="2"/>
  <rect x="4" y="26" width="18" height="18" rx="2" ry="2"/>
  <rect x="26" y="4" width="18" height="18" rx="2" ry="2"/>
  <rect x="4" y="4" width="18" height="18" rx="2" ry="2"/>

</symbol>
<symbol id="hashtag" viewBox="0 0 48 48">
  <path d="M39 34H7a3 3 0 1 1 0-6h32a3 3 0 1 1 0 6Zm2-14H9a3 3 0 1 1 0-6h32a3 3 0 1 1 0 6Z"/>
  <path d="M27.003 42a3 3 0 0 1-2.925-3.682l7-30a3.001 3.001 0 0 1 5.844 1.364l-7 30A3.001 3.001 0 0 1 27.002 42Zm-14 0a3 3 0 0 1-2.925-3.682l7-30a3.002 3.002 0 0 1 5.844 1.364l-7 30A3.001 3.001 0 0 1 13.002 42Z"/>

</symbol>
<symbol id="heart" viewBox="0 0 48 48">
  <path d="M41.536 8.594C39.286 6.277 36.29 5 33.1 5s-6.185 1.276-8.435 3.594c-.232.24-.454.488-.665.745-.21-.257-.433-.505-.665-.745C21.085 6.277 18.09 5 14.9 5S8.714 6.276 6.464 8.594c-4.605 4.745-4.605 12.466 0 17.21l16.1 16.589A2 2 0 0 0 24 43a2 2 0 0 0 1.434-.606l16.124-16.582a2.14 2.14 0 0 0 .208-.252c4.372-4.761 4.294-12.304-.23-16.966Z"/>

</symbol>
<symbol id="home" viewBox="0 0 48 48">
  <defs>
    <style>
      .ds{fill-rule:evenodd}
    </style>
  </defs>
  <g id="at">
    <path class="ds" d="M8 28v12a2 2 0 0 0 2 2h8a2 2 0 0 0 2-2V30h8v10a2 2 0 0 0 2 2h8a2 2 0 0 0 2-2V28L24 14 8 28Z"/>
    <path class="ds" d="M43.33 22.505 40 19.546V8h-6v6.213l-8.67-7.708a2 2 0 0 0-2.66 0l-18 16a2 2 0 0 0 2.66 2.99L24 10.675l16.67 14.82c.383.338.856.505 1.329.505a2 2 0 0 0 1.33-3.495Z"/>
  </g>

</symbol>
<symbol id="info" viewBox="0 0 48 48">
  <path d="M24 6C14.06 6 6 14.059 6 24s8.06 18 18 18 18-8.059 18-18S33.94 6 24 6Zm.828 28.01h-4.482l2.774-14.344h4.482L24.828 34.01Zm3.165-16.334H23.51l.7-3.697h4.483l-.701 3.697Z"/>

</symbol>
<symbol id="instagram" viewBox="0 0 48 48">
  <path d="M24.004 13.745h-.002c-5.664 0-10.255 4.591-10.255 10.255s4.591 10.255 10.255 10.255S34.257 29.664 34.257 24v-.017c0-5.654-4.584-10.238-10.238-10.238h-.015Zm0 16.922h-.001A6.667 6.667 0 1 1 30.67 24a6.678 6.678 0 0 1-6.665 6.667h-.001Zm13.065-17.342a2.391 2.391 0 1 1-2.392-2.393h.005a2.386 2.386 0 0 1 2.386 2.386v.006l.001.001Zm6.791 2.428a11.8 11.8 0 0 0-3.235-8.387l.005.006a11.867 11.867 0 0 0-8.159-3.233l-.233.002h.012c-3.302-.187-13.198-.187-16.5 0-.071-.002-.154-.002-.237-.002-3.154 0-6.02 1.227-8.149 3.23l.006-.006a11.83 11.83 0 0 0-3.229 8.394v-.012c-.187 3.303-.187 13.201 0 16.503a11.8 11.8 0 0 0 3.235 8.387l-.005-.006a11.877 11.877 0 0 0 8.165 3.233l.226-.002h-.011c3.302.187 13.198.187 16.5 0a11.79 11.79 0 0 0 8.385-3.236l-.005.005a11.87 11.87 0 0 0 3.232-8.16l-.002-.233v.012c.187-3.302.187-13.192 0-16.494l-.001-.001Zm-4.266 20.038a6.788 6.788 0 0 1-3.756 3.786l-.045.016c-2.633 1.044-8.88.803-11.788.803s-9.164.232-11.788-.803a6.788 6.788 0 0 1-3.785-3.757l-.016-.045c-1.044-2.633-.803-8.88-.803-11.791s-.232-9.167.803-11.791a6.788 6.788 0 0 1 3.756-3.786l.045-.016c2.632-1.044 8.88-.803 11.788-.803s9.165-.232 11.788.803a6.788 6.788 0 0 1 3.785 3.757l.016.045c1.044 2.633.803 8.88.803 11.791s.241 9.167-.803 11.791Z"/>

</symbol>
<symbol id="language" viewBox="0 0 48 48">
  <path d="m43.828 41.188-8-18a2 2 0 0 0-3.656 0l-8 18a2 2 0 0 0 1.016 2.64 1.996 1.996 0 0 0 2.64-1.016L29.522 39h8.956l1.694 3.813a2.001 2.001 0 0 0 2.64 1.014 2 2 0 0 0 1.016-2.64ZM31.3 35l2.7-6.075L36.7 35h-5.4Zm-5.074-3.358a47.16 47.16 0 0 1-3.173-2.265C28.357 24.183 31.376 18.27 31.906 12H36a2 2 0 0 0 0-4H21.236L19.79 5.106a2 2 0 1 0-3.578 1.789L16.764 8H4a2 2 0 0 0 0 4h4.094c.53 6.27 3.549 12.183 8.853 17.377-5.717 4.46-11.536 6.708-11.65 6.751a2 2 0 0 0 1.405 3.745c.257-.096 6.352-2.41 12.52-7.164.267-.206.519-.418.778-.627.26.21.511.42.779.627a51.427 51.427 0 0 0 3.794 2.652l1.653-3.72ZM20 26.743c-3.937-3.771-7.272-8.685-7.888-14.743h15.775c-.615 6.058-3.95 10.972-7.887 14.743Z"/>

</symbol>
<symbol id="lightbulb" viewBox="0 0 48 48">
  <path d="M24 44a5.001 5.001 0 0 0 4.9-4h-9.8a5.003 5.003 0 0 0 4.9 4Zm0-40c-7.732 0-14 6.268-14 14 0 5.582 3.275 10.386 8 12.635V36a2 2 0 0 0 2 2h8a2 2 0 0 0 2-2v-5.365c4.726-2.249 8-7.053 8-12.635 0-7.732-6.268-14-14-14Zm8 15a1 1 0 0 1-1-1c0-3.86-3.14-7-7-7a1 1 0 0 1 0-2c4.962 0 9 4.038 9 9a1 1 0 0 1-1 1Z"/>

</symbol>
<symbol id="linkedin" viewBox="0 0 48 48">
  <path d="M12.953 44H4.66V17.294h8.293V44ZM8.802 13.651H8.78a4.825 4.825 0 1 1 4.825-4.849v.007a4.843 4.843 0 0 1-4.8 4.843h-.003v-.001ZM43.992 44h-8.275V31c0-3.098-.063-7.072-4.312-7.072-4.312 0-4.973 3.366-4.973 6.848v13.223h-8.284V17.293h7.954v3.643h.116c1.54-2.601 4.331-4.319 7.524-4.319.113 0 .226.002.339.006h-.016c8.393 0 9.935 5.527 9.935 12.706v14.67l-.008.001Z"/>

</symbol>
<symbol id="list" viewBox="0 0 48 48">
  <path d="M19 13h22a3 3 0 1 0 0-6H19a3 3 0 1 0 0 6Z"/>
  <circle cx="8" cy="10" r="4"/>
  <path d="M41 21H19a3 3 0 1 0 0 6h22a3 3 0 1 0 0-6Z"/>
  <circle cx="8" cy="24" r="4"/>
  <path d="M41 35H19a3 3 0 1 0 0 6h22a3 3 0 1 0 0-6Z"/>
  <circle cx="8" cy="38" r="4"/>

</symbol>
<symbol id="loading" viewBox="0 0 48 48">
  <path d="M48 24a5 5 0 1 1-10.001-.001A5 5 0 0 1 48 24ZM8 24a3 3 0 1 1-6 0 3 3 0 0 1 6 0ZM40.971 7.029a5 5 0 1 0-.001 7.071l.001-.001c.905-.905 1.464-2.155 1.464-3.536s-.56-2.631-1.464-3.536v.002ZM12.565 37.435a2 2 0 1 1-3.999.09 2 2 0 0 1 3.999-.09ZM29 5a5 5 0 1 1-10.001-.001A5 5 0 1 1 29 5Zm-4 38a1 1 0 1 1-2 0 1 1 0 0 1 2 0ZM14.565 10.565a4 4 0 1 1-8 0 4 4 0 0 1 8 0Z"/>

</symbol>
<symbol id="location" viewBox="0 0 48 48">
  <circle cx="24" cy="24" r="6"/>
  <path d="M43 22h-3.138C38.958 14.766 33.234 9.042 26 8.138V5a2 2 0 0 0-4 0v3.138C14.766 9.042 9.042 14.766 8.138 22H5a2 2 0 0 0 0 4h3.138C9.042 33.234 14.766 38.958 22 39.862V43a2 2 0 0 0 4 0v-3.138c7.234-.904 12.958-6.628 13.862-13.862H43a2 2 0 0 0 0-4ZM24 36c-6.617 0-12-5.383-12-12s5.383-12 12-12 12 5.383 12 12-5.383 12-12 12Z"/>

</symbol>
<symbol id="mail" viewBox="0 0 48 48">
  <path d="M41 8H7c-2.206 0-4 1.794-4 4v24c0 2.206 1.794 4 4 4h34c2.206 0 4-1.794 4-4V12c0-2.206-1.794-4-4-4ZM7 36V12h34l.003 24H7Z"/>
  <path d="M35.861 14.355 24 22.567l-11.861-8.212a2 2 0 1 0-2.278 3.29l14.14 9.788 14.138-9.788a2 2 0 1 0-2.278-3.29Z"/>

</symbol>
<symbol id="map-pin" viewBox="0 0 48 48">
  <path d="m13.608 24.001.025.044-.023-.043-.002-.001zm.033.058-.003-.006-.005-.008.008.014z"/>
  <path d="M24 5.997c-6.627 0-12 5.373-12 12 0 2.209.597 4.278 1.638 6.056L24 42l10.389-18A11.81 11.81 0 0 0 36 18.013v-.015c0-6.627-5.373-12-12-12ZM24 24a6 6 0 1 1 0-12 6 6 0 0 1 0 12Z"/>

</symbol>
<symbol id="menu" viewBox="0 0 48 48">
  <path d="M6 13h36a2 2 0 0 0 0-4H6a2 2 0 0 0 0 4Zm36 9H6a2 2 0 0 0 0 4h36a2 2 0 0 0 0-4Zm0 13H6a2 2 0 0 0 0 4h36a2 2 0 0 0 0-4Z"/>

</symbol>
<symbol id="minus" viewBox="0 0 48 48">
  <path d="M39 26H11a2 2 0 0 1 0-4h28a2 2 0 0 1 0 4Z"/>

</symbol>
<symbol id="mobile" viewBox="0 0 48 48">
  <path d="M32.5 8v32h-17V8h17m0-4h-17a4 4 0 0 0-4 4v32a4 4 0 0 0 4 4h17a4 4 0 0 0 4-4V8a4 4 0 0 0-4-4Z"/>

</symbol>
<symbol id="mode-light-dark" viewBox="0 0 48 48">
  <path d="M24 4C12.954 4 4 12.954 4 24s8.954 20 20 20 20-8.954 20-20S35.046 4 24 4ZM8 24c0-8.822 7.178-16 16-16v32c-8.822 0-16-7.178-16-16Z"/>

</symbol>
<symbol id="moon" viewBox="0 0 48 48">
  <path d="M24 24c0-7.399 4.028-13.843 10-17.303A19.881 19.881 0 0 0 24 4C12.954 4 4 12.954 4 24s8.954 20 20 20a19.88 19.88 0 0 0 10-2.697C28.028 37.843 24 31.399 24 24Z"/>

</symbol>
<symbol id="more-horizontal" viewBox="0 0 48 48">
  <circle cx="9" cy="24" r="5"/>
  <circle cx="24" cy="24" r="5"/>
  <circle cx="39" cy="24" r="5"/>

</symbol>
<symbol id="more-vertical" viewBox="0 0 48 48">
  <circle cx="24" cy="39" r="5"/>
  <circle cx="24" cy="24" r="5"/>
  <circle cx="24" cy="9" r="5"/>

</symbol>
<symbol id="npm" viewBox="0 0 48 48">
  <path d="M24 25.333h-2.667V20H24v5.333Zm24-10.666v16H24v2.667H13.333v-2.667H0v-16h48Zm-34.667 2.666H2.666V28h5.333v-8h2.667v8h2.667V17.333Zm13.334 0H16v13.333h5.333v-2.667h5.333l.001-10.666Zm18.666 0h-16V28h5.333v-8h2.667v8H40v-8h2.667v8h2.667l-.001-10.667Z"/>

</symbol>
<symbol id="open-new" viewBox="0 0 48 48">
  <defs>
    <style>
      .dx{fill-rule:evenodd}
    </style>
  </defs>
  <g id="ad">
    <path class="dx" d="M38 38H10V10h11V6H8C6.895 6 6 7.007 6 8.25v31.5C6 40.993 6.895 42 8 42h32c1.105 0 2-1.007 2-2.25V27h-4v11Z"/>
    <path class="dx" d="M42 8a2 2 0 0 0-2-2H27a2 2 0 1 0 0 4h8.172L16.588 28.584a2 2 0 1 0 2.828 2.829L38 12.828V21a2 2 0 1 0 4 0V8.25c0-.045-.01-.088-.012-.132C41.99 8.078 42 8.04 42 8Z"/>
  </g>

</symbol>
<symbol id="page-end" viewBox="0 0 48 48">
  <path d="M38 42a1.993 1.993 0 0 1-1.414-.586l-16-16a2 2 0 0 1 0-2.828l16-16a2 2 0 1 1 2.828 2.828L24.829 24l14.585 14.586A2 2 0 0 1 38 42Zm-28 0a2 2 0 0 1-2-2V8a2 2 0 0 1 4 0v32a2 2 0 0 1-2 2Z"/>

</symbol>
<symbol id="page-start" viewBox="0 0 48 48">
  <path d="M10 42a2 2 0 0 1-1.414-3.414L23.17 24 8.586 9.414a2 2 0 1 1 2.828-2.828l16 16a2 2 0 0 1 0 2.828l-16 16c-.39.39-.902.586-1.414.586Zm28 0a2 2 0 0 1-2-2V8a2 2 0 0 1 4 0v32a2 2 0 0 1-2 2Z"/>

</symbol>
<symbol id="parking" viewBox="0 0 48 48">
  <path d="M25.093 16.994a3.04 3.04 0 0 0-.552.024l.015-.002h.001-4.446v6.272h4.446c1.68.184 3.194-1.012 3.381-2.672a3.01 3.01 0 0 0 .013-.516c.078-1.637-1.2-3.027-2.857-3.106Z"/>
  <path d="M40 4H8a4 4 0 0 0-4 4v32a4 4 0 0 0 4 4h32a4 4 0 0 0 4-4V8a4 4 0 0 0-4-4ZM26.632 27.999a7.753 7.753 0 0 1-.879-.016l.026.001H20.11V36H14V12.019h10.932a9.247 9.247 0 0 1 6.621 2.216 7.81 7.81 0 0 1 2.441 5.909c.16 4.177-3.134 7.693-7.362 7.855Z"/>

</symbol>
<symbol id="people" viewBox="0 0 48 48">
  <path d="M22 20a6 6 0 1 1-12 0 6 6 0 0 1 12 0Zm16-6a6 6 0 1 1-12 0 6 6 0 0 1 12 0Z"/>
  <path d="M32.001 22c-5.523 0-10 2.686-10 6v1.227c-1.727-.776-3.744-1.228-5.867-1.228l-.141.001H16c-5.523 0-10 2.686-10 6v4a2 2 0 0 0 2 2h16a2 2 0 0 0 2-2v-4h14a2 2 0 0 0 2-2v-4c0-3.314-4.477-6-10-6h.001Z"/>

</symbol>
<symbol id="person" viewBox="0 0 48 48">
  <path d="M24 26c-9.941 0-18 4.477-18 10v6a2 2 0 0 0 2 2h32a2 2 0 0 0 2-2v-6c0-5.523-8.059-10-18-10Z"/>
  <circle cx="24" cy="13" r="9"/>

</symbol>
<symbol id="plane" viewBox="0 0 48 48">
  <path d="M43.11 28.336 26.675 17.38 27 7a3 3 0 1 0-6 0l.324 10.38L4.891 28.336a2 2 0 0 0 1.543 3.616l15.24-3.387.301 9.652-5.556 3.97A.998.998 0 0 0 17 44c.09 0 .184-.013.274-.038L24 42.04l6.726 1.922a1 1 0 0 0 .856-1.775l-5.557-3.97.301-9.652 15.24 3.387a2.002 2.002 0 0 0 2.274-1.167 2 2 0 0 0-.73-2.45Z"/>

</symbol>
<symbol id="plus" viewBox="0 0 48 48">
  <path d="M38 22H26V10a2 2 0 0 0-4 0v12H10a2 2 0 0 0 0 4h12v12a2 2 0 0 0 4 0V26h12a2 2 0 0 0 0-4Z"/>

</symbol>
<symbol id="print" viewBox="0 0 48 48">
  <path d="M36 8.01a2 2 0 0 0-2-2H14a2 2 0 0 0-2 2v6h24v-6Zm4 8H8a4 4 0 0 0-4 4v14a2 2 0 0 0 2 2h6v6h24v-6h6a2 2 0 0 0 2-2v-14a4 4 0 0 0-4-4Zm-6 20v4H14v-12h20v8Zm4-12a2 2 0 1 1 0-4 2 2 0 0 1 0 4Z"/>

</symbol>
<symbol id="question" viewBox="0 0 48 48">
  <path d="M24 6C14.059 6 6 14.059 6 24s8.059 18 18 18 18-8.059 18-18S33.941 6 24 6Zm1.951 28.01H21.16v-4.707h4.791v4.707Zm2.605-10.157-.026.013-.002.001a11.26 11.26 0 0 0-2.353 1.683 2.75 2.75 0 0 0-.531 1.914l-.001-.011h-4.034a4.733 4.733 0 0 1 1.92-4.668l.014-.01c1.232-1.148 2.829-1.568 2.829-3.277a2.142 2.142 0 0 0-2.39-2.101l.01-.001a2.676 2.676 0 0 0-2.829 2.894l-.001-.01h-4.511c.084-3.949 2.857-6.666 7.536-6.666 4.174 0 6.976 2.326 6.976 5.715a4.931 4.931 0 0 1-2.607 4.524Z"/>

</symbol>
<symbol id="radio-checked" viewBox="0 0 48 48">
  <circle cx="24" cy="24" r="9"/>
  <path d="M24 6C14.059 6 6 14.059 6 24s8.059 18 18 18 18-8.059 18-18S33.941 6 24 6Zm0 32c-7.72 0-14-6.28-14-14s6.28-14 14-14 14 6.28 14 14-6.28 14-14 14Z"/>

</symbol>
<symbol id="radio-unchecked" viewBox="0 0 48 48">
  <path d="M24 10c7.72 0 14 6.28 14 14s-6.28 14-14 14-14-6.28-14-14 6.28-14 14-14m0-4C14.059 6 6 14.059 6 24s8.059 18 18 18 18-8.059 18-18S33.941 6 24 6Z"/>

</symbol>
<symbol id="recycle" viewBox="0 0 48 48">
  <path d="M11.015 37.53c-1.125 1.999.32 4.47 2.614 4.47H22v-8h-9l-1.985 3.53Zm6.717-8.06-2.819-10.94-10.72 2.876 3.359 2.001-3.04 5.37a4 4 0 0 0 .16 4.175l3.641 5.461 6.145-10.894 3.274 1.953ZM15.986 8.667l-3.469 6.092 6.855 3.954 3.713-6.605-1.86-3.397c-1.128-2.06-4.077-2.084-5.238-.044Zm27.618 18.851-3.566-6.275-6.701 4.05L37.17 32h3.826c2.3 0 3.744-2.482 2.608-4.482Z"/>
  <path d="m32 30-8 8 8 8v-4h4.461a4 4 0 0 0 3.593-2.24l2.82-5.76H32v-4Zm-7.447-11.5 11 3 2.5-11-3.293 1.952-2.53-4.437A4 4 0 0 0 28.755 6h-6.752l5.977 10.469-3.428 2.031Z"/>

</symbol>
<symbol id="search" viewBox="0 0 48 48">
  <path d="M43.414 40.586 32.628 29.8A15.913 15.913 0 0 0 36 20c0-8.836-7.163-16-16-16S4 11.164 4 20s7.163 16 16 16c3.697 0 7.091-1.266 9.8-3.372l10.786 10.786c.39.39.902.586 1.414.586s1.023-.195 1.414-.586a2 2 0 0 0 0-2.828ZM8 20c0-6.617 5.383-12 12-12s12 5.383 12 12-5.383 12-12 12S8 26.617 8 20Z"/>

</symbol>
<symbol id="settings" viewBox="0 0 48 48">
  <path d="M42 20h-3.556c-.33-1.196-.8-2.332-1.399-3.388l2.512-2.511a2 2 0 0 0 0-2.828l-2.83-2.83a2 2 0 0 0-2.828 0l-2.511 2.512A14.894 14.894 0 0 0 28 9.556V6a2 2 0 0 0-2-2h-4a2 2 0 0 0-2 2v3.556c-1.196.33-2.332.8-3.388 1.399l-2.511-2.512a2 2 0 0 0-2.828 0l-2.83 2.83a2 2 0 0 0 0 2.828l2.512 2.511A14.894 14.894 0 0 0 9.556 20H6a2 2 0 0 0-2 2v4a2 2 0 0 0 2 2h3.556c.33 1.196.8 2.332 1.399 3.388l-2.512 2.511a2 2 0 0 0 0 2.828l2.83 2.83c.39.39.902.585 1.414.585s1.023-.195 1.414-.585l2.511-2.512c1.056.6 2.192 1.068 3.388 1.399V42a2 2 0 0 0 2 2h4a2 2 0 0 0 2-2v-3.556c1.196-.33 2.332-.8 3.388-1.399l2.512 2.512c.39.39.902.585 1.414.585s1.023-.195 1.414-.585l2.829-2.83a2 2 0 0 0 0-2.828l-2.512-2.511a14.894 14.894 0 0 0 1.4-3.388H42a2 2 0 0 0 2-2v-4a2 2 0 0 0-2-2ZM24 31a7 7 0 1 1 0-14 7 7 0 0 1 0 14Z"/>

</symbol>
<symbol id="share" viewBox="0 0 48 48">
  <path d="m44.365 20.538-15-14A2 2 0 0 0 26 8v7.056c-12.87.606-23 7-23 14.804 0 7.144 9.998 11.871 9.998 11.871a2 2 0 0 0 2.004-3.462c-1.536-.935-2.426-2.048-2.426-3.243 0-3.064 6.412-6.02 13.424-5.964V36a2 2 0 0 0 3.365 1.462l15-14a1.998 1.998 0 0 0 0-2.924Z" style="fill-rule:evenodd"/>

</symbol>
<symbol id="shopping-cart" viewBox="0 0 48 48">
  <path d="M36 28a2 2 0 0 0 1.831-1.199l.005-.013h.001l.002-.004.005-.011 5.994-13.986a1.997 1.997 0 0 0-1.834-2.788H14.84l-.879-4.393-.048-.04a1.974 1.974 0 0 0-1.912-1.567H6a2 2 0 1 0 0 4h4.36l3.544 17.719-3.693 7.387.007.011a1.962 1.962 0 0 0 1.746 2.856h.019L12 36h24a2 2 0 1 0 0-4H15.236l2-4H36Zm2 13a3 3 0 1 1-6 0 3 3 0 0 1 6 0Zm-22 0a3 3 0 1 1-6 0 3 3 0 0 1 6 0Z"/>

</symbol>
<symbol id="shrink" viewBox="0 0 48 48">
  <path d="M18 4a2 2 0 0 0-2 2v7.172L6.414 3.586a2 2 0 1 0-2.828 2.828L13.172 16H6a2 2 0 0 0 0 4h12c.131 0 .262-.014.392-.04.059-.011.113-.033.17-.05.068-.02.137-.036.203-.063.067-.028.127-.066.19-.1.051-.028.105-.05.154-.084.22-.146.408-.335.555-.554.031-.048.053-.1.08-.149.036-.064.075-.127.103-.195.027-.065.043-.133.062-.2.018-.058.04-.113.052-.173A2 2 0 0 0 20 18V6a2 2 0 0 0-2-2Zm10.09 14.565c.02.067.036.135.063.2.028.068.067.13.103.195.027.05.049.101.08.149.147.219.336.407.555.554.05.033.103.056.155.084.062.034.123.072.19.1.065.027.134.043.202.063.057.017.111.039.17.05.13.026.26.04.392.04h12a2 2 0 0 0 0-4h-7.172l9.586-9.586a2 2 0 1 0-2.828-2.828L32 13.172V6a2 2 0 0 0-4 0v12c0 .131.014.262.04.392.012.06.034.115.051.173ZM34.828 32H42a2 2 0 0 0 0-4H30a2.01 2.01 0 0 0-.392.04c-.058.011-.112.033-.168.05-.069.02-.139.035-.205.063-.066.027-.125.065-.187.099-.053.028-.107.051-.157.085a2.01 2.01 0 0 0-.554.554c-.032.048-.054.1-.081.149-.036.064-.075.127-.103.195-.027.065-.042.133-.062.2-.017.058-.04.113-.052.173-.025.13-.04.26-.04.392v12a2 2 0 0 0 4 0v-7.172l9.587 9.586c.39.39.902.586 1.414.586s1.024-.196 1.414-.586a2 2 0 0 0 0-2.828L34.828 32ZM19.91 29.435c-.02-.067-.036-.135-.063-.2-.028-.068-.067-.13-.103-.195-.027-.05-.049-.101-.08-.149a2.008 2.008 0 0 0-.555-.554c-.05-.034-.105-.057-.158-.086-.061-.033-.12-.07-.186-.098-.067-.027-.137-.043-.206-.063-.056-.017-.11-.039-.167-.05A2.01 2.01 0 0 0 18 28H6a2 2 0 0 0 0 4h7.172l-9.586 9.586a2 2 0 1 0 2.828 2.828L16 34.828V42a2 2 0 0 0 4 0V30c0-.131-.014-.262-.04-.392-.011-.06-.034-.115-.05-.173Z"/>

</symbol>
<symbol id="star-fill" viewBox="0 0 48 48">
  <path d="m36.624 41.426-3.848-12.828L43.17 20.15a1.998 1.998 0 0 0-1.261-3.551H29.177L25.824 5.426a1.999 1.999 0 0 0-3.83-.001L18.64 16.6H5.909a2 2 0 0 0-1.262 3.551l10.394 8.447-3.848 12.827a2 2 0 0 0 3.177 2.127l9.539-7.75 9.538 7.75a1.994 1.994 0 0 0 2.374.11 2 2 0 0 0 .803-2.236Z"/>

</symbol>
<symbol id="star-outline" viewBox="0 0 48 48">
  <path d="m24 7 3.57 11.9H41l-10.798 8.773L34.2 41 24 32.713 13.8 41l3.998-13.327L7 18.9h13.43L24 7m17 11.9h.005M24 4a3 3 0 0 0-2.873 2.138l-2.93 9.762H7a3 3 0 0 0-1.892 5.328l9.24 7.507-3.422 11.403a3 3 0 0 0 4.766 3.19L24 36.578l8.308 6.75a2.997 2.997 0 0 0 3.56.165 3 3 0 0 0 1.205-3.355l-3.42-11.403 9.188-7.465a2.998 2.998 0 0 0-1.836-5.37H29.802l-2.929-9.762A3 3 0 0 0 24 4Z"/>

</symbol>
<symbol id="sun" viewBox="0 0 48 48">
  <path d="M24 11a2 2 0 0 0 2-2V4a2 2 0 0 0-4 0v5a2 2 0 0 0 2 2Zm0 26a2 2 0 0 0-2 2v5a2 2 0 0 0 4 0v-5a2 2 0 0 0-2-2ZM11.979 14.808a1.997 1.997 0 0 0 2.829 0 2 2 0 0 0 0-2.828l-3.536-3.537a2 2 0 1 0-2.829 2.829l3.536 3.536Zm24.042 18.384a2 2 0 0 0-2.83 2.828l3.537 3.537c.39.39.902.585 1.414.585s1.023-.195 1.414-.585a2 2 0 0 0 0-2.829l-3.535-3.536ZM11 24a2 2 0 0 0-2-2H4a2 2 0 0 0 0 4h5a2 2 0 0 0 2-2Zm33-2h-5a2 2 0 0 0 0 4h5a2 2 0 0 0 0-4ZM11.979 33.192l-3.536 3.536a2 2 0 1 0 2.83 2.829l3.535-3.537a2 2 0 1 0-2.829-2.828Zm22.627-17.798c.512 0 1.024-.196 1.415-.586l3.536-3.536a2 2 0 0 0-2.829-2.829l-3.536 3.537a2 2 0 0 0 1.415 3.414Z"/>
  <circle cx="24" cy="24" r="11"/>

</symbol>
<symbol id="switch-off" viewBox="0 0 48 48">
  <path d="M35 13H13C6.925 13 2 17.925 2 24s4.925 11 11 11h22c6.075 0 11-4.925 11-11s-4.925-11-11-11ZM13 32a8 8 0 1 1 0-16 8 8 0 0 1 0 16Z"/>

</symbol>
<symbol id="switch-on" viewBox="0 0 48 48">
  <path d="M35 13H13C6.925 13 2 17.925 2 24s4.925 11 11 11h22c6.075 0 11-4.925 11-11s-4.925-11-11-11Zm0 19a8 8 0 1 1 0-16 8 8 0 0 1 0 16Z"/>

</symbol>
<symbol id="tiktok" viewBox="0 0 48 48">
  <path d="M41.5 20.403a16.415 16.415 0 0 1-9.594-3.067v13.966c-.003 7.016-5.692 12.7-12.707 12.698-7.016-.003-12.7-5.692-12.698-12.707.002-7.015 5.691-12.7 12.707-12.698.582 0 1.163.04 1.74.12v7.025a5.831 5.831 0 1 0 4.08 5.562V4h6.877c-.004.58.044 1.16.146 1.732a9.548 9.548 0 0 0 4.213 6.27 9.489 9.489 0 0 0 5.235 1.573v6.828Z"/>

</symbol>
<symbol id="twitter" viewBox="0 0 48 48">
  <path d="M41.383 15.081c.028.39.028.779.028 1.167v.176c0 14.004-11.353 25.357-25.357 25.357h-.241A25.242 25.242 0 0 1 2 37.69l.098.06a17.98 17.98 0 0 0 2.033.113l.141-.001h.039A17.9 17.9 0 0 0 15.444 34l-.038.029a8.995 8.995 0 0 1-8.372-6.16l-.018-.064c.507.084 1.094.135 1.692.139h.004a9.502 9.502 0 0 0 2.428-.321l-.067.015c-4.134-.859-7.196-4.47-7.196-8.797v-.12a8.918 8.918 0 0 0 4.04 1.138l.017.001c-2.426-1.634-4-4.372-4-7.476 0-1.668.454-3.229 1.244-4.567l-.023.041c4.447 5.442 11.025 9 18.441 9.389l.063.003a9.852 9.852 0 0 1-.222-2.053v-.003a8.982 8.982 0 0 1 15.527-6.145l.004.005a17.637 17.637 0 0 0 5.775-2.212l-.08.044a9 9 0 0 1-3.904 4.923l-.04.022A17.965 17.965 0 0 0 46 10.397l-.114.046a19.442 19.442 0 0 1-4.449 4.602l-.052.037h-.002Z"/>

</symbol>
<symbol id="warn" viewBox="0 0 48 48">
  <path d="m45.695 38.94-20-32a2 2 0 0 0-3.392 0l-20 32A2 2 0 0 0 3.999 42h40a2 2 0 0 0 1.696-3.06ZM26.499 38h-5v-5h5v5Zm.5-17-2 10h-2l-2-10v-5h6v5Z"/>

</symbol>
<symbol id="wheelchair" viewBox="0 0 48 48">
  <path d="M40 11.532a3.5 3.5 0 1 1-7 0 3.5 3.5 0 0 1 7 0Zm-6 12.5h-5.172l4.585-4.585c.781-.777.785-2.04.009-2.822l-.009-.008-10-10c-.362-.362-.862-.586-1.414-.586s-1.052.224-1.414.586l-6 6a2 2 0 1 0 2.827 2.829L22 10.86l3.172 3.172-6.188 6.188c-.665-.127-1.34-.19-2.017-.188a10.85 10.85 0 0 0-7.02 2.562l.015-.014 2.865 2.865a6.894 6.894 0 0 1 4.172-1.413H17a7.01 7.01 0 0 1 7 7 6.904 6.904 0 0 1-1.425 4.189l.012-.017 2.865 2.865a10.88 10.88 0 0 0 2.55-7.02c0-1.047-.15-2.09-.445-3.095l.02.077h4.425v10a2 2 0 1 0 4 0v-12a2 2 0 0 0-2-2Zm-17 14a7.01 7.01 0 0 1-7-7 6.904 6.904 0 0 1 1.425-4.19l-.012.018-2.865-2.865A10.94 10.94 0 0 0 6 31.034c0 6.074 4.924 10.998 10.998 10.998 2.686 0 5.147-.963 7.057-2.562l-.017.014-2.865-2.865a6.885 6.885 0 0 1-4.172 1.413H17Z"/>

</symbol>
<symbol id="youtube" viewBox="0 0 48 48">
  <path d="M45.08 13.372a5.55 5.55 0 0 0-3.851-3.905l-.039-.01C37.76 8.532 24 8.532 24 8.532s-13.758 0-17.19.925a5.551 5.551 0 0 0-3.88 3.877l-.01.038C2.335 16.467 2 20.026 2 23.665v.386-.02.367c0 3.638.335 7.197.975 10.65l-.055-.358a5.468 5.468 0 0 0 3.852 3.844l.038.009c3.43.925 17.19.925 17.19.925s13.759 0 17.19-.925a5.468 5.468 0 0 0 3.88-3.815l.01-.038c.586-3.095.92-6.654.92-10.292v-.387.02-.367c0-3.638-.335-7.197-.975-10.65l.055.357v.001ZM19.5 30.573V17.49l11.499 6.542-11.5 6.542Z"/>

</symbol></svg>