<svg width="24" height="24" viewBox="0 0 24 24">
  <path d="M16 0H8.615a4.615 4.615 0 0 0-2.769 8.308 4.615 4.615 0 0 0 0 7.384 4.616 4.616 0 1 0 7.385 3.693v-3.693A4.615 4.615 0 0 0 20.615 12a4.62 4.62 0 0 0-1.846-3.692 4.616 4.616 0 0 0 .495-6.956A4.62 4.62 0 0 0 16 0m-2.77 12a2.769 2.769 0 1 1 5.54 0A2.77 2.77 0 0 1 16 14.77 2.77 2.77 0 0 1 13.23 12m-1.845 4.615v2.77a2.77 2.77 0 1 1-5.539 0 2.77 2.77 0 0 1 2.77-2.77zm-2.77-9.23a2.77 2.77 0 0 1 0-5.539h2.77v5.539zm0 1.846h2.77v5.538h-2.77A2.77 2.77 0 0 1 5.846 12a2.77 2.77 0 0 1 2.77-2.77M16 7.385h-2.77V1.846H16a2.77 2.77 0 0 1 0 5.539"/>
</svg>
