<svg width="24" height="24" viewBox="0 0 24 24">
  <path d="M12 2h-.006C6.474 2 2 6.477 2 11.999c0 4.644 3.165 8.549 7.455 9.673l.07.015a9.8 9.8 0 0 0 2.48.313C17.524 22 22 17.523 22 12S17.525 2 12.004 2zM9.768 19.788l-.007-1.842-.27.048a3.3 3.3 0 0 1-.655.042h.006a5 5 0 0 1-.845-.09l.03.005a1.8 1.8 0 0 1-.788-.363l.003.003a1.53 1.53 0 0 1-.512-.728l-.003-.01-.117-.277a3 3 0 0 0-.375-.62l.005.007a1.44 1.44 0 0 0-.502-.453l-.007-.004-.082-.06a1 1 0 0 1-.151-.143l-.002-.001a.7.7 0 0 1-.103-.164l-.002-.004q-.035-.084.058-.139a.7.7 0 0 1 .343-.053h-.003l.235.036a1.7 1.7 0 0 1 .584.291l-.004-.003c.233.165.424.374.563.616l.005.009c.159.304.378.555.644.747l.007.004c.222.163.49.253.765.259h.047q.331 0 .644-.064l-.02.003a2.3 2.3 0 0 0 .54-.186l-.013.006a1.96 1.96 0 0 1 .574-1.238 8 8 0 0 1-1.256-.229l.055.013a4.7 4.7 0 0 1-1.124-.481l.022.012a3.2 3.2 0 0 1-.939-.799l-.005-.006a3.9 3.9 0 0 1-.608-1.235l-.007-.027a6 6 0 0 1-.24-1.808v.005a3.54 3.54 0 0 1 .929-2.479l-.003.003a3.2 3.2 0 0 1-.196-1.123c0-.48.102-.937.286-1.349l-.008.021a1.6 1.6 0 0 1 1.017.166l-.01-.004c.383.147.705.302 1.013.481l-.034-.018q.31.192.498.324A8 8 0 0 1 12 6.577c.801 0 1.576.114 2.309.327l-.059-.015.446-.288a6 6 0 0 1 1.035-.515l.043-.014a1.5 1.5 0 0 1 .67-.159q.15 0 .289.028l-.01-.002c.182.395.288.856.288 1.342 0 .398-.071.78-.201 1.132l.007-.023a3.54 3.54 0 0 1 .927 2.395v.086-.004.095a6.2 6.2 0 0 1-.252 1.757l.011-.044a3.8 3.8 0 0 1-.627 1.272l.006-.01a3.3 3.3 0 0 1-.933.791l-.016.009a4.6 4.6 0 0 1-1.069.46l-.033.009c-.341.094-.749.17-1.167.214l-.034.002a2.16 2.16 0 0 1 .609 1.715v-.008 2.658a7.8 7.8 0 0 1-2.238.321 8 8 0 0 1-2.288-.334z"/>
</svg>
