<svg width="24" height="24" viewBox="0 0 24 24">
  <path d="M2 12C2 6.477 6.477 2 12 2s10 4.477 10 10-4.477 10-10 10S2 17.523 2 12m3.07-4h2.705a13.6 13.6 0 0 1 1.53-3.535A8.03 8.03 0 0 0 5.07 8m-.818 2A8 8 0 0 0 4 12c0 .69.088 1.36.252 2h3.124a16 16 0 0 1-.126-2c0-.704.045-1.371.126-2zm5.143 0c-.092.62-.145 1.287-.145 2s.053 1.38.145 2h5.21c.092-.62.145-1.287.145-2s-.053-1.38-.145-2zm7.229 0a15.8 15.8 0 0 1 0 4h3.124A8 8 0 0 0 20 12a8 8 0 0 0-.252-2zm2.306-2a8.03 8.03 0 0 0-4.235-3.535q.084.137.169.281A13.6 13.6 0 0 1 16.224 8zm0 8h-2.705a13.6 13.6 0 0 1-1.361 3.254 13 13 0 0 1-.169.28A8.03 8.03 0 0 0 18.93 16m-4.792 0H9.862c.288.889.646 1.637 1.002 2.246.4.688.8 1.199 1.092 1.533l.044.05.044-.05a10 10 0 0 0 1.092-1.533c.356-.609.714-1.357 1.002-2.246m-6.363 0H5.07a8.03 8.03 0 0 0 4.235 3.535 13 13 0 0 1-.169-.281A13.6 13.6 0 0 1 7.776 16m6.363-8a11.5 11.5 0 0 0-1.002-2.246 10 10 0 0 0-1.092-1.533L12 4.171l-.044.05a10 10 0 0 0-1.092 1.533A11.5 11.5 0 0 0 9.862 8z"/>
</svg>
