<svg width="24" height="24" viewBox="0 0 24 24">
   <path d="M2 12C2 6.477 6.477 2 12 2s10 4.477 10 10-4.477 10-10 10S2 17.523 2 12Zm3.07-4h2.705a13.587 13.587 0 0 1 1.53-3.535A8.025 8.025 0 0 0 5.07 8Zm-.818 2A8.015 8.015 0 0 0 4 12a8 8 0 0 0 .252 2h3.124a15.687 15.687 0 0 1-.126-2c0-.705.045-1.371.126-2H4.252Zm5.143 0c-.092.62-.145 1.287-.145 2s.053 1.38.145 2h5.21c.092-.62.145-1.287.145-2s-.053-1.38-.145-2h-5.21Zm7.229 0a15.836 15.836 0 0 1 0 4h3.124A8.016 8.016 0 0 0 20 12a8.016 8.016 0 0 0-.252-2h-3.124Zm2.306-2a8.026 8.026 0 0 0-4.235-3.535A13.59 13.59 0 0 1 16.225 8h2.705Zm0 8h-2.705a13.59 13.59 0 0 1-1.361 3.254 13.177 13.177 0 0 1-.169.28A8.025 8.025 0 0 0 18.93 16Zm-4.792 0H9.862c.288.889.646 1.637 1.002 2.246.4.688.8 1.199 1.092 1.533l.044.05.044-.05a9.95 9.95 0 0 0 1.092-1.533c.356-.609.714-1.357 1.002-2.246Zm-6.363 0H5.07a8.025 8.025 0 0 0 4.235 3.535 12.852 12.852 0 0 1-.169-.281A13.59 13.59 0 0 1 7.776 16Zm6.363-8a11.488 11.488 0 0 0-1.002-2.246 9.953 9.953 0 0 0-1.092-1.533L12 4.171l-.044.05a9.95 9.95 0 0 0-1.092 1.533A11.485 11.485 0 0 0 9.862 8h4.276Z"/>
</svg>
