<svg width="24" height="24" viewBox="0 0 24 24">
   <path d="M12.002 6.872H12A5.127 5.127 0 1 0 17.128 12v-.009a5.12 5.12 0 0 0-5.119-5.119h-.007Zm0 8.461A3.334 3.334 0 1 1 15.335 12a3.34 3.34 0 0 1-3.333 3.333Zm6.532-8.67a1.195 1.195 0 1 1-1.196-1.197h.003c.658 0 1.193.534 1.193 1.193v.003Zm3.396 1.213a5.9 5.9 0 0 0-1.618-4.193l.003.003a5.933 5.933 0 0 0-4.08-1.617l-.116.001h.006c-1.651-.093-6.6-.093-8.25 0h-.119c-1.577 0-3.01.613-4.074 1.614l.003-.003A5.915 5.915 0 0 0 2.07 7.878v-.006c-.093 1.652-.093 6.6 0 8.252a5.9 5.9 0 0 0 1.618 4.193l-.003-.003a5.938 5.938 0 0 0 4.083 1.617l.113-.001h-.006c1.651.093 6.6.093 8.25 0a5.895 5.895 0 0 0 4.193-1.618l-.003.002a5.935 5.935 0 0 0 1.616-4.08v-.116.006c.093-1.651.093-6.596 0-8.247h-.001Zm-2.133 10.02a3.393 3.393 0 0 1-1.878 1.892l-.023.008c-1.316.522-4.44.402-5.894.402-1.454 0-4.582.116-5.894-.402a3.394 3.394 0 0 1-1.892-1.878l-.008-.023c-.522-1.316-.402-4.44-.402-5.895 0-1.456-.116-4.584.402-5.896a3.394 3.394 0 0 1 1.878-1.893l.022-.008c1.316-.522 4.44-.401 5.894-.401 1.454 0 4.583-.116 5.894.401a3.394 3.394 0 0 1 1.893 1.879l.008.022c.522 1.317.401 4.44.401 5.896 0 1.455.12 4.583-.401 5.895Z"/>
</svg>
