<svg width="24" height="24" viewBox="0 0 24 24">
   <path d="M16 0H8.463a4.463 4.463 0 0 0-2.39 8.231 4.463 4.463 0 0 0 0 7.538 4.463 4.463 0 1 0 6.853 3.768v-4.302a4.463 4.463 0 0 0 6.23-.08 4.463 4.463 0 0 0-.765-6.924 4.463 4.463 0 0 0 2.072-3.768A4.463 4.463 0 0 0 16 0Zm-3.074 12A3.074 3.074 0 0 1 16 8.926 3.074 3.074 0 0 1 19.074 12a3.074 3.074 0 0 1-.9 2.174 3.074 3.074 0 0 1-4.348 0 3.074 3.074 0 0 1-.9-2.174Zm-1.389 4.463v3.074a3.074 3.074 0 0 1-5.248 2.174 3.074 3.074 0 0 1 2.174-5.248h3.074ZM8.463 7.537a3.074 3.074 0 0 1 0-6.149h3.074v6.15H8.463Zm0 1.389h3.074v6.148H8.463a3.074 3.074 0 0 1-2.174-5.248 3.074 3.074 0 0 1 2.174-.9ZM16 7.537h-3.074V1.388H16a3.074 3.074 0 0 1 2.174 5.249 3.074 3.074 0 0 1-2.174.9Z"/>
</svg>
