<svg width="24" height="24" viewBox="0 0 24 24">
   <path d="M20 5.766a1.75 1.75 0 1 1-3.5 0 1.75 1.75 0 0 1 3.5 0Zm-3 6.25h-2.586l2.292-2.293a.998.998 0 0 0 .005-1.41l-.004-.005-5-5a.997.997 0 0 0-.708-.293.997.997 0 0 0-.707.293l-3 3a1 1 0 1 0 1.39 1.44 1.035 1.035 0 0 0 .024-.025L11 5.43l1.586 1.586-3.094 3.094a5.283 5.283 0 0 0-1.009-.094 5.427 5.427 0 0 0-3.51 1.28l.008-.006 1.432 1.432a3.446 3.446 0 0 1 2.086-.706 3.505 3.505 0 0 1 3.5 3.5 3.453 3.453 0 0 1-.712 2.094l.006-.008 1.433 1.432A5.44 5.44 0 0 0 14 15.524a5.476 5.476 0 0 0-.222-1.547l.01.038h2.213v5a1 1 0 1 0 2 0v-6a1 1 0 0 0-1-1H17Zm-8.5 7a3.505 3.505 0 0 1-3.5-3.5 3.452 3.452 0 0 1 .713-2.095l-.006.009-1.433-1.433A5.47 5.47 0 0 0 3 15.517a5.499 5.499 0 0 0 9.027 4.218l-.008.007-1.433-1.433a3.444 3.444 0 0 1-2.086.707Z"/>
</svg>
