<svg width="24" height="24" viewBox="0 0 24 24">
   <path d="M12 2h-.006C6.474 2 2 6.477 2 11.999c0 4.644 3.165 8.549 7.455 9.673l.07.015a9.76 9.76 0 0 0 2.48.313C17.524 22 22 17.523 22 12S17.525 2 12.004 2H12ZM9.768 19.788a942.304 942.304 0 0 1-.007-1.842l-.27.048a3.292 3.292 0 0 1-.655.042h.006a4.854 4.854 0 0 1-.845-.09l.03.005a1.796 1.796 0 0 1-.788-.363l.003.003a1.528 1.528 0 0 1-.512-.728l-.003-.01-.117-.277a2.997 2.997 0 0 0-.375-.62l.005.007a1.435 1.435 0 0 0-.502-.453l-.007-.004-.082-.06a.851.851 0 0 1-.151-.143l-.002-.001a.666.666 0 0 1-.103-.164l-.002-.004c-.024-.056-.004-.102.058-.139a.729.729 0 0 1 .343-.053h-.003l.235.036a1.688 1.688 0 0 1 .584.291l-.004-.003c.233.165.424.374.563.616l.005.009c.159.304.378.555.644.747l.007.004c.222.163.49.253.765.259h.047c.22 0 .436-.022.644-.064l-.02.003a2.3 2.3 0 0 0 .54-.186l-.013.006a1.963 1.963 0 0 1 .574-1.238 7.867 7.867 0 0 1-1.256-.229l.055.013a4.704 4.704 0 0 1-1.124-.481l.022.012a3.19 3.19 0 0 1-.939-.799l-.005-.006a3.87 3.87 0 0 1-.608-1.235l-.007-.027a6.007 6.007 0 0 1-.24-1.808v.005a3.542 3.542 0 0 1 .929-2.479l-.003.003a3.24 3.24 0 0 1-.196-1.123c0-.48.102-.937.286-1.349l-.008.021a1.599 1.599 0 0 1 1.017.166l-.01-.004c.383.147.705.302 1.013.481l-.034-.018c.207.128.373.236.498.324A8.07 8.07 0 0 1 12 6.577c.801 0 1.576.114 2.309.327l-.059-.015.446-.288a6.037 6.037 0 0 1 1.035-.515l.043-.014a1.482 1.482 0 0 1 .67-.159c.1 0 .196.01.289.028l-.01-.002c.182.395.288.856.288 1.342 0 .398-.071.78-.201 1.132l.007-.023a3.542 3.542 0 0 1 .927 2.395v.086-.004.095a6.21 6.21 0 0 1-.252 1.757l.011-.044a3.76 3.76 0 0 1-.627 1.272l.006-.01a3.32 3.32 0 0 1-.933.791l-.016.009a4.621 4.621 0 0 1-1.069.46l-.033.009c-.341.094-.749.17-1.167.214l-.034.002a2.163 2.163 0 0 1 .609 1.715v-.008 2.658a7.77 7.77 0 0 1-2.238.321 7.946 7.946 0 0 1-2.288-.334l.056.014h-.001Z"/>
</svg>
