<svg width="24" height="24" viewBox="0 0 24 24">
   <path d="M20.691 7.54c.014.195.014.39.014.584v.088c0 7.002-5.676 12.679-12.678 12.679h-.092.005-.034A12.62 12.62 0 0 1 1 18.845l.049.03a8.99 8.99 0 0 0 1.016.056h.071-.003.022A8.95 8.95 0 0 0 7.722 17l-.019.014a4.498 4.498 0 0 1-4.186-3.08l-.009-.031c.254.042.547.067.846.069h.002a4.753 4.753 0 0 0 1.214-.16l-.033.007c-2.067-.43-3.598-2.235-3.598-4.398V9.36a4.46 4.46 0 0 0 2.02.57h.008a4.496 4.496 0 0 1-1.378-6.02l-.011.02c2.222 2.72 5.512 4.5 9.22 4.693l.032.002a4.926 4.926 0 0 1-.111-1.026v-.002a4.491 4.491 0 0 1 4.494-4.488 4.491 4.491 0 0 1 3.269 1.415l.002.003A8.82 8.82 0 0 0 22.37 3.42l-.04.022a4.5 4.5 0 0 1-1.952 2.461l-.02.012A8.982 8.982 0 0 0 23 5.199l-.057.022a9.72 9.72 0 0 1-2.224 2.301l-.027.02V7.54Z"/>
</svg>
