<svg width="24" height="24" viewBox="0 0 24 24">
   <path d="M1.5 2.5a1 1 0 0 1 1-1h6a1 1 0 1 1 0 2h-5v5a1 1 0 1 1-2 0v-6Z"/>
   <path d="M1.793 1.793a1 1 0 0 1 1.414 0l6.5 6.5a1 1 0 0 1-1.414 1.414l-6.5-6.5a1 1 0 0 1 0-1.414ZM14.5 2.5a1 1 0 0 1 1-1h6a1 1 0 0 1 1 1v6a1 1 0 1 1-2 0v-5h-5a1 1 0 0 1-1-1Z"/>
   <path d="M22.207 1.793a1 1 0 0 1 0 1.414l-6.5 6.5a1 1 0 0 1-1.414-1.414l6.5-6.5a1 1 0 0 1 1.414 0ZM21.5 14.5a1 1 0 0 1 1 1v6a1 1 0 0 1-1 1h-6a1 1 0 1 1 0-2h5v-5a1 1 0 0 1 1-1Z"/>
   <path d="M14.293 14.293a1 1 0 0 1 1.414 0l6.5 6.5a1 1 0 0 1-1.414 1.414l-6.5-6.5a1 1 0 0 1 0-1.414ZM2.5 14.5a1 1 0 0 1 1 1v5h5a1 1 0 1 1 0 2h-6a1 1 0 0 1-1-1v-6a1 1 0 0 1 1-1Z"/>
   <path d="M9.707 14.293a1 1 0 0 1 0 1.414l-6.5 6.5a1 1 0 0 1-1.414-1.414l6.5-6.5a1 1 0 0 1 1.414 0Z"/>
</svg>
