<svg width="24" height="24" viewBox="0 0 24 24">
   <path d="m17.776 10.75-5.5-1.5 1.715-1.016L11 3h3.377a2 2 0 0 1 1.736 1.008l1.266 2.218 1.647-.976-1.25 5.5ZM7.993 4.334 6.26 7.379l3.427 1.977 1.857-3.302-.93-1.699a1.5 1.5 0 0 0-2.62-.021Zm-.536 4.93 1.409 5.471-1.637-.976-3.073 5.447-1.82-2.73a2 2 0 0 1-.08-2.088l1.52-2.685-1.68-1 5.36-1.439ZM6.815 21a1.5 1.5 0 0 1-1.308-2.235L6.5 17H11v4H6.815Zm13.204-10.379 1.783 3.138A1.5 1.5 0 0 1 20.498 16h-1.913l-1.917-3.353 3.351-2.026Z"/>
   <path d="m16 15-4 4 4 4v-2h2.23a2 2 0 0 0 1.797-1.12l1.41-2.88H16v-2Z"/>
</svg>
