<svg width="24" height="24" viewBox="0 0 24 24">
   <path d="M6.294 11.292a1.009 1.009 0 0 0-.126.153c-.017.025-.028.053-.042.08-.017.03-.036.06-.05.092-.013.034-.021.069-.031.103-.009.028-.02.055-.025.084a1.005 1.005 0 0 0 0 .392c.005.03.016.056.025.084.01.035.018.07.031.103.014.033.033.062.05.093.014.026.026.054.042.079a1 1 0 0 0 .126.153l7.999 7.999a1 1 0 1 0 1.414-1.414L9.414 13H21a1 1 0 1 0 0-2H9.414l6.293-6.293A.996.996 0 0 0 16 4a.996.996 0 0 0-.293-.707 1 1 0 0 0-1.414 0l-8 8Z"/>
   <path d="M2 22h4a1 1 0 0 0 0-2H4V4h2a1 1 0 0 0 0-2H2v20Z"/>
</svg>
