<svg xmlns="http://www.w3.org/2000/svg" width="48" height="48" viewBox="0 0 48 48">
  <path d="M8.394 12.042.05 36h4.926l1.575-5.094h8.645L16.804 36h5.06L13.42 12.042ZM7.69 27.176l2.144-6.904c.402-1.273 1.006-3.686 1.006-3.686h.066s.57 2.413.972 3.686l2.145 6.904ZM46 12H34.828l-5.412-5.412a2 2 0 1 0-2.829 2.827L29.172 12H22a2 2 0 0 0 0 4h17.932c-.45 6.619-3.153 11.669-7.333 14.199A9.13 9.13 0 0 1 28 22a2 2 0 0 0-4 0 13.095 13.095 0 0 0 4.176 9.808A13.577 13.577 0 0 1 26 32a2 2 0 0 0 0 4 17.198 17.198 0 0 0 6.74-1.34A19.404 19.404 0 0 0 40 36a2 2 0 0 0 0-4 18.089 18.089 0 0 1-2.761-.209c3.873-3.495 6.296-8.983 6.692-15.791H46a2 2 0 0 0 0-4Z"/>
</svg>
