<svg width="24" height="24" viewBox="0 0 24 24">
  <path d="M11.527 14.689a24 24 0 0 0 1.586 1.132l-.826 1.86c-.614-.39-1.254-.83-1.898-1.326q-.134-.105-.262-.21L10 16.041l-.125.101q-.13.107-.264.212c-3.084 2.377-6.132 3.534-6.26 3.582a1 1 0 0 1-.35.064 1 1 0 0 1-.937-.649 1 1 0 0 1 .584-1.287c.058-.022 2.967-1.146 5.825-3.376C5.821 12.092 4.312 9.136 4.047 6H2a1 1 0 0 1 0-2h6.382l-.276-.553a1 1 0 0 1 1.789-.895L10.618 4H18a1 1 0 0 1 0 2h-2.047c-.265 3.135-1.774 6.09-4.426 8.688M6.057 6c.307 3.03 1.975 5.486 3.943 7.372 1.968-1.886 3.636-4.343 3.944-7.371H6.056Zm11.857 5.594 4 9a1 1 0 0 1-.508 1.32 1 1 0 0 1-.405.087 1 1 0 0 1-.915-.594L19.24 19.5h-4.48l-.847 1.907a1 1 0 1 1-1.828-.812l4-9a1 1 0 0 1 1.828 0M17 14.463 15.65 17.5h2.7z"/>
</svg>
