<svg xmlns="http://www.w3.org/2000/svg" width="48" height="48" viewBox="0 0 48 48">
  <path d="M8 11h32a2 2 0 1 0 0-4H8a2 2 0 1 0 0 4Zm32 6H8a2 2 0 1 0 0 4h32a2 2 0 1 0 0-4Zm0 10H8a2 2 0 1 0 0 4h32a2 2 0 1 0 0-4ZM10.565 42.087 8.978 37.14h-2.25v7.109H8.44v-1.66l-.166-3.404 1.723 5.064h1.133l1.72-5.059-.167 3.399v1.66h1.719v-7.11h-2.256l-1.582 4.947zm7.427 2.163h4.897v-1.318h-3.183v-1.7H22.4v-1.27h-2.695v-1.498h3.193V37.14h-4.907v7.109zm12.422-2.685-2.515-4.424h-1.714v7.109H27.9v-4.424l2.52 4.424h1.704v-7.11h-1.71v4.425zm9.149.219c0 .44-.09.757-.273.952s-.452.293-.806.293c-.703 0-1.065-.388-1.084-1.167v-4.721h-1.724v4.687c.01.781.264 1.397.762 1.846s1.18.674 2.046.674c.573 0 1.07-.101 1.49-.303s.741-.496.966-.881c.225-.387.337-.843.337-1.37V37.14h-1.714v4.643Z"/>
</svg>
