<svg width="24" height="24" viewBox="0 0 24 24">
   <path d="M12 3a9 9 0 1 0 0 18 9 9 0 0 0 0-18Zm.976 14.005H10.58v-2.353h2.396v2.353Zm1.302-5.078-.013.006h-.001a5.632 5.632 0 0 0-1.177.842 1.375 1.375 0 0 0-.265.957v-.005h-2.017a2.366 2.366 0 0 1 .96-2.334l.007-.005c.616-.574 1.414-.784 1.414-1.639a1.071 1.071 0 0 0-1.084-1.058 1.079 1.079 0 0 0-.111.008l.005-.001a1.338 1.338 0 0 0-1.417 1.254 1.33 1.33 0 0 0 .003.193l-.001-.005H8.326c.041-1.974 1.428-3.333 3.767-3.333 2.087 0 3.488 1.163 3.488 2.858a2.465 2.465 0 0 1-1.303 2.262Z"/>
</svg>
