<svg width="24" height="24" viewBox="0 0 24 24">
  <path d="M12 3a9 9 0 1 0 0 18 9 9 0 0 0 0-18m.976 14.005H10.58v-2.353h2.396zm1.302-5.078-.013.006h-.001a5.6 5.6 0 0 0-1.177.842 1.38 1.38 0 0 0-.265.957v-.005h-2.017a2.37 2.37 0 0 1 .96-2.334l.007-.005c.616-.574 1.414-.784 1.414-1.639a1.07 1.07 0 0 0-1.084-1.058 1 1 0 0 0-.111.008l.005-.001a1.34 1.34 0 0 0-1.417 1.254 1.3 1.3 0 0 0 .003.193l-.001-.005H8.326c.041-1.974 1.428-3.333 3.767-3.333 2.087 0 3.488 1.163 3.488 2.858a2.47 2.47 0 0 1-1.303 2.262"/>
</svg>
