<svg xmlns="http://www.w3.org/2000/svg" width="48" height="48" viewBox="0 0 48 48">
  <path d="M11.015 37.53A3 3 0 0 0 13.63 42H22v-8h-9Zm6.717-8.06-2.819-10.94-10.72 2.877 3.359 2-3.041 5.37a4 4 0 0 0 .16 4.175l3.642 5.462 6.145-10.894ZM15.986 8.667l-3.469 6.092 6.855 3.954 3.713-6.606-1.86-3.396a3 3 0 0 0-5.239-.044Zm27.618 18.851-3.566-6.275-6.701 4.05L37.17 32h3.826a3 3 0 0 0 2.608-4.482Z"/>
  <path d="m32 30-8 8 8 8v-4h4.461a4 4 0 0 0 3.593-2.24l2.82-5.76H32Zm-7.447-11.5 11 3 2.5-11-3.293 1.952-2.53-4.437A4 4 0 0 0 28.755 6h-6.753l5.978 10.469Z"/>
</svg>
