<svg xmlns="http://www.w3.org/2000/svg" width="48" height="48" viewBox="0 0 48 48">
  <path d="M6.378 38.337c.303 0 .543.08.721.24.177.158.266.383.266.673h1.709a2.03 2.03 0 0 0-.337-1.154 2.177 2.177 0 0 0-.944-.78 3.318 3.318 0 0 0-1.375-.273c-.525 0-.997.084-1.416.252-.42.167-.745.401-.975.703-.229.3-.344.649-.344 1.042 0 .791.461 1.413 1.382 1.865.283.14.647.286 1.094.435s.758.295.934.435c.178.14.267.335.267.585a.6.6 0 0 1-.247.515c-.164.123-.388.184-.671.184-.442 0-.763-.09-.96-.272-.196-.18-.295-.46-.295-.842H3.468c0 .47.118.883.354 1.243.236.36.588.643 1.054.85.468.206.99.31 1.566.31.817 0 1.46-.178 1.929-.533s.703-.842.703-1.464c0-.779-.384-1.39-1.153-1.831a6.256 6.256 0 0 0-1.21-.51c-.492-.158-.836-.312-1.03-.46-.196-.148-.294-.313-.294-.495 0-.208.089-.38.267-.516.176-.135.419-.202.724-.202Zm4.16 5.913h4.897v-1.318h-3.184v-1.7h2.696v-1.27h-2.695v-1.498h3.193V37.14h-4.907v7.109zm8.412-7.11-2.608 7.11h1.831l.41-1.328h2.35l.414 1.328h1.841l-2.627-7.11H18.95Zm.044 4.459.761-2.466.767 2.466h-1.528Zm10.484-1.083c.201-.326.3-.735.3-1.229 0-.683-.236-1.212-.712-1.586s-1.135-.56-1.978-.56H24.29v7.11h1.714v-2.515h.928l1.255 2.514h1.836v-.073l-1.484-2.871c.426-.201.74-.465.939-.79Zm-1.654-.356c-.165.171-.41.257-.736.257h-1.084v-1.958h1.084c.323 0 .567.087.733.262s.249.415.249.722-.082.545-.246.717Zm5.246-1.3c.198-.32.51-.48.937-.48.42 0 .733.096.938.284s.314.5.327.933h1.709c-.071-.798-.37-1.423-.894-1.878-.524-.453-1.217-.68-2.08-.68-.598 0-1.126.142-1.582.426-.456.285-.804.69-1.047 1.21-.243.524-.364 1.134-.364 1.83v.352c0 1.11.269 1.97.806 2.578s1.272.913 2.207.913c.566 0 1.07-.105 1.511-.313.44-.208.784-.502 1.028-.88.244-.38.378-.817.4-1.312h-1.704c-.013.403-.124.698-.332.884s-.51.278-.903.278c-.466 0-.793-.163-.985-.488-.19-.326-.285-.868-.285-1.626v-.503c.01-.7.114-1.21.313-1.529Zm9.522-1.72v2.823h-2.524V37.14h-1.714v7.109h1.714V41.28h2.524v2.969h1.704v-7.11h-1.704zm-4.15-7.526-5.573-5.796A12.925 12.925 0 0 0 35.5 16c0-7.18-5.82-13-13-13s-13 5.82-13 13 5.82 13 13 13c2.797 0 5.38-.891 7.5-2.394l5.558 5.78c.393.409.917.614 1.443.614a2 2 0 0 0 1.441-3.386Zm-7.03-12.422a8.787 8.787 0 0 1-.043.279 8.93 8.93 0 0 1-.246 1.094l-.008.031c-.119.392-.267.77-.436 1.136-.017.039-.037.076-.055.115A9.03 9.03 0 0 1 25 24.639l-.102.027c-.321.089-.65.159-.984.212-.089.014-.177.029-.266.04A9 9 0 0 1 22.5 25a8.991 8.991 0 0 1-6.942-3.279 9.038 9.038 0 0 1-1.35-2.221A8.917 8.917 0 0 1 13.5 16c0-.62.063-1.226.183-1.812a9.027 9.027 0 0 1 7.006-7.005 9.005 9.005 0 0 1 3.623 0 9.027 9.027 0 0 1 7.005 7.005c.12.586.183 1.192.183 1.812 0 .405-.036.8-.088 1.192Z"/>
</svg>
