<svg width="24" height="24" viewBox="0 0 24 24">
  <path d="M21 10h-1.778a7.5 7.5 0 0 0-.7-1.694l1.256-1.256a1 1 0 0 0 0-1.414l-1.414-1.414a1 1 0 0 0-1.414 0l-1.256 1.256a7.5 7.5 0 0 0-1.694-.7V3a1 1 0 0 0-1-1h-2a1 1 0 0 0-1 1v1.778a7.5 7.5 0 0 0-1.694.7L7.05 4.222a1 1 0 0 0-1.414 0L4.222 5.636a1 1 0 0 0 0 1.414l1.255 1.256A7.5 7.5 0 0 0 4.779 10H3a1 1 0 0 0-1 1v2a1 1 0 0 0 1 1h1.778a7.5 7.5 0 0 0 .7 1.694L4.222 16.95a1 1 0 0 0 0 1.414l1.414 1.414a1 1 0 0 0 .707.293 1 1 0 0 0 .707-.293l1.256-1.255a7.5 7.5 0 0 0 1.694.699V21a1 1 0 0 0 1 1h2a1 1 0 0 0 1-1v-1.778a7.5 7.5 0 0 0 1.694-.7l1.256 1.256a1 1 0 0 0 .707.293 1 1 0 0 0 .707-.293l1.414-1.414a1 1 0 0 0 0-1.414l-1.255-1.256a7.5 7.5 0 0 0 .7-1.694H21a1 1 0 0 0 1-1v-2a1 1 0 0 0-1-1m-9 5.5a3.5 3.5 0 1 1 0-7 3.5 3.5 0 0 1 0 7"/>
</svg>
