<svg id="k" xmlns="http://www.w3.org/2000/svg" width="48" height="48" viewBox="0 0 48 48">
  <defs>
    <style>
      .ds{fill-rule:evenodd}
    </style>
  </defs>
  <g id="l">
    <path class="ds" d="M28 36V8l15 14-15 14z"/>
    <path d="M28 38a1.999 1.999 0 0 1-2-2V8a2 2 0 0 1 3.365-1.462l15 14a1.998 1.998 0 0 1 0 2.924l-15 14A2.001 2.001 0 0 1 28 38Zm2-25.398v18.796L40.069 22 30 12.602Z"/>
    <path class="ds" d="M26.02 29.061 32 22l-5.98-6.945C13.14 15.655 3 22.052 3 29.86c0 7.144 9.998 11.871 9.998 11.871a2 2 0 0 0 2.004-3.462c-1.536-.935-2.426-2.048-2.426-3.243C12.576 31.959 19 29 26.02 29.06Z"/>
  </g>
</svg>
