<svg width="24" height="24" viewBox="0 0 24 24">
  <path d="M9 2a1 1 0 0 0-1 1v3.586L3.207 1.793a1 1 0 0 0-1.414 0 1 1 0 0 0 0 1.414L6.586 8H3a1 1 0 0 0 0 2h6q.099 0 .196-.02.044-.011.085-.025.051-.013.101-.031.05-.023.095-.05c.026-.015.053-.026.078-.043a1 1 0 0 0 .277-.277c.016-.023.026-.05.04-.074q.028-.047.052-.098c.013-.032.02-.066.03-.1q.016-.041.026-.086A1 1 0 0 0 10 9V3a1 1 0 0 0-1-1m5.045 7.283q.013.05.031.1.024.05.052.097c.014.025.024.05.04.074q.112.166.277.278c.025.016.052.027.078.042q.045.027.095.05.05.018.1.03.044.016.086.026.097.02.196.02h6a1 1 0 0 0 0-2h-3.586l4.793-4.793a1 1 0 0 0 0-1.414 1 1 0 0 0-1.414 0L16 6.586V3a1 1 0 0 0-2 0v6q0 .099.02.196.011.044.025.087M17.414 16H21a1 1 0 0 0 0-2h-6a1 1 0 0 0-.196.02q-.043.011-.084.025-.053.013-.103.032c-.033.013-.062.032-.093.049q-.04.02-.079.042a1 1 0 0 0-.277.278c-.016.023-.026.05-.04.074q-.028.047-.052.098c-.013.032-.02.066-.03.1q-.016.042-.026.086A1 1 0 0 0 14 15v6a1 1 0 0 0 2 0v-3.586l4.793 4.793a1 1 0 0 0 .707.293 1 1 0 0 0 .707-.293 1 1 0 0 0 0-1.414zm-7.46-1.282c-.01-.034-.017-.068-.03-.1q-.024-.051-.052-.098c-.014-.025-.024-.05-.04-.074a1 1 0 0 0-.277-.277q-.04-.024-.08-.043-.044-.027-.092-.05-.052-.018-.103-.031c-.028-.008-.055-.02-.084-.025A1 1 0 0 0 9 14H3a1 1 0 0 0 0 2h3.586l-4.793 4.793a1 1 0 0 0 0 1.414 1 1 0 0 0 .707.293 1 1 0 0 0 .707-.293L8 17.414V21a1 1 0 1 0 2 0v-6a1 1 0 0 0-.02-.196q-.01-.045-.026-.086"/>
</svg>
