<svg width="24" height="24" viewBox="0 0 24 24">
   <path d="M9 2a1 1 0 0 0-1 1v3.586L3.207 1.793a1 1 0 0 0-1.414 0 1 1 0 0 0 0 1.414L6.586 8H3a1 1 0 0 0 0 2h6a1.01 1.01 0 0 0 .196-.02c.03-.006.057-.017.085-.025.034-.01.069-.018.101-.031.034-.014.064-.033.095-.05.026-.015.053-.026.078-.043a1.004 1.004 0 0 0 .277-.277c.016-.023.027-.05.04-.074.018-.032.037-.063.052-.098.013-.032.02-.066.03-.1.01-.028.02-.056.026-.086A1 1 0 0 0 10 9V3a1 1 0 0 0-1-1Zm5.045 7.282c.01.034.018.068.032.1.014.035.033.066.051.098.014.025.024.05.04.074a1.005 1.005 0 0 0 .278.278c.024.016.051.027.077.042.031.017.061.036.095.05.033.013.067.021.1.03.03.01.057.02.086.026A1 1 0 0 0 15 10h6a1 1 0 0 0 0-2h-3.586l4.793-4.793a1 1 0 0 0 0-1.414 1 1 0 0 0-1.414 0L16 6.586V3a1 1 0 1 0-2 0v6a1 1 0 0 0 .02.196c.006.03.017.058.026.087ZM17.416 16H21a1 1 0 1 0 0-2h-6a.995.995 0 0 0-.196.02c-.029.006-.056.017-.084.025-.034.01-.07.018-.102.032-.033.013-.063.032-.094.049-.026.014-.054.026-.079.042a1.005 1.005 0 0 0-.277.278c-.016.023-.026.05-.04.074-.018.032-.037.063-.052.098-.013.032-.02.066-.03.1-.01.028-.02.056-.026.086A1.008 1.008 0 0 0 14 15v6a1 1 0 0 0 2 0v-3.586l4.793 4.793a.997.997 0 0 0 .707.293.996.996 0 0 0 .707-.293 1 1 0 0 0 0-1.414L17.414 16Zm-7.46-1.282c-.01-.034-.018-.068-.031-.1-.015-.035-.034-.066-.052-.098-.014-.025-.024-.05-.04-.074a1.006 1.006 0 0 0-.277-.277c-.025-.017-.053-.029-.08-.043-.03-.017-.06-.036-.092-.05-.034-.013-.069-.021-.103-.031-.028-.008-.055-.02-.084-.025A1.002 1.002 0 0 0 9 14H3a1 1 0 0 0 0 2h3.586l-4.793 4.793a1 1 0 0 0 0 1.414.996.996 0 0 0 .707.293.997.997 0 0 0 .707-.293L8 17.414V21a1 1 0 1 0 2 0v-6a1 1 0 0 0-.02-.196c-.006-.03-.017-.057-.026-.086Z"/>
</svg>
