<svg width="24" height="24" viewBox="0 0 24 24">
  <path d="M9 2a1 1 0 0 0-1 1v3.586L3.207 1.793a1 1 0 0 0-1.414 0 1 1 0 0 0 0 1.414L6.586 8H3a1 1 0 0 0 0 2h6a.995.995 0 0 0 .196-.02c.03-.006.057-.017.085-.025.034-.01.068-.018.101-.031.034-.014.064-.033.095-.05.026-.015.053-.026.078-.043a1.004 1.004 0 0 0 .277-.277c.016-.023.026-.05.04-.074.018-.032.037-.063.052-.098.013-.032.02-.066.03-.1.01-.028.02-.056.026-.086A1 1 0 0 0 10 9V3a1 1 0 0 0-1-1Zm5.045 7.282c.01.034.018.068.031.1.015.035.034.066.052.098.014.025.024.05.04.074.074.11.168.204.277.278.025.016.052.027.078.042.031.017.061.036.095.05.033.013.067.02.1.03.03.01.057.02.086.026.065.013.13.02.196.02h6a1 1 0 0 0 0-2h-3.586l4.793-4.793a1 1 0 0 0 0-1.414 1 1 0 0 0-1.414 0L16 6.586V3a1 1 0 0 0-2 0v6c0 .066.007.131.02.196.006.03.017.058.025.086ZM17.414 16H21a1 1 0 0 0 0-2h-6a.995.995 0 0 0-.196.02c-.03.006-.056.017-.084.025-.035.01-.07.018-.103.032-.033.013-.062.032-.093.049-.026.014-.054.026-.079.042a1.004 1.004 0 0 0-.277.278c-.016.023-.026.05-.04.074-.018.032-.037.063-.052.098-.013.032-.02.066-.03.1-.01.028-.02.056-.026.086A1 1 0 0 0 14 15v6a1 1 0 0 0 2 0v-3.586l4.793 4.793a.997.997 0 0 0 .707.293.997.997 0 0 0 .707-.293 1 1 0 0 0 0-1.414L17.414 16Zm-7.46-1.282c-.01-.034-.017-.068-.03-.1-.015-.035-.034-.066-.052-.098-.014-.025-.024-.05-.04-.074a1.006 1.006 0 0 0-.277-.277c-.026-.017-.053-.029-.08-.043-.03-.017-.06-.036-.092-.05-.034-.013-.069-.021-.103-.031-.028-.008-.055-.02-.084-.025A1.002 1.002 0 0 0 9 14H3a1 1 0 0 0 0 2h3.586l-4.793 4.793a1 1 0 0 0 0 1.414.996.996 0 0 0 .707.293.997.997 0 0 0 .707-.293L8 17.414V21a1 1 0 1 0 2 0v-6a1 1 0 0 0-.02-.196c-.006-.03-.017-.058-.026-.086Z"/>
</svg>
