<svg width="24" height="24" viewBox="0 0 24 24">
  <path d="M17.706 12.708a1.012 1.012 0 0 0 .126-.153c.016-.025.028-.053.042-.08.017-.03.036-.06.05-.092.013-.034.021-.069.031-.103.009-.028.02-.055.025-.084a1.005 1.005 0 0 0 0-.392c-.006-.03-.017-.056-.025-.084-.01-.035-.018-.07-.032-.103-.013-.033-.032-.062-.049-.093-.014-.026-.026-.054-.042-.079a1 1 0 0 0-.126-.153L9.707 3.293a1 1 0 1 0-1.414 1.414L14.586 11H3a1 1 0 0 0 0 2h11.586l-6.293 6.293A.996.996 0 0 0 8 20a1 1 0 0 0 1.707.707l8-8Z"/>
  <path d="M22 2h-4a1 1 0 0 0 0 2h2v16h-2a1 1 0 0 0 0 2h4V2Z"/>
</svg>
