<svg xmlns="http://www.w3.org/2000/svg" width="48" height="48" viewBox="0 0 48 48">
  <path d="m24 6.61 3.055 10.18.588 1.96h14.244l-10.023 8.145-1.43 1.161.53 1.763 3.618 12.061-8.848-7.187L24 33.283l-1.734 1.41-8.847 7.187 3.619-12.06.529-1.764-1.43-1.161L6.113 18.75h14.246l.588-1.96L24 6.61M24 2a2 2 0 0 0-1.915 1.425L18.312 16H4a2 2 0 0 0-1.261 3.553l11.664 9.476-4.318 14.397a2 2 0 0 0 3.176 2.126l10.74-8.725 10.738 8.725a2 2 0 0 0 3.177-2.126l-4.318-14.397 11.663-9.477A1.999 1.999 0 0 0 44 16H29.688L25.916 3.425A2 2 0 0 0 24 2Z" fill="#0d5156"/>
  <path d="M24 2a2 2 0 0 0-1.916 1.425L18.312 16H4a2 2 0 0 0-1.26 3.553l11.663 9.476-4.319 14.396a2.001 2.001 0 0 0 3.177 2.127L24 36.827V2Z" fill="#0d5156"/>
  <path d="M45.885 17.331A2 2 0 0 0 44 16H29.69L25.916 3.425a2 2 0 0 0-3.832 0L18.31 16H4a2 2 0 0 0-1.885 1.331c-.094.266-.109.54-.09.81.04.539.276 1.056.714 1.412l8.748 7.107 2.916 2.37-4.32 14.395c-.108.363-.09.734.003 1.083.121.459.387.877.801 1.154.29.194.618.286.949.314.055.005.109.024.164.024.448 0 .895-.15 1.261-.448L24 36.827l10.74 8.725a2 2 0 0 0 3.177-2.126l-4.32-14.397 11.664-9.477a1.999 1.999 0 0 0 .624-2.22Zm-14.021 9.564-1.43 1.161.53 1.763 3.618 12.061-8.848-7.187L24 33.284V6.61l3.055 10.18.588 1.96h14.244l-10.023 8.145Z"/>
</svg>
