<svg xmlns="http://www.w3.org/2000/svg" width="48" height="48" viewBox="0 0 48 48">
  <path d="m24 6.61 3.054 10.18.588 1.96h14.245l-10.024 8.145-1.428 1.161.529 1.763L34.58 41.88l-8.847-7.187L24 33.283l-1.734 1.41-8.847 7.187 3.618-12.06.53-1.764-1.43-1.161L6.112 18.75h14.245l.589-1.96L24 6.61M24 2a2 2 0 0 0-1.915 1.425L18.312 16H4a2 2 0 0 0-1.261 3.553l11.664 9.476-4.319 14.397a2 2 0 0 0 3.177 2.126L24 36.827l10.74 8.725a2 2 0 0 0 3.177-2.126l-4.32-14.397 11.664-9.477A1.999 1.999 0 0 0 44 16H29.688L25.916 3.425A2 2 0 0 0 24 2Z" fill="#0d5156"/>
  <path d="m24 6.61 3.054 10.18.588 1.96h14.245l-10.024 8.145-1.428 1.161.529 1.763L34.58 41.88l-8.847-7.187L24 33.283l-1.734 1.41-8.847 7.187 3.618-12.06.53-1.764-1.43-1.161L6.112 18.75h14.245l.589-1.96L24 6.61M24 2a2 2 0 0 0-1.915 1.425L18.312 16H4a2 2 0 0 0-1.261 3.553l11.664 9.476-4.319 14.397a2 2 0 0 0 3.177 2.126L24 36.827l10.74 8.725a2 2 0 0 0 3.177-2.126l-4.32-14.397 11.664-9.477A1.999 1.999 0 0 0 44 16H29.688L25.916 3.425A2 2 0 0 0 24 2Z"/>
</svg>
