<svg width="24" height="24" viewBox="0 0 24 24">
   <path d="M12 5.5a1 1 0 0 0 1-1V2a1 1 0 0 0-2 0v2.5a1 1 0 0 0 1 1Zm0 13a1 1 0 0 0-1 1V22a1 1 0 1 0 2 0v-2.5a1 1 0 0 0-1-1ZM5.99 7.404a.997.997 0 0 0 .707.293.997.997 0 0 0 .707-.293 1 1 0 0 0 0-1.414L5.636 4.222a1 1 0 1 0-1.414 1.414l1.767 1.768Zm12.02 9.192a1 1 0 0 0-1.414 1.414l1.768 1.768a.997.997 0 0 0 .707.293.997.997 0 0 0 .707-.293 1 1 0 0 0 0-1.414l-1.767-1.768ZM5.5 12a1 1 0 0 0-1-1H2a1 1 0 0 0 0 2h2.5a1 1 0 0 0 1-1ZM22 11h-2.5a1 1 0 0 0 0 2H22a1 1 0 1 0 0-2ZM5.99 16.596l-1.768 1.768a1 1 0 0 0 0 1.414.997.997 0 0 0 .707.293.997.997 0 0 0 .707-.293l1.768-1.768a1 1 0 1 0-1.415-1.414Zm11.313-8.9a.998.998 0 0 0 .707-.292l1.768-1.768a1 1 0 1 0-1.414-1.414L16.596 5.99a1 1 0 0 0 0 1.414.997.997 0 0 0 .707.293ZM12 17.5a5.5 5.5 0 1 0 0-11 5.5 5.5 0 0 0 0 11Z"/>
</svg>
