<svg width="24" height="24" viewBox="0 0 24 24">
  <path d="M12 5.5a1 1 0 0 0 1-1V2a1 1 0 0 0-2 0v2.5a1 1 0 0 0 1 1m0 13a1 1 0 0 0-1 1V22a1 1 0 0 0 2 0v-2.5a1 1 0 0 0-1-1M5.99 7.404a1 1 0 0 0 .707.293 1 1 0 0 0 .707-.293 1 1 0 0 0 0-1.414L5.636 4.222a1 1 0 1 0-1.414 1.414zm12.02 9.192a1 1 0 0 0-1.414 1.414l1.768 1.768a1 1 0 0 0 .707.293 1 1 0 0 0 .707-.293 1 1 0 0 0 0-1.414zM5.5 12a1 1 0 0 0-1-1H2a1 1 0 0 0 0 2h2.5a1 1 0 0 0 1-1M22 11h-2.5a1 1 0 0 0 0 2H22a1 1 0 0 0 0-2M5.99 16.596l-1.768 1.768a1 1 0 0 0 0 1.414 1 1 0 0 0 .707.293 1 1 0 0 0 .707-.293l1.768-1.768a1 1 0 1 0-1.415-1.414m11.313-8.9a1 1 0 0 0 .707-.292l1.768-1.768a1 1 0 1 0-1.414-1.414L16.596 5.99a1 1 0 0 0 0 1.414 1 1 0 0 0 .707.293M12 17.5a5.5 5.5 0 1 0 0-11 5.5 5.5 0 0 0 0 11"/>
</svg>
