<svg width="24" height="24" viewBox="0 0 24 24">
  <path d="M12.816 1.551A1 1 0 0 0 11.7 1.9L7.5 7.5h-5a1 1 0 0 0-1 1v8a1 1 0 0 0 1 1h5.055l4.202 4.669A1 1 0 0 0 13.5 21.5v-19a1 1 0 0 0-.684-.949m4.134 5.5a1 1 0 0 0-1.414 0 1 1 0 0 0 0 1.413 5.006 5.006 0 0 1 0 7.072 1 1 0 0 0 0 1.414 1 1 0 0 0 .707.293 1 1 0 0 0 .707-.293 7.007 7.007 0 0 0 0-9.9"/>
  <path d="M19.778 4.222a1 1 0 0 0-1.414 0 1 1 0 0 0 0 1.414c3.51 3.51 3.51 9.22 0 12.728a1 1 0 0 0 0 1.414 1 1 0 0 0 .707.293 1 1 0 0 0 .707-.293c4.289-4.289 4.289-11.267 0-15.556"/>
</svg>
