<svg width="24" height="24" viewBox="0 0 24 24">
   <path d="M12.816 1.551A1.001 1.001 0 0 0 11.7 1.9L7.5 7.5h-5a1 1 0 0 0-1 1v8a1 1 0 0 0 1 1h5.055l4.202 4.669A1 1 0 0 0 13.5 21.5v-19a1 1 0 0 0-.684-.949ZM20.414 12l2.293-2.293a1 1 0 0 0 0-1.414 1 1 0 0 0-1.414 0L19 10.586l-2.293-2.293a1 1 0 0 0-1.414 0 1 1 0 0 0 0 1.414L17.586 12l-2.293 2.293a1 1 0 0 0 0 1.414A.997.997 0 0 0 16 16a.997.997 0 0 0 .707-.293L19 13.414l2.293 2.293A.997.997 0 0 0 22 16a.997.997 0 0 0 .707-.293 1 1 0 0 0 0-1.414L20.414 12Z"/>
</svg>
