<svg width="24" height="24" viewBox="0 0 24 24">
  <path d="M21 5.766a1.75 1.75 0 1 1-3.5 0 1.75 1.75 0 0 1 3.5 0m-3 6.25h-2.586l2.293-2.293a.997.997 0 0 0 .004-1.41l-.004-.005-5-5a1 1 0 0 0-.708-.293 1 1 0 0 0-.707.293l-3 3a1 1 0 1 0 1.39 1.44l.024-.025L12 5.43l1.586 1.586-3.094 3.094a5.3 5.3 0 0 0-1.009-.094 5.43 5.43 0 0 0-3.51 1.28l.008-.006 1.432 1.432a3.45 3.45 0 0 1 2.086-.706 3.505 3.505 0 0 1 3.5 3.5 3.45 3.45 0 0 1-.712 2.094l.006-.008 1.433 1.432A5.44 5.44 0 0 0 15 15.524a5.5 5.5 0 0 0-.222-1.547l.01.038h2.213v5a1 1 0 1 0 2 0v-6a1 1 0 0 0-1-1zm-8.5 7a3.504 3.504 0 0 1-3.5-3.5 3.45 3.45 0 0 1 .713-2.095l-.006.009-1.433-1.433A5.47 5.47 0 0 0 4 15.517a5.499 5.499 0 0 0 9.028 4.218l-.009.007-1.432-1.433a3.44 3.44 0 0 1-2.087.707"/>
</svg>
