<svg width="24" height="24" viewBox="0 0 24 24">
  <path d="M22.54 6.686a2.775 2.775 0 0 0-1.925-1.953l-.02-.004C18.88 4.266 12 4.266 12 4.266s-6.88 0-8.595.463a2.776 2.776 0 0 0-1.94 1.938l-.005.02A28.205 28.205 0 0 0 1 11.831v.194-.01.183c0 1.819.167 3.599.488 5.325l-.028-.18a2.734 2.734 0 0 0 1.926 1.923l.019.004c1.715.463 8.595.463 8.595.463s6.88 0 8.595-.463a2.734 2.734 0 0 0 1.94-1.907l.005-.02c.293-1.546.46-3.326.46-5.145v-.194.01-.183c0-1.819-.167-3.599-.488-5.325l.028.179Zm-12.79 8.6v-6.54l5.75 3.27-5.75 3.272Z"/>
</svg>
