<svg data-name="zoom-out" xmlns="http://www.w3.org/2000/svg" width="48" height="48" viewBox="0 0 48 48">
  <g data-name="Export">
    <path d="M43.414 40.586 32.628 29.8A15.913 15.913 0 0 0 36 20c0-8.836-7.163-16-16-16S4 11.164 4 20s7.163 16 16 16c3.697 0 7.091-1.266 9.8-3.372l10.786 10.786c.39.39.902.586 1.414.586s1.024-.195 1.414-.586a2 2 0 0 0 0-2.828ZM20 32c-6.617 0-12-5.383-12-12S13.383 8 20 8s12 5.383 12 12-5.383 12-12 12Z"/>
    <path d="M12 18.5a1.5 1.5 0 0 0 0 3h16a1.5 1.5 0 0 0 0-3"/>
  </g>
</svg>
